<svg width="56" height="42" viewBox="0 0 56 42" fill="none" xmlns="http://www.w3.org/2000/svg">
<path fill-rule="evenodd" clip-rule="evenodd" d="M0.719482 25.6269L6.80857 27.6708C6.97838 27.7304 7.09829 27.802 7.09829 27.5896V18.4303C7.09829 18.2392 6.81643 18.2203 6.38958 18.1031L3.94762 17.3829C3.70971 17.3164 3.42273 17.2304 3.15243 17.1423L0.719482 16.4131V25.6269Z" fill="#F68C10"/>
<path fill-rule="evenodd" clip-rule="evenodd" d="M40.6279 12.215L46.6052 14.1977C46.7748 14.2559 46.8549 14.3058 47.0068 14.3412V4.90931C46.7529 4.78748 40.9073 3.05566 40.6279 3.05566V12.215Z" fill="#F68C10"/>
<path fill-rule="evenodd" clip-rule="evenodd" d="M16.6938 25.6269L22.7956 27.6581C22.9254 27.7091 23.0727 27.8279 23.0727 27.5896V18.4303C23.0727 18.2494 22.9372 18.2584 22.7922 18.2201C22.6116 18.1724 22.5276 18.1487 22.3637 18.1033L16.6938 16.4131V25.6269Z" fill="#F68C10"/>
<path fill-rule="evenodd" clip-rule="evenodd" d="M8.67932 39.0387L15.0503 41.1341L15.0582 31.6786C14.7868 31.656 14.5071 31.5346 14.2834 31.472L11.8841 30.7637C11.3285 30.609 10.8522 30.456 10.2834 30.2926C9.728 30.133 9.23805 29.9551 8.67932 29.825V39.0387Z" fill="#F68C10"/>
<path fill-rule="evenodd" clip-rule="evenodd" d="M32.6681 4.90931V14.3412C32.9522 14.2751 33.2505 14.156 33.5335 14.0617L38.7591 12.3088C39.0269 12.2204 39.0469 12.0763 39.0469 11.3972V3.05566C38.7315 3.06264 34.761 4.29199 34.2687 4.43822L32.6681 4.90931Z" fill="#F68C10"/>
<path fill-rule="evenodd" clip-rule="evenodd" d="M24.6537 18.4303V27.5896C24.6537 27.7883 24.7454 27.7369 24.9016 27.6861C25.0505 27.6378 25.1902 27.5835 25.3149 27.542C25.6093 27.4441 25.8308 27.3504 26.1184 27.2552L31.0325 25.6269V16.4131L29.445 16.8973C28.8883 17.0592 28.3391 17.2335 27.8039 17.3825L24.985 18.2164C24.8138 18.2623 24.6537 18.2388 24.6537 18.4303Z" fill="#F68C10"/>
<path fill-rule="evenodd" clip-rule="evenodd" d="M24.6537 12.215C25.1493 12.3304 25.7443 12.5692 26.2553 12.7396L31.0325 14.3412V4.90931C30.8866 4.8393 30.4779 4.73409 30.2811 4.67933C30.0304 4.60954 29.7616 4.52128 29.4829 4.44171L26.2826 3.49851C25.9314 3.38975 24.971 3.06271 24.6537 3.05566V12.215Z" fill="#F68C10"/>
<path fill-rule="evenodd" clip-rule="evenodd" d="M48.6425 4.90931V14.3412C49.8896 14.0507 53.8433 12.4894 55.0213 12.215V3.05566C54.7708 3.0612 52.1577 3.87211 51.8402 3.96351C51.2772 4.12553 50.8054 4.27559 50.2425 4.43761C49.6985 4.59416 49.1683 4.7868 48.6425 4.90931Z" fill="#F68C10"/>
<path fill-rule="evenodd" clip-rule="evenodd" d="M8.67932 18.4303V27.6987C9.14227 27.6987 14.0983 25.8505 15.0582 25.6269V16.4131C14.884 16.4966 14.4993 16.5973 14.2719 16.6627L9.01101 18.2168C8.83799 18.2661 8.67932 18.2355 8.67932 18.4303Z" fill="#F68C10"/>
<path fill-rule="evenodd" clip-rule="evenodd" d="M16.6938 31.6786V41.1105L23.0155 39.0309C23.0181 37.4465 23.0727 36.0219 23.0727 34.4591C23.0727 32.9144 23.0727 31.3697 23.0727 29.825L18.318 31.231C18.0278 31.3122 17.7929 31.3824 17.5184 31.4672C17.3256 31.5268 16.9111 31.6737 16.6938 31.6786Z" fill="#F68C10"/>
<path fill-rule="evenodd" clip-rule="evenodd" d="M2.02802 15.4863C2.32457 15.511 7.64185 17.0128 7.86163 17.0128C8.0821 17.0128 10.4063 16.3547 10.8053 16.2492L13.7497 15.4863C13.623 15.3133 13.7159 15.4143 13.4602 15.3396L9.42159 14.0898C7.71814 13.5186 8.05257 13.5053 6.42295 14.0476L2.36025 15.3278C2.14437 15.3911 2.14389 15.3281 2.02802 15.4863Z" fill="#F68C10"/>
<path fill-rule="evenodd" clip-rule="evenodd" d="M18.0023 15.4317C18.1706 15.5486 23.6629 17.0127 23.8904 17.0127L28.9831 15.6722C29.2457 15.6063 29.4656 15.5077 29.7241 15.4862C29.5836 15.2945 28.5514 15.0689 28.3136 14.9884C27.1911 14.6082 25.7383 14.2262 24.6059 13.8438C23.5753 13.4959 23.8243 13.6126 22.3569 14.0618L19.4538 14.975C19.1983 15.0614 19.0018 15.1068 18.7444 15.1925C18.4835 15.2791 18.255 15.3728 18.0023 15.4317Z" fill="#F68C10"/>
<path fill-rule="evenodd" clip-rule="evenodd" d="M26.0167 2.07434L31.8422 3.62186C32.0072 3.61933 32.3976 3.4796 32.5586 3.43694C34.1495 3.0159 36.2508 2.42094 37.7385 2.07434C37.5721 1.92976 36.524 1.6613 36.3142 1.59048L31.8503 0.220703C31.6202 0.220703 27.3653 1.62685 26.7254 1.80178C26.5786 1.84191 26.4942 1.86878 26.3492 1.91622L26.0167 2.07434Z" fill="#F68C10"/>
<path fill-rule="evenodd" clip-rule="evenodd" d="M41.991 2.07434L47.8165 3.62186L53.7128 2.07434L53.4191 1.93188C53.2519 1.8845 53.1935 1.87514 53.0374 1.82284L47.8246 0.220703L43.4434 1.56402C43.1666 1.64551 42.9687 1.72823 42.6997 1.80178C42.5067 1.85456 42.1455 1.94001 41.991 2.07434Z" fill="#F68C10"/>
<path fill-rule="evenodd" clip-rule="evenodd" d="M10.0424 28.7893V28.8983C10.4289 28.9305 15.7253 30.4249 15.8215 30.4249C15.9823 30.4249 16.3933 30.2924 16.5655 30.242L21.7096 28.7893C21.5264 28.7741 21.1673 28.6552 20.9798 28.5923L17.3134 27.4609C17.0595 27.3775 16.8626 27.3276 16.6046 27.2428C15.6939 26.9436 15.9225 26.94 14.4244 27.4468L10.0424 28.7893Z" fill="#F68C10"/>
</svg>
