<svg width="42" height="43" viewBox="0 0 42 43" fill="none" xmlns="http://www.w3.org/2000/svg">
<path fill-rule="evenodd" clip-rule="evenodd" d="M21.101 4.79051C21.2366 4.87287 29.3924 22.8937 30.6448 25.6033L33.8186 32.6021L29.0609 32.5994C28.9723 32.2458 27.417 28.5681 27.1396 27.895C27.0807 27.7523 26.592 26.4145 26.4353 26.3705H21.1176L21.1305 42.7272L24.868 40.7212C26.5057 39.7698 29.1267 38.4389 30.8402 37.5126C31.0263 37.412 31.1931 37.3251 31.3687 37.2263L36.2339 34.5949C36.5411 34.4433 38.1887 33.4968 38.446 33.4384L38.8284 30.1805C38.9427 28.8801 39.192 27.371 39.3185 26.0665L39.9977 20.2682C40.4101 17.107 40.7562 13.602 41.1721 10.4142L41.5721 7.12008C41.371 7.01653 41.2061 6.98219 40.9767 6.89882L35.2451 4.89741C32.3065 3.92544 29.1358 2.71403 26.2634 1.78886C25.1369 1.42598 21.9634 0.229691 21.1263 0.0200195L21.101 4.79051Z" fill="#C3002F"/>
<path fill-rule="evenodd" clip-rule="evenodd" d="M21.1303 42.7272L21.1175 26.3705L15.7407 26.3705C15.5077 26.5399 14.5873 29.0093 14.4 29.4642L13.1219 32.6021L8.35098 32.5946L21.1008 4.79051L21.1262 0.0200195C20.6997 0.10834 20.2459 0.312046 19.8466 0.439944C18.4776 0.878444 16.8082 1.53273 15.4052 1.98903C13.1018 2.73813 10.5912 3.71189 8.33041 4.44465L1.29683 6.88708C1.04401 6.9707 0.865226 7.01372 0.658691 7.12008C0.76577 7.56736 0.807426 8.25846 0.867966 8.73149C1.07365 10.3388 1.22433 12.0603 1.45005 13.6634L3.78481 33.4384C4.03654 33.4955 5.11096 34.103 5.39842 34.27L10.8023 37.1777C10.9803 37.2779 11.1773 37.375 11.3638 37.4853C11.7265 37.6998 12.1007 37.8593 12.4607 38.0725L17.8251 40.9653C18.0078 41.0571 18.1489 41.1433 18.355 41.2502L21.1303 42.7272Z" fill="#DC0031"/>
<path fill-rule="evenodd" clip-rule="evenodd" d="M21.161 13.9141C21.4632 14.4822 24.7468 22.2335 24.7822 22.4575C24.8227 22.5232 24.8393 22.494 24.7349 22.5274L17.3916 22.5142L21.09 13.8442L21.161 13.9141ZM21.1174 26.3705H26.435C26.5917 26.4145 27.0805 27.7523 27.1393 27.8951C27.4167 28.5681 28.972 32.2458 29.0607 32.5994L33.8184 32.6021L30.6446 25.6033C29.3921 22.8937 21.2364 4.87288 21.1007 4.79053L8.35083 32.5946L13.1217 32.6021L14.3999 29.4642C14.5872 29.0093 15.5075 26.5399 15.7405 26.3706L21.1174 26.3705Z" fill="white"/>
<path fill-rule="evenodd" clip-rule="evenodd" d="M24.7824 22.4573L21.1175 22.4829C21.1175 21.5274 21.0316 14.1445 21.1611 13.9138L21.0901 13.844L17.3917 22.5139L24.735 22.5272C24.8394 22.4938 24.8229 22.523 24.7824 22.4573Z" fill="#DC0031"/>
<path fill-rule="evenodd" clip-rule="evenodd" d="M24.7823 22.4575C24.7468 22.2335 21.4632 14.4822 21.161 13.9141C21.0315 14.1447 21.1174 21.5276 21.1174 22.4831L24.7823 22.4575Z" fill="#C3002F"/>
</svg>
