<svg width="42" height="41" viewBox="0 0 42 41" fill="none" xmlns="http://www.w3.org/2000/svg">
<path fill-rule="evenodd" clip-rule="evenodd" d="M11.8064 9.16078C15.6236 9.14335 20.3111 8.98159 24.0184 9.18017C27.5676 9.37013 30.4278 11.0429 30.4283 14.6413C30.4292 18.6058 28.228 18.9945 27.0964 19.9053C32.2997 20.8755 33.0347 28.3479 28.8039 30.9149C26.4633 32.335 24.1206 32.3331 21.0058 32.3331C17.9394 32.3331 14.8727 32.3367 11.8064 32.3325V9.16078ZM0.747871 34.1776C0.932632 37.0423 2.9933 38.9928 5.16668 39.8305C6.91442 40.504 12.5828 40.2277 14.8732 40.2277C18.2926 40.2277 21.7121 40.2277 25.1315 40.2277C28.3446 40.2277 32.1085 40.4037 35.253 40.2193C38.2155 40.0456 40.2197 38.0487 41.0856 35.9198C41.7778 34.2182 41.4938 28.7017 41.4938 26.4715C41.4938 23.1432 41.4938 19.8147 41.4938 16.4863C41.4938 13.3611 41.6756 9.69253 41.4851 6.63489C41.3059 3.75854 39.2504 1.78757 37.0696 0.955502C35.3059 0.282494 29.6636 0.559508 27.3615 0.559508C23.9421 0.559508 20.5226 0.559508 17.1033 0.559508C13.8921 0.559508 10.1245 0.382739 6.98251 0.56799C4.02699 0.742056 2.00266 2.74197 1.14784 4.86585C0.456293 6.584 0.740881 12.0736 0.740881 14.3156C0.740881 17.644 0.740881 20.9725 0.740881 24.3009C0.740881 27.42 0.551379 31.1321 0.747871 34.1776Z" fill="#563E7C"/>
<path fill-rule="evenodd" clip-rule="evenodd" d="M15.988 28.9942L15.9888 21.8037C18.473 21.8125 20.9809 21.7666 23.4622 21.8037C25.8425 21.8393 27.329 23.0159 27.3101 25.3865C27.2916 27.7071 25.8309 28.9487 23.4609 28.9946C20.9916 29.0424 18.4638 28.9947 15.988 28.9942ZM16.0164 18.8463L15.9903 12.4971C18.2371 12.5006 20.4602 12.4885 22.6816 12.4965C24.9965 12.5048 26.2443 13.3186 26.2488 15.6191C26.2528 17.6796 24.8548 18.8205 22.7945 18.848C20.5476 18.8778 18.2663 18.8524 16.0164 18.8463ZM11.8064 32.3323C14.8727 32.3366 17.9394 32.333 21.0058 32.333C24.1205 32.333 26.4633 32.3349 28.8039 30.9148C33.0347 28.3478 32.2997 20.8753 27.0964 19.9052C28.228 18.9944 30.4292 18.6057 30.4283 14.6411C30.4278 11.0427 27.5676 9.36999 24.0184 9.18003C20.3111 8.98145 15.6236 9.14321 11.8064 9.16064V32.3323Z" fill="#FEFEFE"/>
<path fill-rule="evenodd" clip-rule="evenodd" d="M15.988 28.9943C18.4638 28.9948 20.9916 29.0424 23.4609 28.9946C25.8309 28.9488 27.2916 27.7071 27.3101 25.3865C27.3291 23.0159 25.8425 21.8394 23.4622 21.8037C20.9809 21.7667 18.473 21.8126 15.9889 21.8037L15.988 28.9943Z" fill="#563E7C"/>
<path fill-rule="evenodd" clip-rule="evenodd" d="M16.0163 18.8463C18.2662 18.8523 20.5476 18.8778 22.7945 18.8479C24.8547 18.8205 26.2528 17.6796 26.2487 15.619C26.2442 13.3185 24.9964 12.5048 22.6816 12.4964C20.4601 12.4885 18.2371 12.5005 15.9902 12.4971L16.0163 18.8463Z" fill="#563E7C"/>
</svg>
