<svg width="55" height="46" viewBox="0 0 55 46" fill="none" xmlns="http://www.w3.org/2000/svg">
<path fill-rule="evenodd" clip-rule="evenodd" d="M20.6786 21.6496C21.3526 21.4598 21.9375 21.9411 22.0731 22.4583C22.2502 23.1342 21.7866 23.7469 21.2594 23.8756C19.7782 24.2373 19.1672 22.0753 20.6786 21.6496ZM18.7583 24.6711C18.8793 25.0353 19.0396 25.3078 19.2268 25.6242C19.3276 25.7946 19.3776 25.9055 19.4878 26.0658C19.6125 26.2472 19.6812 26.2924 19.7131 26.4741C19.8211 26.5491 20.6828 27.6902 21.6165 28.4086C22.8342 29.3455 23.0812 29.3004 23.9733 29.8875C25.0451 29.9026 26.5071 29.7181 27.5431 29.5616C34.5716 28.5001 40.1855 25.2282 44.0272 19.2498L8.22746 19.2522C8.21908 19.6497 8.53014 20.6829 8.65294 21.0588C9.00697 22.1425 9.50783 23.1764 10.1464 24.0898C10.4229 24.4854 10.278 24.4881 10.8458 24.5179C12.4476 24.6018 14.6568 24.6075 16.1809 24.4549C18.6736 24.2054 19.5473 23.3101 19.4735 24.3587C19.2291 24.5611 19.0788 24.5339 18.7583 24.6711Z" fill="#039AC4"/>
<path fill-rule="evenodd" clip-rule="evenodd" d="M23.9733 29.8874C18.9224 29.947 15.8321 29.3535 12.141 26.3535L11.2796 25.5958C11.1296 25.465 11.0763 25.4329 10.9925 25.2572C12.3634 25.2662 13.5849 25.3322 14.9679 25.2632C15.6191 25.1724 16.2777 25.1546 16.9409 25.0572C17.6145 24.9581 18.1487 24.8283 18.7583 24.671C19.0788 24.5339 19.2291 24.5611 19.4735 24.3586C19.5474 23.3101 18.6736 24.2054 16.181 24.4548C14.6568 24.6074 12.4476 24.6018 10.8458 24.5179C10.278 24.4881 10.4229 24.4854 10.1464 24.0897C9.50784 23.1763 9.00698 22.1424 8.65295 21.0587C8.53015 20.6828 8.21908 19.6496 8.22747 19.2522L44.0272 19.2497C40.1855 25.2281 34.5716 28.5 27.5431 29.5615C26.5071 29.718 25.0451 29.9025 23.9733 29.8874ZM31.4372 10.7202H35.6002L35.6137 14.8833H31.4372V10.7202ZM26.6476 10.7169H30.8081L30.8174 14.8874H26.6376L26.6476 10.7169ZM21.8446 10.7202L25.8332 10.715L26.0215 10.7468L26.023 14.8589L25.8191 14.8833H21.8446V10.7202ZM17.0484 10.7169L21.0371 10.7113L21.2269 10.7452L21.2285 14.8612L21.0498 14.8874H17.045L17.0484 10.7169ZM12.2652 10.7203L16.429 10.7468L16.4305 14.8589L16.24 14.8833L12.4674 14.8866L12.2652 14.8669V10.7203ZM47.2463 11.6897C47.6845 11.3099 49.4689 11.0404 50.1911 11.0413C51.3246 11.0427 52.2218 11.2951 53.089 11.7564C52.916 12.4252 51.96 13.3334 51.3492 13.7102C49.8348 14.6441 48.1515 14.7705 46.2988 14.6351C46.0374 15.7712 44.713 17.9593 44.5477 18.4538C44.0611 18.4107 43.1111 18.1023 42.6907 17.8429C42.5179 17.7361 42.3947 17.6182 42.2509 17.5391C41.7392 18.0439 41.5514 18.1789 40.7476 18.4218C39.3105 18.8579 37.3467 18.8416 35.7826 18.6586C34.9919 18.5661 34.2669 18.4235 33.5398 18.21C32.8682 18.0129 32.2669 17.7721 31.9047 17.2114C31.7342 17.357 31.6753 17.4602 31.5153 17.5873C29.8186 18.9351 26.6557 19.0489 24.6561 18.365C23.5066 17.9719 23.4264 17.7651 22.7783 17.2114C22.3524 17.8705 21.4458 18.1583 20.6378 18.3535C18.7963 18.7986 14.1442 19.2307 12.6205 17.7365L12.4138 17.5496C12.2492 17.6459 12.1331 17.7632 11.9247 17.8821C11.4486 18.1535 10.6601 18.3598 10.114 18.4776C9.56609 18.574 8.67617 18.6979 8.11842 18.6262C8.02122 17.5349 8.01662 16.6911 8.0874 15.6097L9.90005 15.6015L37.6346 15.601C39.9118 15.601 41.4736 15.5153 43.523 14.5573C44.2789 14.204 44.5841 13.8751 44.9276 13.6984C44.7968 13.4243 43.5783 12.615 43.4112 10.236C43.3166 8.88792 43.6768 7.02423 44.4248 6.34985C44.7232 6.50665 45.2305 7.05182 45.5008 7.32525C46.2952 8.1287 47.0817 9.5646 47.1668 10.7732C47.1831 11.0056 47.0818 11.5178 47.2463 11.6897ZM26.6409 5.92396H30.8039L30.8107 10.0871H26.6409V5.92396ZM21.8581 5.92063L25.8333 5.91504L26.0231 5.9489L26.0248 10.065L25.8258 10.0911H21.8413L21.8581 5.92063ZM17.0484 5.92396L21.037 5.91869L21.2253 5.95052L21.2268 10.0626L21.0363 10.0871H17.0484V5.92396ZM26.6476 1.12441H30.8081L30.7905 5.2948H26.6376L26.6476 1.12441ZM25.8325 5.1156H16.24V9.91187H11.4437V14.8159H7.3481L7.20104 16.663C7.15465 16.9989 7.2867 18.1992 7.29418 18.5344C6.92677 18.5344 6.57125 18.452 6.27583 18.3671C5.71307 18.2055 5.07796 17.9499 4.6142 17.6037C4.3548 17.4099 4.1705 17.1711 3.95294 17.0254C3.95294 17.6405 3.97728 17.7339 3.64431 18.064C3.36498 18.3409 3.22338 18.4399 2.82963 18.5966C2.41123 18.7631 1.16196 19.1712 0.719482 19.1811L7.40193 19.2888C7.4137 19.8161 7.86506 21.316 8.07122 21.8531L8.8382 23.5111C8.95 23.7325 9.03935 23.8387 9.1631 24.0484C9.53557 24.6794 10.4849 25.8404 10.9711 26.3362C11.1383 26.5068 11.233 26.563 11.4029 26.7127C11.5676 26.8578 11.6458 26.9683 11.8209 27.1031C13.0342 28.0376 12.7663 27.9112 14.2484 28.7712C16.2725 29.9456 19.6072 30.7136 22.168 30.7136C25.6107 30.7136 27.5677 30.5224 30.6397 29.7545C31.7174 29.4851 32.7689 29.1481 33.7393 28.7585C36.5331 27.6369 39.1521 26.0435 41.2857 23.91C42.5125 22.6832 43.1279 22.0132 44.1333 20.5602C44.2906 20.333 44.405 20.1983 44.5498 19.9527C44.6971 19.7031 44.835 19.5322 44.9637 19.2888L53.9634 19.1811C53.7181 19.1756 53.1137 19.0075 52.862 18.9353L51.8533 18.5966C51.4596 18.4399 51.3179 18.3409 51.0387 18.064C50.7057 17.7339 50.73 17.6405 50.73 17.0254C50.3172 17.3019 50.0378 17.908 48.5325 18.3308C47.987 18.4841 46.8361 18.6649 46.2566 18.6452C45.9537 18.6349 45.7702 18.5882 45.3948 18.5882L46.8499 15.5165C49.7165 15.5165 52.3873 14.8234 53.6941 12.3909C53.8311 12.136 54.1106 11.7143 54.179 11.4208C53.4573 11.2527 52.9216 10.2352 49.8677 10.2352C49.3537 10.2352 48.251 10.4035 47.9277 10.5586C47.9277 10.0184 47.6495 9.20295 47.4616 8.81516C47.0517 7.96965 46.4829 7.17693 45.8408 6.50196L44.9223 5.69599C44.7611 5.56439 44.4491 5.27303 44.2631 5.22339C44.2197 5.38609 43.7596 5.85765 43.6235 6.03883C43.408 6.32587 43.2149 6.66308 43.0844 7.00864C42.3801 8.87449 42.3972 11.0198 43.2927 12.8224C43.4505 13.14 43.6776 13.4017 43.7242 13.5764L42.6084 14.0773C40.6369 14.9137 38.5797 14.8159 36.449 14.8159V9.91187H31.6528V0.481C31.6528 0.356844 31.6152 0.319336 31.491 0.319336H25.8325V5.1156Z" fill="#394D54"/>
<path fill-rule="evenodd" clip-rule="evenodd" d="M9.89996 15.6015C9.89996 16.6051 9.91137 17.5218 10.1139 18.4776C10.66 18.3598 11.4485 18.1535 11.9246 17.8821C12.133 17.7632 12.2491 17.6459 12.4137 17.5496L12.6204 17.7365C14.1441 19.2307 18.7962 18.7986 20.6377 18.3535C21.4457 18.1582 22.3524 17.8705 22.7782 17.2114C23.4263 17.7651 23.5065 17.9719 24.656 18.365C26.6556 19.0489 29.8186 18.9351 31.5152 17.5873C31.6752 17.4602 31.7341 17.357 31.9046 17.2114C32.2669 17.7721 32.8681 18.0129 33.5397 18.21C34.2668 18.4235 34.9918 18.5661 35.7825 18.6586C37.3466 18.8416 39.3104 18.8579 40.7475 18.4218L42.9782 16.4419C44.3042 15.2474 45.4491 13.9472 46.605 12.5774L47.2462 11.6897C47.0817 11.5178 47.183 11.0056 47.1667 10.7732C47.0816 9.5646 46.2951 8.1287 45.5007 7.32525C45.2304 7.05182 44.7231 6.50665 44.4247 6.34985C43.6767 7.02423 43.3165 8.88792 43.4111 10.236C43.5782 12.615 44.7967 13.4243 44.9275 13.6984C44.584 13.8751 44.2788 14.204 43.5229 14.5573C41.4735 15.5153 39.9117 15.601 37.6345 15.601L9.89996 15.6015Z" fill="#22B7E9"/>
<path fill-rule="evenodd" clip-rule="evenodd" d="M5.56967 43.6477C4.01682 43.6477 2.39013 42.3326 2.39013 40.6837C2.39013 39.62 2.56455 38.919 3.37341 38.1102C4.58138 36.9023 6.59762 36.9884 7.73955 38.1366C8.4284 38.8293 8.7492 39.3859 8.7492 40.4681C8.7492 42.2018 7.24139 43.6477 5.56967 43.6477ZM8.7492 36.7497C8.31389 36.4582 8.16589 36.2142 7.46428 35.9328C5.69846 35.2249 3.57263 35.5308 2.21386 36.8429C1.4416 37.5887 0.719482 38.6851 0.719482 39.8753C0.719482 41.6528 0.792065 42.6076 2.18789 44.0116C3.01997 44.8485 4.06627 45.3183 5.62358 45.3183C7.12427 45.3183 8.1213 44.7044 8.94891 44.009C9.26972 43.7395 9.75989 43.0973 9.95433 42.6972C10.172 42.2495 10.4198 41.4812 10.4198 40.8454V33.3546C10.4198 32.3519 9.02452 32.2837 8.79857 33.0806C8.70196 33.4215 8.7492 36.2605 8.7492 36.7497Z" fill="#394D54"/>
<path fill-rule="evenodd" clip-rule="evenodd" d="M40.329 42.4078C39.6299 41.3638 39.6823 41.2811 39.6823 40.0905C39.6823 39.0079 40.4646 38.0165 41.4056 37.5564C42.7758 36.8865 44.576 37.3309 45.2331 38.3121C45.0871 38.3511 43.4188 39.8106 43.1188 40.0779C42.7331 40.4214 40.5882 42.3386 40.329 42.4078ZM37.904 40.1444C37.904 41.1214 37.9804 41.5964 38.4068 42.4438C38.9915 43.6056 39.5981 44.2608 40.7593 44.8337C42.0648 45.4777 43.3997 45.4676 44.7258 44.9184C45.2002 44.722 45.7515 44.4166 45.68 43.8441C45.6423 43.5423 45.4866 43.3499 45.2974 43.2053C44.7079 42.7548 44.0854 43.5934 42.808 43.5934C42.4192 43.5934 42.1668 43.4929 41.838 43.4856C41.8885 43.2965 41.8922 43.3875 42.1476 43.1486L44.5723 41.0464C44.71 40.9124 44.7826 40.8846 44.9232 40.7506L45.9563 39.8437C46.1091 39.7248 46.174 39.6542 46.31 39.5506C46.433 39.4569 46.5543 39.3812 46.6754 39.2695C47.4664 38.5405 47.1971 38.0764 46.5584 37.2562C45.7034 36.1582 44.1616 35.5098 42.6463 35.5098C41.3661 35.5098 40.0505 36.2965 39.3994 36.9513C38.9371 37.4161 38.7372 37.6709 38.4248 38.2941C38.1995 38.7435 37.904 39.505 37.904 40.1444Z" fill="#394D54"/>
<path fill-rule="evenodd" clip-rule="evenodd" d="M13.0066 40.4677C13.0066 38.7369 14.3539 37.2343 16.1861 37.2343C17.7484 37.2343 19.3657 38.6086 19.3657 40.1444C19.3657 41.263 19.2082 41.8751 18.4098 42.7454C18.3171 42.8464 18.3079 42.8361 18.2038 42.9165C16.809 43.993 15.1206 43.8366 13.989 42.7188C13.446 42.1824 13.0066 41.5253 13.0066 40.4677ZM11.3359 40.0905C11.3359 41.3933 11.4429 42.2241 12.2208 43.3014C12.3139 43.4302 12.3801 43.5202 12.4815 43.6335C12.5981 43.7636 12.6371 43.8354 12.7494 43.9583C14.3862 45.7477 17.7846 45.8113 19.6757 43.9034C20.0963 43.479 20.4405 43.097 20.6828 42.4855C20.8107 42.1628 20.9057 41.8911 20.9794 41.5425C21.2726 40.1555 20.9769 38.7881 20.2179 37.6755C19.8336 37.112 19.5796 36.8444 19.0351 36.4331C17.7589 35.4691 15.6036 35.2817 14.1733 35.976C13.6773 36.2167 12.8312 36.7732 12.5134 37.1723C12.2447 37.5102 11.9956 37.7668 11.7895 38.2268C11.565 38.7279 11.3359 39.3952 11.3359 40.0905Z" fill="#394D54"/>
<path fill-rule="evenodd" clip-rule="evenodd" d="M31.4371 33.2468V44.5099C31.4371 45.2589 32.0196 45.2643 32.4071 45.2643C32.8773 45.2643 33.0986 44.782 33.1098 44.2965C33.1229 43.7294 33.1077 43.1397 33.1077 42.5699C33.5999 42.8995 34.7856 44.3198 35.3172 44.7255C35.5676 44.9166 35.8313 45.3183 36.2333 45.3183C36.7197 45.3183 37.0956 44.909 37.0956 44.456C37.0956 43.9138 35.7844 42.7946 35.3845 42.3947L33.4849 40.4681C33.7073 40.136 36.1904 37.8229 36.7893 37.0902C37.5096 36.2092 36.8371 35.6179 36.1795 35.6179C35.5637 35.6179 33.7936 37.9071 33.1077 38.3664C33.1077 37.2886 33.1077 36.2108 33.1077 35.1329C33.1077 33.5026 33.3852 32.6001 32.0838 32.6001C31.76 32.6001 31.4371 32.923 31.4371 33.2468Z" fill="#394D54"/>
<path fill-rule="evenodd" clip-rule="evenodd" d="M21.9523 40.3603C21.9523 41.1601 22.1141 41.7584 22.3364 42.3474C23.029 44.1819 24.6242 45.3182 26.8025 45.3182C30.3362 45.3182 30.1112 43.1087 28.7425 43.1087C28.5517 43.1087 27.0771 44.0647 25.5978 43.3432C24.9201 43.0126 24.3067 42.5418 23.9634 41.852C23.5991 41.1199 23.5409 40.0876 23.8451 39.2891C24.2136 38.3222 25.2189 37.2346 26.4791 37.2346C28.3231 37.2346 27.9566 37.7197 28.8503 37.7197C29.2842 37.7197 29.6586 37.3922 29.6586 36.9652C29.6586 36.3416 29.2631 36.173 28.8331 35.9584C27.9032 35.4943 27.3119 35.564 26.3175 35.564C25.1952 35.564 23.9781 36.3114 23.2314 37.0586C22.391 37.8996 21.9523 39.124 21.9523 40.3603Z" fill="#394D54"/>
<path fill-rule="evenodd" clip-rule="evenodd" d="M47.2463 11.6896L46.6051 12.5773C45.4493 13.9471 44.3044 15.2473 42.9783 16.4418L40.7476 18.4217C41.5514 18.1789 41.7392 18.0438 42.251 17.539C42.3947 17.6181 42.5179 17.7361 42.6907 17.8428C43.1112 18.1022 44.0612 18.4106 44.5478 18.4537C44.713 17.9593 46.0375 15.7711 46.2988 14.635C48.1516 14.7704 49.8349 14.644 51.3493 13.7101C51.9601 13.3334 52.9161 12.4251 53.089 11.7563C52.2218 11.295 51.3246 11.0426 50.1912 11.0413C49.4689 11.0404 47.6845 11.3098 47.2463 11.6896Z" fill="#00ACD3"/>
<path fill-rule="evenodd" clip-rule="evenodd" d="M23.9733 29.8873C23.0813 29.3002 22.8342 29.3453 21.6165 28.4084C20.6829 27.6901 19.8212 26.5489 19.7131 26.474C19.573 26.6594 18.6254 26.4153 18.3687 26.3731C17.9276 26.3005 17.5475 26.224 17.1205 26.1138C16.5825 25.975 15.2919 25.565 14.968 25.2631C13.5849 25.3321 12.3634 25.2661 10.9925 25.2571C11.0763 25.4329 11.1296 25.465 11.2797 25.5957L12.141 26.3534C15.8321 29.3534 18.9224 29.9469 23.9733 29.8873Z" fill="#BFDBE0"/>
<path fill-rule="evenodd" clip-rule="evenodd" d="M48.5744 41.0607C48.5744 41.719 48.4699 44.5511 48.7265 44.9503C49.0548 45.4613 50.136 45.5565 50.2867 44.4975C50.4266 43.5144 50.089 40.5842 50.4175 39.5088C50.6584 38.7203 51.2781 38.0214 51.9686 37.6648C52.5269 37.3764 52.5329 37.3928 53.3149 37.3405C54.6797 37.2491 54.5377 35.6177 53.4245 35.6177C51.3858 35.6177 49.5385 36.981 48.8656 38.7652C48.6334 39.3808 48.5744 40.2344 48.5744 41.0607Z" fill="#394D54"/>
<path fill-rule="evenodd" clip-rule="evenodd" d="M30.1323 1.49436H30.3594L30.4497 1.51127L30.4486 4.92577L30.1507 4.93858L30.1323 1.49436ZM29.5143 1.51195L29.6048 1.49391L29.8312 1.49436L29.8296 4.93646L29.5253 4.93019L29.5143 1.51195ZM28.8785 1.49436H29.1986L29.1968 4.93646H28.9006L28.8785 1.49436ZM28.2462 1.49436H28.5776L28.5764 4.93646H28.2646L28.2462 1.49436ZM27.6281 1.51195L27.7186 1.49391L27.945 1.49436L27.9434 4.93646L27.6391 4.93019L27.6281 1.51195ZM27.0067 1.49436H27.3124L27.3106 4.93646H27.025L27.0067 1.49436ZM26.6376 5.2949H30.7905L30.8081 1.12451H26.6476L26.6376 5.2949Z" fill="#22B7E9"/>
<path fill-rule="evenodd" clip-rule="evenodd" d="M20.5545 11.0727L20.7669 11.0722L20.857 11.0939L20.8572 14.4973L20.7668 14.5177H20.5545V11.0727ZM19.9221 11.8521C19.9214 11.0519 19.8207 11.0727 20.2385 11.0727L20.2384 14.5177L19.9221 14.4965L19.9221 11.8521ZM19.2869 11.0727L19.5274 11.0722L19.6175 11.0939L19.6177 14.4973L19.5273 14.5177H19.2868L19.2869 11.0727ZM18.6684 11.0727H18.9851V14.5177H18.6684V11.0727ZM18.0359 11.8521C18.0353 11.0519 17.9346 11.0727 18.3524 11.0727V14.5177L18.0359 14.4965V11.8521ZM17.4148 11.0727H17.7199L17.7198 14.5177H17.4148V11.0727ZM17.045 14.8875H21.0497L21.2284 14.8614L21.2268 10.7453L21.037 10.7114L17.0483 10.7171L17.045 14.8875Z" fill="#22B7E9"/>
<path fill-rule="evenodd" clip-rule="evenodd" d="M25.3506 6.29053L25.5631 6.29008L25.6537 6.30811L25.6427 9.72631L25.3615 9.73285L25.3508 9.53462L25.3506 6.29053ZM24.7184 7.05561C24.7177 6.25644 24.6133 6.29053 25.0348 6.29053C25.0355 6.94142 25.0673 9.26206 25.0172 9.73474L24.729 9.72194L24.7184 7.05561ZM24.083 6.29053H24.4024L24.4066 9.53507L24.3813 9.73262L24.099 9.73316L24.083 9.53462V6.29053ZM23.4512 6.29053H23.7813L23.7842 9.5348L23.7671 9.73262L23.4639 9.73298L23.4506 9.53462L23.4512 6.29053ZM22.8322 7.05561C22.8315 6.25685 22.7272 6.29053 23.1486 6.29053C23.1493 6.94142 23.1811 9.26206 23.131 9.73474L22.8429 9.72194L22.8322 7.05561ZM22.2113 6.29053H22.5162L22.5204 9.53507L22.4948 9.73262L22.2244 9.73298L22.2111 9.53462L22.2113 6.29053ZM21.8412 10.0911H25.8257L26.0247 10.065L26.0231 5.9489L25.8333 5.91504L21.8581 5.92063L21.8412 10.0911Z" fill="#22B7E9"/>
<path fill-rule="evenodd" clip-rule="evenodd" d="M20.5512 6.28839L20.7669 6.28808L20.8615 6.30498L20.851 9.73085L20.5615 9.7372L20.5512 9.53488V6.28839ZM19.918 7.05587C19.9174 6.25877 19.8103 6.28839 20.241 6.28839L20.2243 9.73905L19.9282 9.72683L19.918 7.05587ZM19.2843 6.30363L19.6221 6.30498L19.6112 9.73481L19.2855 9.71665L19.2843 6.30363ZM18.665 6.28839H18.9884L18.9911 9.53506L18.9749 9.73698L18.6753 9.7372L18.665 9.53488V6.28839ZM18.0318 7.05587C18.0312 6.25877 17.9241 6.28839 18.3548 6.28839L18.3381 9.73905L18.042 9.72683L18.0318 7.05587ZM17.4125 6.28839H17.7216L17.7256 9.53528L17.7013 9.73698L17.4253 9.73729L17.4125 9.53488V6.28839ZM17.0483 10.0873H21.0362L21.2267 10.0629L21.2252 5.95077L21.0369 5.91895L17.0483 5.92422V10.0873Z" fill="#00ACD3"/>
<path fill-rule="evenodd" clip-rule="evenodd" d="M30.1331 11.0727L30.3595 11.0722L30.4496 11.0938L30.4498 14.4972L30.3594 14.5177H30.1331V11.0727ZM29.5147 11.8521C29.514 11.0519 29.4134 11.0727 29.8311 11.0727V14.5177L29.5147 14.4965V11.8521ZM28.8795 11.0727H29.1987L29.1982 14.5177H28.8794L28.8795 11.0727ZM28.247 11.0727H28.5776V14.5177H28.247V11.0727ZM27.6285 11.8521C27.6279 11.0519 27.5272 11.0727 27.945 11.0727L27.9451 14.5177L27.6285 14.4965V11.8521ZM27.0072 11.0727H27.3125L27.3124 14.5177H27.0074L27.0072 11.0727ZM26.6376 14.8875H30.8174L30.8081 10.717H26.6476L26.6376 14.8875Z" fill="#22B7E9"/>
<path fill-rule="evenodd" clip-rule="evenodd" d="M25.3476 11.0711L25.5633 11.0707L25.6575 11.0913L25.6576 14.4996L25.5631 14.5193H25.3476V11.0711ZM24.7215 11.2109C24.7629 11.05 24.7193 11.0711 25.0373 11.0711V14.5193L24.7144 14.499L24.7215 11.2109ZM24.0816 11.0711H24.4041V14.5193H24.0816V11.0711ZM23.448 11.0711H23.7848V14.5193H23.4484L23.448 11.0711ZM22.8354 11.2109C22.8767 11.05 22.8331 11.0711 23.1512 11.0711V14.5193L22.8282 14.499L22.8354 11.2109ZM22.2089 11.0711H22.5179V14.5193H22.2089V11.0711ZM21.8447 14.8835H25.8191L26.0231 14.859L26.0216 10.7469L25.8333 10.7151L21.8447 10.7203V14.8835Z" fill="#00ACD3"/>
<path fill-rule="evenodd" clip-rule="evenodd" d="M30.1308 6.28824L30.3595 6.28793L30.4541 6.30483L30.4436 9.73079L30.1435 9.73715L30.1308 9.53473V6.28824ZM29.5106 7.05572C29.5099 6.25826 29.4029 6.28824 29.8335 6.28824L29.8169 9.7389L29.5208 9.72669L29.5106 7.05572ZM28.8778 6.28824H29.2003L29.2044 9.53513L29.1801 9.73683L28.8933 9.73728L28.8778 9.53473V6.28824ZM28.2446 6.28824H28.581L28.5837 9.53491L28.5675 9.73683L28.2573 9.73715L28.2446 9.53473V6.28824ZM27.6244 7.05572C27.6238 6.25826 27.5167 6.28824 27.9474 6.28824L27.9307 9.7389L27.6346 9.72669L27.6244 7.05572ZM27.0051 6.28824H27.3141L27.3182 9.53513L27.294 9.73683L27.0178 9.73715L27.0051 9.53473V6.28824ZM26.6409 10.0872H30.8107L30.804 5.92407H26.6409V10.0872Z" fill="#00ACD3"/>
<path fill-rule="evenodd" clip-rule="evenodd" d="M34.9269 11.071L35.1556 11.0706L35.2498 11.0912L35.25 14.4995L35.1555 14.5192H34.9269V11.071ZM34.2933 11.071H34.6297L34.6295 14.5192H34.2933V11.071ZM33.6739 11.071H33.9965V14.5192H33.6739V11.071ZM33.0408 11.071L33.2694 11.0706L33.3637 11.0912L33.3637 14.4995L33.2693 14.5192H33.0408V11.071ZM32.4071 11.071H32.7435V14.5192H32.4071V11.071ZM31.801 11.071H32.1103V14.5192H31.8012L31.801 11.071ZM31.4371 14.8833H35.6136L35.6001 10.7202H31.4371V14.8833Z" fill="#00ACD3"/>
<path fill-rule="evenodd" clip-rule="evenodd" d="M15.755 11.0709H15.9706L16.065 11.0906L16.0648 14.4988L15.9707 14.5194L15.755 14.5191V11.0709ZM15.1218 11.0911L15.4582 11.0709L15.4582 14.5191C15.0574 14.5191 15.1211 14.5919 15.1218 13.7381V11.0911ZM14.5025 11.0709H14.7311L14.8255 11.0906L14.8254 14.4988L14.7312 14.5194L14.5025 14.5191V11.0709ZM13.8688 11.0709H14.1926L14.1922 14.5191H13.8688V11.0709ZM13.2356 11.0911L13.5586 11.0709V14.5191C13.1722 14.5191 13.2349 14.5834 13.2356 13.7381V11.0911ZM12.6163 11.0709H12.8449L12.9393 11.0906L12.9392 14.4988L12.845 14.5194L12.6163 14.5191V11.0709ZM12.2652 14.8668L12.4674 14.8865L16.24 14.8833L16.4305 14.8588L16.429 10.7467L12.2652 10.7202V14.8668Z" fill="#00ACD3"/>
<path fill-rule="evenodd" clip-rule="evenodd" d="M10.114 18.4777C9.91144 17.5218 9.90003 16.6051 9.90003 15.6016L8.08738 15.6098C8.0166 16.6911 8.0212 17.5349 8.11839 18.6263C8.67615 18.6979 9.56606 18.574 10.114 18.4777Z" fill="#00ACD3"/>
<path fill-rule="evenodd" clip-rule="evenodd" d="M14.9679 25.2633C15.2918 25.5652 16.5825 25.9752 17.1204 26.114C17.5474 26.2242 17.9276 26.3008 18.3686 26.3733C18.6253 26.4155 19.5729 26.6596 19.713 26.4742C19.6812 26.2924 19.6125 26.2473 19.4877 26.0658C19.3775 25.9055 19.3275 25.7947 19.2268 25.6243C19.0396 25.3079 18.8793 25.0354 18.7583 24.6711C18.1487 24.8285 17.6145 24.9583 16.9409 25.0573C16.2777 25.1547 15.6191 25.1725 14.9679 25.2633Z" fill="#D3ECF0"/>
<path fill-rule="evenodd" clip-rule="evenodd" d="M21.7432 22.4517C21.9052 23.5087 20.933 23.9055 20.371 23.3495C19.7951 22.7795 20.3181 21.6986 21.1979 21.9734C21.2207 22.0922 20.959 22.3045 21.1963 22.5259C21.3924 22.709 21.5932 22.5243 21.7432 22.4517ZM20.6786 21.6495C19.1671 22.0752 19.7782 24.2372 21.2593 23.8755C21.7865 23.7468 22.2502 23.1341 22.0731 22.4582C21.9375 21.9409 21.3525 21.4596 20.6786 21.6495Z" fill="#D3ECF0"/>
<path fill-rule="evenodd" clip-rule="evenodd" d="M21.7433 22.4519C21.5932 22.5245 21.3925 22.7093 21.1964 22.5262C20.9591 22.3048 21.2207 22.0924 21.198 21.9737C20.3181 21.6988 19.7951 22.7797 20.371 23.3497C20.9331 23.9057 21.9053 23.5089 21.7433 22.4519Z" fill="#394D54"/>
<path fill-rule="evenodd" clip-rule="evenodd" d="M28.2445 9.53457L28.2572 9.73699L28.5674 9.73667L28.5836 9.53475L28.581 6.28809H28.2445V9.53457Z" fill="#394D54"/>
<path fill-rule="evenodd" clip-rule="evenodd" d="M23.4483 14.519H23.7847V11.0708H23.4479L23.4483 14.519Z" fill="#394D54"/>
<path fill-rule="evenodd" clip-rule="evenodd" d="M32.4072 14.519H32.7436V11.0708H32.4072V14.519Z" fill="#394D54"/>
<path fill-rule="evenodd" clip-rule="evenodd" d="M34.2934 14.519H34.6296L34.6298 11.0708H34.2934V14.519Z" fill="#394D54"/>
<path fill-rule="evenodd" clip-rule="evenodd" d="M15.1218 13.738C15.1211 14.5918 15.0574 14.519 15.4582 14.519L15.4581 11.0708L15.1218 11.091V13.738Z" fill="#394D54"/>
<path fill-rule="evenodd" clip-rule="evenodd" d="M23.4507 9.53462L23.464 9.73298L23.7672 9.73262L23.7843 9.5348L23.7814 6.29053H23.4513L23.4507 9.53462Z" fill="#394D54"/>
<path fill-rule="evenodd" clip-rule="evenodd" d="M28.2469 14.5175H28.5776V11.0725H28.2469V14.5175Z" fill="#394D54"/>
<path fill-rule="evenodd" clip-rule="evenodd" d="M19.2869 14.5175H19.5273L19.6177 14.4971L19.6175 11.0937L19.5275 11.072L19.2869 11.0726L19.2869 14.5175Z" fill="#394D54"/>
<path fill-rule="evenodd" clip-rule="evenodd" d="M19.2856 9.71624L19.6113 9.73441L19.6222 6.30457L19.2844 6.30322L19.2856 9.71624Z" fill="#394D54"/>
<path fill-rule="evenodd" clip-rule="evenodd" d="M18.6651 9.53457L18.6754 9.7369L18.975 9.73667L18.9912 9.53475L18.9885 6.28809H18.6651V9.53457Z" fill="#394D54"/>
<path fill-rule="evenodd" clip-rule="evenodd" d="M28.8778 9.53457L28.8933 9.73712L29.1801 9.73667L29.2044 9.53498L29.2003 6.28809H28.8778V9.53457Z" fill="#394D54"/>
<path fill-rule="evenodd" clip-rule="evenodd" d="M13.8687 14.519H14.192L14.1925 11.0708H13.8687V14.519Z" fill="#394D54"/>
<path fill-rule="evenodd" clip-rule="evenodd" d="M33.674 14.519H33.9965V11.0708H33.674V14.519Z" fill="#394D54"/>
<path fill-rule="evenodd" clip-rule="evenodd" d="M24.0814 14.519H24.4039V11.0708H24.0814V14.519Z" fill="#394D54"/>
<path fill-rule="evenodd" clip-rule="evenodd" d="M33.0409 14.5194H33.2695L33.3639 14.4997L33.3638 11.0914L33.2695 11.0708L33.0409 11.0712V14.5194Z" fill="#394D54"/>
<path fill-rule="evenodd" clip-rule="evenodd" d="M12.6163 14.519L12.845 14.5194L12.9392 14.4988L12.9393 11.0905L12.8449 11.0708H12.6163V14.519Z" fill="#394D54"/>
<path fill-rule="evenodd" clip-rule="evenodd" d="M14.5025 14.519L14.7312 14.5194L14.8254 14.4988L14.8256 11.0905L14.7311 11.0708H14.5025V14.519Z" fill="#394D54"/>
<path fill-rule="evenodd" clip-rule="evenodd" d="M34.9269 14.5194H35.1556L35.25 14.4997L35.2499 11.0914L35.1557 11.0708L34.9269 11.0712V14.5194Z" fill="#394D54"/>
<path fill-rule="evenodd" clip-rule="evenodd" d="M13.2356 13.738C13.2349 14.5833 13.1722 14.519 13.5585 14.519V11.0708L13.2356 11.091V13.738Z" fill="#394D54"/>
<path fill-rule="evenodd" clip-rule="evenodd" d="M28.2646 4.93672H28.5764L28.5776 1.49463H28.2462L28.2646 4.93672Z" fill="#394D54"/>
<path fill-rule="evenodd" clip-rule="evenodd" d="M24.0831 9.53462L24.0991 9.73316L24.3813 9.73262L24.4066 9.53507L24.4024 6.29053H24.0831V9.53462Z" fill="#394D54"/>
<path fill-rule="evenodd" clip-rule="evenodd" d="M28.8795 14.5175H29.1982L29.1987 11.0725H28.8795L28.8795 14.5175Z" fill="#394D54"/>
<path fill-rule="evenodd" clip-rule="evenodd" d="M22.8281 14.499L23.151 14.5192V11.071C22.833 11.071 22.8765 11.0499 22.8352 11.2109L22.8281 14.499Z" fill="#394D54"/>
<path fill-rule="evenodd" clip-rule="evenodd" d="M24.7144 14.499L25.0373 14.5192V11.071C24.7193 11.071 24.7629 11.0499 24.7215 11.2109L24.7144 14.499Z" fill="#394D54"/>
<path fill-rule="evenodd" clip-rule="evenodd" d="M30.1307 9.53464L30.1435 9.73706L30.4436 9.7307L30.4541 6.30475L30.3594 6.28784L30.1307 6.28816V9.53464Z" fill="#394D54"/>
<path fill-rule="evenodd" clip-rule="evenodd" d="M24.7291 9.7219L25.0172 9.73471C25.0673 9.26202 25.0356 6.94139 25.0348 6.29049C24.6133 6.29049 24.7177 6.25641 24.7184 7.05558L24.7291 9.7219Z" fill="#394D54"/>
<path fill-rule="evenodd" clip-rule="evenodd" d="M22.843 9.7219L23.1311 9.7347C23.1812 9.26202 23.1494 6.94138 23.1487 6.29049C22.7273 6.29049 22.8316 6.25681 22.8323 7.05557L22.843 9.7219Z" fill="#394D54"/>
<path fill-rule="evenodd" clip-rule="evenodd" d="M18.6686 14.5175H18.9853V11.0725H18.6686V14.5175Z" fill="#394D54"/>
<path fill-rule="evenodd" clip-rule="evenodd" d="M30.133 14.5175H30.3593L30.4497 14.4971L30.4496 11.0937L30.3594 11.072L30.133 11.0726V14.5175Z" fill="#394D54"/>
<path fill-rule="evenodd" clip-rule="evenodd" d="M27.6285 14.4964L27.9452 14.5175L27.945 11.0726C27.5272 11.0726 27.6279 11.0517 27.6285 11.8519V14.4964Z" fill="#394D54"/>
<path fill-rule="evenodd" clip-rule="evenodd" d="M29.5147 14.4964L29.8311 14.5175V11.0726C29.4133 11.0726 29.514 11.0517 29.5147 11.8519V14.4964Z" fill="#394D54"/>
<path fill-rule="evenodd" clip-rule="evenodd" d="M18.0359 14.4964L18.3524 14.5175V11.0726C17.9346 11.0726 18.0353 11.0517 18.0359 11.8519V14.4964Z" fill="#394D54"/>
<path fill-rule="evenodd" clip-rule="evenodd" d="M19.9222 14.4964L20.2385 14.5175L20.2386 11.0726C19.8208 11.0726 19.9215 11.0517 19.9222 11.8519L19.9222 14.4964Z" fill="#394D54"/>
<path fill-rule="evenodd" clip-rule="evenodd" d="M18.042 9.72643L18.3381 9.73864L18.3548 6.28798C17.9241 6.28798 18.0312 6.25836 18.0319 7.05546L18.042 9.72643Z" fill="#394D54"/>
<path fill-rule="evenodd" clip-rule="evenodd" d="M29.5207 9.72643L29.8168 9.73865L29.8335 6.28799C29.4028 6.28799 29.5099 6.25801 29.5106 7.05546L29.5207 9.72643Z" fill="#394D54"/>
<path fill-rule="evenodd" clip-rule="evenodd" d="M27.6345 9.72643L27.9306 9.73865L27.9473 6.28799C27.5167 6.28799 27.6237 6.25801 27.6244 7.05546L27.6345 9.72643Z" fill="#394D54"/>
<path fill-rule="evenodd" clip-rule="evenodd" d="M19.9281 9.72643L20.2242 9.73864L20.2409 6.28798C19.8102 6.28798 19.9173 6.25836 19.918 7.05546L19.9281 9.72643Z" fill="#394D54"/>
<path fill-rule="evenodd" clip-rule="evenodd" d="M17.4126 9.53457L17.4254 9.73699L17.7014 9.73667L17.7256 9.53498L17.7217 6.28809H17.4126V9.53457Z" fill="#394D54"/>
<path fill-rule="evenodd" clip-rule="evenodd" d="M27.0051 9.53457L27.0178 9.73699L27.294 9.73667L27.3182 9.53498L27.3141 6.28809H27.0051V9.53457Z" fill="#394D54"/>
<path fill-rule="evenodd" clip-rule="evenodd" d="M29.5253 4.93018L29.8296 4.93644L29.8312 1.49435L29.6049 1.4939L29.5143 1.51193L29.5253 4.93018Z" fill="#394D54"/>
<path fill-rule="evenodd" clip-rule="evenodd" d="M27.639 4.93018L27.9434 4.93644L27.9449 1.49435L27.7186 1.4939L27.6281 1.51193L27.639 4.93018Z" fill="#394D54"/>
<path fill-rule="evenodd" clip-rule="evenodd" d="M25.3475 14.5194H25.563L25.6574 14.4997L25.6573 11.0914L25.5631 11.0708L25.3475 11.0712V14.5194Z" fill="#394D54"/>
<path fill-rule="evenodd" clip-rule="evenodd" d="M15.7549 14.519L15.9706 14.5194L16.0647 14.4988L16.0649 11.0905L15.9705 11.0708H15.7549V14.519Z" fill="#394D54"/>
<path fill-rule="evenodd" clip-rule="evenodd" d="M31.8012 14.519H32.1103V11.0708H31.801L31.8012 14.519Z" fill="#394D54"/>
<path fill-rule="evenodd" clip-rule="evenodd" d="M22.2087 14.519H22.5178V11.0708H22.2087V14.519Z" fill="#394D54"/>
<path fill-rule="evenodd" clip-rule="evenodd" d="M28.9004 4.93672H29.1967L29.1985 1.49463H28.8784L28.9004 4.93672Z" fill="#394D54"/>
<path fill-rule="evenodd" clip-rule="evenodd" d="M30.1507 4.93884L30.4486 4.92604L30.4496 1.51153L30.3593 1.49463H30.1323L30.1507 4.93884Z" fill="#394D54"/>
<path fill-rule="evenodd" clip-rule="evenodd" d="M22.2111 9.53462L22.2243 9.73298L22.4948 9.73262L22.5204 9.53507L22.5161 6.29053H22.2112L22.2111 9.53462Z" fill="#394D54"/>
<path fill-rule="evenodd" clip-rule="evenodd" d="M27.0074 14.5175H27.3123L27.3124 11.0725H27.0071L27.0074 14.5175Z" fill="#394D54"/>
<path fill-rule="evenodd" clip-rule="evenodd" d="M17.4149 14.5175H17.7198L17.7199 11.0725H17.4149V14.5175Z" fill="#394D54"/>
<path fill-rule="evenodd" clip-rule="evenodd" d="M20.5512 9.53464L20.5615 9.73697L20.8511 9.73061L20.8615 6.30475L20.7669 6.28784L20.5512 6.28816V9.53464Z" fill="#394D54"/>
<path fill-rule="evenodd" clip-rule="evenodd" d="M20.5544 14.5175H20.7667L20.8571 14.4971L20.8569 11.0937L20.7668 11.072L20.5544 11.0726V14.5175Z" fill="#394D54"/>
<path fill-rule="evenodd" clip-rule="evenodd" d="M25.3509 9.53459L25.3615 9.73281L25.6427 9.72627L25.6537 6.30807L25.5632 6.29004L25.3506 6.29049L25.3509 9.53459Z" fill="#394D54"/>
<path fill-rule="evenodd" clip-rule="evenodd" d="M27.0249 4.93672H27.3105L27.3123 1.49463H27.0066L27.0249 4.93672Z" fill="#394D54"/>
</svg>
