<svg width="29" height="46" viewBox="0 0 29 46" fill="none" xmlns="http://www.w3.org/2000/svg">
<path d="M0.712402 22.8123L14.6939 15.3511L28.4951 22.7581L14.7059 30.2257L0.712402 22.8123Z" fill="#009F42"/>
<path d="M0.712402 22.8123L14.6939 15.3511L28.4951 22.7581L14.7059 30.2257L0.712402 22.8123Z" fill="#01C853"/>
<path d="M14.694 15.3511L28.4952 22.7581L14.7059 30.2257L14.694 15.3511Z" fill="#009F42"/>
<path d="M14.694 23.9565L28.4952 22.7581L14.706 30.2257L14.694 23.9565H14.694Z" fill="#007831"/>
<path d="M14.6939 23.9565L0.712402 22.8123L14.6819 30.2257L14.6939 23.9565H14.6939Z" fill="#009F42"/>
<path d="M0.710693 24.7964C5.60818 27.3941 10.7114 30.1169 14.6625 32.2222L28.5001 24.7985C23.4899 32.2435 19.3166 38.4363 14.6624 45.2908C10.0024 38.4507 4.85329 30.9006 0.710693 24.7964Z" fill="#009F42"/>
<path d="M0.710693 24.7964C5.60818 27.3941 10.7114 30.1169 14.6625 32.2222L28.5001 24.7985C23.4899 32.2435 19.3166 38.4363 14.6624 45.2908C10.0024 38.4507 4.85329 30.9006 0.710693 24.7964Z" fill="#01C853"/>
<path d="M14.6624 32.2223L28.5001 24.7986C23.4899 32.2436 14.6624 45.2909 14.6624 45.2909L14.6624 32.2223Z" fill="#009F42"/>
<path d="M14.6624 32.2223L28.5001 24.7986C23.4899 32.2436 19.3165 38.4364 14.6624 45.2909L14.6624 32.2223Z" fill="#009F42"/>
<path d="M14.6603 13.2762L0.712891 20.6207L14.5997 0.286133L28.4955 20.6651L14.6603 13.2762Z" fill="#01C853"/>
<path d="M14.6598 13.2762L14.5992 0.286133L28.495 20.6651L14.6598 13.2762Z" fill="#009F42"/>
</svg>
