<svg width="34" height="42" viewBox="0 0 34 42" fill="none" xmlns="http://www.w3.org/2000/svg">
<path fill-rule="evenodd" clip-rule="evenodd" d="M33.2135 0.283469C31.3113 0.11225 25.6726 0.244553 23.1287 0.244837C21.5157 0.24512 20.9127 0.0115797 20.2613 0.693949C19.1477 1.86052 18.053 2.90632 16.912 4.04206L3.62899 17.3182C3.06058 17.9 2.55695 18.3919 1.98489 18.965C1.42948 19.5215 0.928405 20.1019 0.320557 20.5796C0.528752 21.0657 2.80198 23.1248 3.44439 23.8117L6.5835 26.9389L33.2135 0.283469Z" fill="#52C4F7"/>
<path fill-rule="evenodd" clip-rule="evenodd" d="M15.7905 24.0613C15.9597 23.796 22.3717 30.0963 22.3717 30.0963C22.9663 29.3713 32.8191 19.9182 33.1606 19.1006C29.4954 19.0469 25.7777 19.0931 22.1072 19.1002C20.5422 19.1033 20.8764 18.9279 20.0387 19.7674C19.5691 20.2378 15.8539 23.8313 15.7905 24.0613Z" fill="#52C4F7"/>
<path fill-rule="evenodd" clip-rule="evenodd" d="M15.7833 36.1642C16.7532 37.2595 19.2646 39.8737 20.3928 40.7987C20.9006 41.2152 21.1669 41.0925 22.3344 41.0918C25.9561 41.0894 29.5867 41.1182 33.2069 41.0923C33.0324 40.6603 23.2833 31.1282 22.3718 30.0962C21.9745 30.0962 15.7821 35.8212 15.7833 36.1642Z" fill="#015699"/>
<path fill-rule="evenodd" clip-rule="evenodd" d="M16.0392 36.4393C16.3104 36.1509 22.3717 30.0962 22.3717 30.0962C22.3449 29.9815 16.3344 23.9733 15.9301 23.8772C15.6365 24.0757 9.89342 29.8354 9.76807 30.121C11.5371 31.9155 14.2614 34.7283 16.0392 36.4393Z" fill="#28B6F6"/>
</svg>
