<svg width="42" height="46" viewBox="0 0 42 46" fill="none" xmlns="http://www.w3.org/2000/svg">
<path fill-rule="evenodd" clip-rule="evenodd" d="M8.82237 33.316H33.404C33.5188 33.316 33.5249 33.4642 33.5249 33.5808C33.381 33.6135 32.8274 33.9573 32.6481 34.0517C32.5427 34.1072 32.4445 34.171 32.3442 34.2269C31.2279 34.8485 29.9036 35.5723 28.8367 36.1985C28.4497 36.4256 28.0561 36.6245 27.665 36.8533L24.1519 38.8195C23.9125 38.6635 23.7716 38.3581 22.8923 37.9266C22.0218 37.4995 21.1927 37.4555 20.2081 37.6296C20.0078 37.6649 19.5954 37.805 19.4145 37.8872C19.0801 38.0394 18.5741 38.3541 18.3085 38.6058C18.2468 38.6643 18.2341 38.6863 18.1652 38.7313C18.0753 38.7109 18.0856 38.7049 18.0173 38.6692C17.9629 38.6407 17.9079 38.6124 17.8609 38.586C16.8459 38.0157 15.551 37.3127 14.5842 36.7428C14.4761 36.6791 14.3999 36.6389 14.2965 36.5813L8.89168 33.5427C8.85591 33.523 8.76457 33.474 8.74727 33.4409C8.70874 33.3672 8.74058 33.316 8.82237 33.316ZM19.9491 8.62325C20.0754 8.62325 20.0994 8.64034 20.2093 8.66425C20.7027 8.77153 21.2087 8.80268 21.7121 8.72059C21.8988 8.69016 22.1072 8.62325 22.2773 8.62325L26.1077 15.1074C26.2459 15.3315 26.361 15.5319 26.4975 15.758C27.0044 16.5974 27.7969 17.9024 28.2337 18.6887L29.9699 21.6194C30.855 23.085 31.7927 24.7544 32.6728 26.1695C32.7386 26.2752 32.8021 26.3841 32.8598 26.4879L34.6134 29.431C34.4147 29.72 33.908 30.0802 33.5964 30.9722C33.4289 31.4517 33.5374 31.4076 33.1626 31.4034C32.0064 31.3904 30.8421 31.4029 29.685 31.4029C22.7106 31.4029 15.7363 31.4029 8.7619 31.4029C8.66189 30.9851 8.50584 30.6392 8.30666 30.3156C8.17582 30.103 7.83346 29.6042 7.61291 29.4605C7.89783 28.9364 8.26948 28.372 8.56061 27.8519L14.9393 17.1085C15.0704 16.8791 15.1997 16.6737 15.323 16.4519L16.2891 14.8317C16.8401 13.8943 17.5145 12.812 18.0244 11.9002L19.3746 9.6239C19.466 9.45947 19.9225 8.73449 19.9491 8.62325ZM33.5249 12.8613C33.3648 13.1863 33.3738 13.8725 33.3738 14.2446C33.3738 14.8616 33.6872 15.6135 34.0028 16.1046C34.0626 16.1977 34.1081 16.2577 34.1771 16.3469C34.37 16.596 34.5433 16.7788 34.7875 16.9888C34.9436 17.1231 35.1024 17.2239 35.2741 17.3392C35.5707 17.5385 35.9546 17.679 36.2994 17.7833C36.3651 17.8032 36.3791 17.8174 36.4578 17.8352V28.4598C36.3889 28.4754 36.3883 28.4826 36.3066 28.4893C36.2764 28.363 34.3762 25.2317 34.0901 24.7312C33.9049 24.4072 33.732 24.1167 33.5378 23.7972C32.6036 22.2599 31.6731 20.592 30.7374 19.077L29.0674 16.2584C28.1421 14.7358 27.1938 13.0353 26.2667 11.5386C26.1745 11.3899 26.0788 11.2323 25.991 11.0711L25.4391 10.1368C25.3373 9.96921 25.2391 9.81441 25.1496 9.65335L24.0295 7.76811C23.7293 7.27937 24.6827 7.905 24.7961 7.96672L29.6454 10.6925C29.9786 10.8737 30.2684 11.0549 30.6025 11.2325C30.7771 11.3254 30.9114 11.4039 31.0852 11.4984C31.356 11.6458 33.4114 12.8318 33.5249 12.8613ZM5.76856 28.4598V17.8352C6.54515 17.6591 7.12474 17.2811 7.67036 16.7727L8.04924 16.3469C8.47221 15.8005 8.85258 14.9392 8.85258 14.2446C8.85258 13.8725 8.8616 13.1863 8.70143 12.8613C9.0254 12.6945 9.34587 12.5108 9.66293 12.3257C9.99277 12.1332 10.3127 11.9708 10.6425 11.7783C12.1923 10.8736 13.9678 9.94986 15.4912 9.05189C15.8233 8.85613 16.1366 8.69195 16.466 8.49969L17.4292 7.9657C17.5957 7.87739 17.7403 7.78993 17.9059 7.69399C18.6648 7.25423 17.9188 8.20791 17.6313 8.72166C17.2207 9.45538 16.6759 10.3148 16.2394 11.0751C16.1407 11.2472 16.0458 11.3872 15.9486 11.5573L10.9031 20.0666C10.7051 20.385 10.5376 20.7008 10.3396 21.0191C10.1451 21.3318 9.97722 21.6359 9.78391 21.9497C9.22174 22.8622 8.66264 23.8761 8.0907 24.8045L5.99055 28.3526C5.91883 28.4859 5.92128 28.4944 5.76856 28.4598ZM17.0163 4.50289C17.0163 5.64824 17.1248 5.41655 17.1674 5.9156C16.9895 5.95596 13.7406 7.81422 13.6427 7.87057C13.2382 8.10349 12.8553 8.30722 12.4565 8.54061C11.4909 9.10559 10.4862 9.62104 9.52329 10.1885C9.32109 10.3076 9.13627 10.4019 8.93012 10.5235C8.82219 10.587 8.7453 10.6273 8.64249 10.6849L7.73389 11.1838L7.15942 10.7129C6.01906 9.87809 4.42739 9.73459 3.09897 10.2922C2.65686 10.4778 2.22133 10.7654 1.90594 11.0734C1.17931 11.783 0.658691 12.692 0.658691 13.7737C0.658691 14.4315 0.732821 14.9523 0.96493 15.5064C1.28207 16.2636 1.84196 16.8955 2.53912 17.3292C2.83744 17.5149 3.41432 17.8061 3.77297 17.8352V28.4598C0.681986 29.1608 -0.367784 33.0087 1.84533 35.1629C2.58505 35.8829 3.61687 36.3474 4.74055 36.3474C5.7302 36.3474 6.76635 35.9898 7.45458 35.3691C7.55481 35.2787 7.62443 35.1826 7.73389 35.1112C7.93167 35.2131 8.11943 35.3267 8.3099 35.4334L11.2621 37.0922C11.3728 37.1524 11.4421 37.1906 11.5529 37.2506C11.6648 37.3112 11.7428 37.368 11.856 37.4265C12.6586 37.8417 13.4156 38.3256 14.2147 38.7506C14.4187 38.859 14.6238 38.9692 14.8089 39.0846L17.1674 40.4088C16.9919 41.1424 16.9356 41.8546 17.1541 42.5997C17.2295 42.8568 17.3064 43.065 17.4193 43.2833C17.6702 43.7682 17.8762 44.0271 18.2484 44.3894C18.432 44.5682 18.5547 44.6749 18.7759 44.8176C18.9713 44.9437 19.1556 45.0708 19.3874 45.1643C19.6418 45.267 19.8341 45.3335 20.1034 45.409C20.6847 45.5721 21.4921 45.5768 22.0763 45.4225C22.2092 45.3874 22.3267 45.361 22.4502 45.3156C23.4179 44.9597 24.039 44.4457 24.6115 43.6228C24.8198 43.3233 24.9616 42.9831 25.0657 42.6227C25.2299 42.0538 25.2524 41.3565 25.1461 40.7654C25.1183 40.6109 25.0321 40.4081 25.0287 40.2617C25.2016 40.2167 26.0465 39.7062 26.2061 39.6125L28.5454 38.2989C28.75 38.1876 28.9141 38.0867 29.1199 37.9752C29.2287 37.9161 29.2967 37.8717 29.408 37.8142C29.5108 37.7611 29.5992 37.7008 29.7154 37.6425C29.9104 37.5446 30.0974 37.4198 30.2897 37.3186C30.4936 37.2112 30.6731 37.0969 30.8841 36.9847L32.6282 36.0043C32.8781 35.8718 34.2139 35.0656 34.4018 35.023C34.4858 35.0777 34.4661 35.0897 34.5331 35.16C34.8219 35.4641 35.2754 35.7613 35.6633 35.9435C36.7767 36.4662 38.0056 36.4581 39.1404 35.986C40.522 35.4112 41.5677 34.0124 41.5677 32.433C41.5677 31.3449 41.2498 30.5691 40.6133 29.7714C40.1526 29.194 39.2987 28.6515 38.4534 28.4598V17.8352C38.9482 17.7951 39.7896 17.3022 40.1539 16.9888C40.3799 16.7945 40.6049 16.5725 40.7755 16.3284C40.8391 16.2375 40.8923 16.1823 40.9507 16.0869C42.6623 13.293 40.6198 9.94765 37.4858 9.94765C36.5429 9.94765 35.7522 10.2094 35.0842 10.7002L34.4925 11.1838C34.3095 11.1423 32.3754 10.0059 32.1434 9.87971C32.0327 9.81949 31.9635 9.78134 31.8527 9.72129L29.2106 8.23156C29.0999 8.17138 29.0306 8.1332 28.9198 8.07314L26.258 6.57319C26.0596 6.46805 25.2481 5.95852 25.059 5.9156C25.1003 5.43117 25.2101 5.64696 25.2101 4.50289C25.2101 4.25484 25.134 3.90569 25.0723 3.69531C24.8644 2.98661 24.4921 2.4062 23.978 1.90562L23.4519 1.47596C23.1544 1.2615 22.8186 1.11497 22.4719 0.987657C21.2706 0.546532 19.8613 0.773275 18.8123 1.45389C18.0114 1.97343 17.4231 2.76345 17.1607 3.6723C17.1019 3.87589 17.0163 4.23681 17.0163 4.50289Z" fill="#E634AA"/>
</svg>
