<svg width="50" height="46" viewBox="0 0 50 46" fill="none" xmlns="http://www.w3.org/2000/svg">
<path fill-rule="evenodd" clip-rule="evenodd" d="M16.1201 42.9874L16.022 42.7273C16.2424 42.2496 17.566 41.6922 18.0961 41.3809C18.8605 40.9317 19.6222 40.4933 20.3884 40.0558C21.07 39.6666 24.6088 37.4799 25.0596 37.4829C25.3731 37.4847 34.8728 40.8211 35.7586 41.2014C34.3969 41.5441 16.4009 43.1156 16.1201 42.9874ZM19.4538 35.5236L24.3025 37.1704C21.7592 38.7395 19.1129 40.1251 16.6127 41.6458C15.6409 42.237 15.0469 42.3246 15.8446 41.1238L18.2197 37.3858C18.6169 36.7691 19.0146 36.0117 19.4538 35.5236ZM19.8772 35.0721C20.0681 34.9298 20.1734 34.7644 20.3894 34.576L24.6403 30.9619C25.6341 30.0391 25.5037 30.0697 26.0154 30.1611L30.8835 31.8753L30.9973 33.4054C30.3545 33.6122 28.9566 34.4989 28.315 34.8847C27.4651 35.3958 26.6776 35.8168 25.7798 36.3413C24.6519 36.9999 24.9047 36.8368 22.8249 36.1226C21.8745 35.7965 20.8449 35.4436 19.8772 35.0721ZM16.9435 38.4812C16.363 39.3955 15.5366 40.8781 14.9512 41.5405L13.6537 41.3309L11.7788 31.1923L18.9432 35.2103C18.6416 35.9933 17.4675 37.6555 16.9435 38.4812ZM34.8094 31.1433C35.4083 30.7724 36.4927 29.4911 37.1094 29.2446L36.848 40.937C36.4852 40.9571 26.1482 37.3861 25.5935 37.039C26.4617 36.5209 30.7637 34.1325 31.1531 33.7701C31.9176 34.1625 32.7605 35.3541 34.2898 34.2536C35.433 33.431 35.3538 32.54 34.8094 31.1433ZM30.0786 26.2965C30.3732 26.0686 30.4519 25.9671 30.7405 25.7135C30.985 25.4989 31.1739 25.3934 31.4279 25.172L31.7627 26.4414C31.8424 26.8716 31.9201 27.2564 32.0033 27.7008C32.1649 28.5636 32.3874 29.525 32.4931 30.4239C31.7029 30.5879 31.3311 30.998 31.0646 31.6633L25.9672 29.87L30.0786 26.2965ZM25.037 29.8908C24.7625 30.1973 20.0255 34.3408 19.4887 34.6178L18.1239 27.4127L25.037 29.8908ZM10.8826 26.6478C11.1457 26.3634 11.4261 26.3158 11.6693 26.0977C11.9364 25.8583 11.9371 25.6933 12.2293 25.3504L17.5435 27.2352L18.9544 34.6249L13.7568 31.7222C12.3087 30.8437 11.6833 30.8856 11.5008 29.9964C11.2786 28.9143 11.046 27.7066 10.8826 26.6478ZM13.1419 41.6184C12.5239 41.6194 12.7587 41.5974 12.1853 40.7754L2.80127 27.4628C2.48704 27.0051 1.59697 25.8433 1.41145 25.3855C1.9872 25.5952 3.06559 26.2596 3.6538 26.6073L10.3614 30.3819C10.8834 30.6814 11.0969 30.6714 11.2426 31.2421L12.0679 35.6533C12.3675 37.2091 13.0989 40.1573 13.1419 41.6184ZM37.2862 20.1824C37.412 22.1553 37.2088 24.734 37.1662 26.7726C37.1243 28.7777 37.3713 28.2487 36.2331 29.2103L34.5775 30.7826C34.092 30.6654 34.2113 30.5861 33.7411 30.4389C33.3691 30.3226 33.1041 30.3489 32.7504 30.2725L31.7689 24.9015L37.2862 20.1824ZM16.0653 19.6294L17.4493 26.904L12.3075 25.138C12.3496 23.9124 12.3171 24.1295 11.9647 23.1553L16.0653 19.6294ZM37.3866 39.9211C37.3455 37.7922 37.469 35.5203 37.5183 33.3843C37.5442 32.2613 37.5726 31.1372 37.593 30.0141C37.6214 28.4602 37.3603 28.7371 39.5219 27.0069L42.9634 23.9593C43.2996 23.6761 43.4504 23.4563 43.803 23.1808C44.9354 22.2963 46.3435 20.7614 45.2082 23.0893C44.1802 25.1978 37.8859 39.4157 37.3866 39.9211ZM7.70258 18.1412C8.14393 17.7796 8.42504 17.4136 8.84723 17.0445C9.1684 16.7639 9.76945 16.4084 9.90913 16.1383L9.92476 22.2518C9.28436 22.6029 9.02421 22.5358 8.53567 23.0902C8.17473 23.4996 7.95066 24.0577 8.01948 24.7421C8.20155 26.5531 9.89585 26.5366 10.3873 26.7707L10.9887 30.1173C10.292 29.8579 1.09295 24.6178 0.897354 24.3928L7.70258 18.1412ZM37.8243 19.8249L44.6004 20.2387L45.0041 21.4091L39.4697 26.3342C39.051 26.7263 38.0642 27.7017 37.6419 27.9134L37.8243 19.8249ZM16.5191 19.2887C16.998 18.6491 18.6415 17.437 19.5083 16.6011C19.8545 16.2671 20.1024 16.1263 20.5176 15.7409C21.3001 15.0139 21.9603 14.2285 22.6448 14.4555L28.1599 16.4458C30.2316 17.2037 29.9423 16.7956 30.1878 18.1621C30.4828 19.8054 31.3166 23.0503 31.3386 24.5273L26.8997 28.3554C26.3954 28.7748 25.8864 29.1829 25.4797 29.6443C24.917 29.5619 18.1712 27.2704 18.0126 27.0248L16.5191 19.2887ZM14.4647 11.9349L14.6568 12.3748C14.693 12.5065 14.7054 12.6297 14.7329 12.782C14.7797 13.0416 14.8377 13.329 14.8941 13.6209L15.9203 18.8483C16.005 19.5746 15.5151 19.7469 15.1054 20.056L11.8866 22.9375C11.6155 22.8573 10.8935 22.4793 10.4274 22.2822L10.4697 15.5319L14.4647 11.9349ZM32.9445 23.1777C32.4404 23.5727 32.1524 23.9494 31.6045 24.2502L30.2969 17.2097L36.9852 19.6628C36.7581 20.0393 36.5999 20.0523 36.3002 20.2967C36.0288 20.5179 35.91 20.6656 35.6385 20.8796L32.9445 23.1777ZM1.27876 23.3007C1.54745 22.3586 4.73351 15.789 5.45199 14.1437C6.12817 12.5954 6.84903 11.1684 7.53157 9.61438L9.09797 6.18712C9.30807 5.6818 9.2783 5.35962 9.80171 5.38557C10.0924 5.87745 9.92005 10.8617 9.92005 11.9296C9.92005 15.4467 10.4644 15.1157 8.24515 16.9374L4.7176 20.1478C3.53464 21.3119 2.50489 22.2492 1.27876 23.3007ZM38.7829 15.4245C39.7048 15.9777 44.6486 18.9862 44.8253 19.2857L44.7037 19.7521L37.7776 19.3112L36.6182 14.1475C37.2708 14.3926 38.1654 15.0539 38.7829 15.4245ZM22.6926 13.9489C23.2066 13.3057 24.184 12.6432 24.8179 12.0559C25.5817 11.348 26.1547 10.8882 26.9376 10.2565C27.5419 10.6621 27.8059 10.854 28.7854 10.8505L29.8356 16.5071L22.6926 13.9489ZM21.8663 14.1499C21.6157 14.568 16.7335 18.6597 16.4186 18.8455L15.0709 11.75L21.8663 14.1499ZM10.4264 5.39497C11.0971 5.29084 10.9283 5.14777 11.2477 5.66342L14.3327 11.306L11.432 14.0133C11.2327 14.1789 11.1609 14.2422 10.9703 14.4196C10.8831 14.5008 10.7786 14.6009 10.6948 14.6662C10.4791 14.8342 10.754 14.6701 10.4271 14.8401L10.4264 5.39497ZM29.0548 10.7723C29.5759 10.6406 29.8249 10.3509 30.1807 10.1266C30.7564 10.3353 34.1982 12.6085 35.1714 13.1768C35.7335 13.5052 35.9274 13.4891 36.1058 14.2323L37.1885 19.1169C37.0317 19.0733 30.3116 16.8113 30.1319 16.5024L29.0548 10.7723ZM16.6908 10.541C17.0949 10.319 17.5105 10.0814 17.9819 9.83461C24.9662 6.17772 21.0216 7.1547 26.3355 8.20186C26.3701 9.21702 26.3582 9.23278 26.7542 9.97589C26.0376 10.6901 25.2455 11.3568 24.4324 12.0411C21.5912 14.4321 23.1107 14.0488 18.6416 12.4909C17.8327 12.2089 16.1101 11.6851 15.4517 11.306L16.6908 10.541ZM33.1746 1.4834L35.7876 12.9236C35.0309 12.6136 33.8738 11.7525 33.0814 11.2764C32.2967 10.8051 31.1357 10.1669 30.4823 9.63969C31.527 6.41813 27.4426 5.53611 26.5982 7.77671L23.4826 6.84507L33.1746 1.4834ZM11.499 5.06959C11.6746 4.78761 11.9773 4.45863 12.2279 4.11259L22.0459 7.01817L14.7923 10.9801L11.499 5.06959ZM45.2023 18.7079C44.8934 18.7079 41.4578 16.4987 40.9199 16.1558C35.2106 12.5146 36.7831 14.7983 35.1928 8.03497C34.8162 6.43389 34.103 3.94672 33.9423 2.42459L42.6076 14.5933C43.106 15.2863 43.5783 15.9398 44.0547 16.6411C44.5916 17.4313 45.4027 18.2163 45.2023 18.7079ZM14.7204 3.07619C15.566 2.99781 16.3652 2.92327 17.2054 2.84417C19.2712 2.64954 31.0264 1.45066 32.0277 1.49693C30.6372 2.33312 29.0314 3.20083 27.5781 3.96437C26.7592 4.39471 26.0926 4.80308 25.3365 5.21261C21.8452 7.10344 23.6105 6.87083 17.6153 5.15975L13.5613 3.97795C13.1355 3.84947 12.5548 3.80408 12.3367 3.44804L14.7204 3.07619ZM12.3442 2.76666C11.7951 1.92417 11.9757 1.67284 11.0346 1.26181C8.4844 0.148391 6.83472 3.92887 9.07178 5.04539L0.0732422 24.5273C1.95684 26.9974 4.43548 30.6565 6.30583 33.3083L12.4311 42.0045C12.1076 42.5739 11.6814 43.0656 11.9065 44.053C12.4252 46.3291 15.9199 46.4192 16.1864 43.5866C18.0781 43.4307 36.0824 41.5737 37.3395 41.7044C37.4951 40.8102 41.0233 33.4591 41.7084 31.9432C42.4588 30.2828 43.2309 28.7093 43.944 27.0643C44.3768 26.0658 45.9457 22.8882 46.1138 22.2379C47.0867 22.3607 47.6636 22.3434 48.27 21.7853C49.3756 20.7676 49.2343 19.1295 47.9933 18.3113C47.1563 17.7596 46.6094 17.9902 45.7124 18.2023L33.4006 0.733398C33.0362 0.901451 13.8801 2.76919 12.3442 2.76666Z" fill="#2E3033"/>
</svg>
