<svg width="42" height="42" viewBox="0 0 42 42" fill="none" xmlns="http://www.w3.org/2000/svg">
<path fill-rule="evenodd" clip-rule="evenodd" d="M39.1849 12.1597C38.6631 12.9081 37.6053 13.8267 36.1349 14.2354C36.3895 15.6985 37.319 16.6576 37.4638 20.1387C37.5591 22.4326 37.2214 24.6028 36.5135 26.5632C32.1006 38.7829 16.6183 41.0263 8.71528 32.5371C6.61486 30.2809 4.49973 26.854 4.12127 22.5021C3.72868 17.9891 5.20145 13.8227 7.27501 11.0791C10.7239 6.51553 16.1551 3.66452 22.4317 4.29691C24.8197 4.53762 26.1745 5.14358 28.158 5.91229C28.8589 4.64191 28.9058 4.23877 30.4388 2.97559C29.0972 1.89967 25.3828 0.906562 23.6452 0.672513C15.8431 -0.378095 8.93995 2.87797 4.55361 8.4727C-0.782942 15.2797 -1.1483 25.0479 3.88226 32.4808C4.55963 33.4817 5.23497 34.2155 5.97469 35.0499C8.33665 37.7141 12.8817 40.551 18.0242 41.2128C32.5611 43.0835 44.2914 29.8425 40.5072 15.5267C40.3579 14.9619 39.6369 12.6538 39.1849 12.1597ZM33.1534 4.074C31.185 4.58436 29.4215 6.52224 30.0037 9.08378C30.4732 11.15 32.4897 12.9358 35.1272 12.3322C37.0814 11.885 38.896 9.83026 38.3018 7.25668C37.8367 5.24228 35.8086 3.3855 33.1534 4.074ZM19.8237 11.6635C14.9724 12.1727 10.9579 16.4055 11.4938 21.9384C11.9539 26.6883 16.2955 30.7497 21.7402 30.215C26.5601 29.7415 30.5781 25.4157 30.044 19.9353C29.582 15.1953 25.2377 11.0953 19.8237 11.6635Z" fill="#498BFB"/>
</svg>
