<svg width="42" height="46" viewBox="0 0 42 46" fill="none" xmlns="http://www.w3.org/2000/svg">
<path fill-rule="evenodd" clip-rule="evenodd" d="M22.15 32.6122L22.1397 36.0205C21.9481 36.0605 20.0698 36.0605 19.8704 36.0205L19.8634 32.6252L18.9218 31.7679C18.8235 31.669 18.7474 31.5584 18.643 31.4677C18.3965 31.2538 18.2893 31.0949 18.0597 30.8564C17.2303 29.9944 16.2082 28.4447 15.6393 27.3039C12.6986 21.407 14.773 14.088 18.6917 9.22871C19.0719 8.75738 20.6682 6.86739 21.0054 6.77802C21.2724 6.89268 22.0021 7.73016 22.2371 7.96367L23.3414 9.2495C25.5387 12.0171 27.1867 15.4955 27.6406 19.2828C28.2353 24.2458 26.5791 28.1862 23.3638 31.4925C23.1604 31.7017 22.9731 31.883 22.7549 32.0784C22.5852 32.2303 22.3168 32.5189 22.15 32.6122ZM19.6766 3.39502C15.6842 3.5242 11.7872 4.18247 7.97283 5.13272C6.48492 5.50344 5.77249 5.69068 5.03927 6.68866C4.36988 7.59976 4.3748 9.0642 4.2813 10.3787C3.79289 17.2431 4.3154 23.1522 7.61506 29.138C8.4016 30.5647 9.33137 31.9154 10.3425 33.1434L12.4949 35.4798L13.6617 36.557C13.8333 36.719 14.0702 36.9128 14.2699 37.0716C16.1757 38.5873 18.1621 39.9789 20.4077 41.0327C21.073 41.3449 20.8787 41.4152 21.9395 40.8917C24.9818 39.3901 27.5221 37.5364 29.7877 35.31C31.9032 33.231 34.0402 30.2828 35.3165 27.4085C36.2854 25.2264 36.9385 23.1768 37.4291 20.5446C38.0373 17.282 37.9636 13.4117 37.7103 10.0061C37.6644 9.38908 37.6304 8.55306 37.4904 7.98294C37.1966 6.7855 36.4915 5.92601 35.4671 5.5218C34.2489 5.04111 29.3455 4.12034 28.0846 3.92878C25.3594 3.51478 22.5391 3.30237 19.6766 3.39502Z" fill="#5C4037"/>
<path fill-rule="evenodd" clip-rule="evenodd" d="M19.6766 3.39504C22.5391 3.30239 25.3594 3.5148 28.0846 3.9288C29.3456 4.12036 34.249 5.04113 35.4671 5.52182C36.4916 5.92603 37.1967 6.78552 37.4905 7.98296C37.6304 8.55308 37.6645 9.3891 37.7103 10.0062C37.9636 13.4117 38.0374 17.282 37.4292 20.5447C36.9385 23.1768 36.2854 25.2264 35.3165 27.4085C34.0403 30.2829 31.9033 33.2311 29.7877 35.31C27.5221 37.5364 24.9818 39.3901 21.9396 40.8917C20.8788 41.4153 21.0731 41.3449 20.4077 41.0327C18.1621 39.979 16.1757 38.5873 14.27 37.0717C14.0702 36.9128 13.8333 36.719 13.6618 36.557L12.495 35.4799L10.3426 33.1435C9.33141 31.9155 8.40164 30.5648 7.61511 29.138C4.31545 23.1522 3.79293 17.2431 4.28134 10.3788C4.37484 9.06423 4.36992 7.59978 5.03931 6.68868C5.77253 5.6907 6.48496 5.50346 7.97287 5.13274C11.7872 4.18249 15.6843 3.52422 19.6766 3.39504ZM41.1537 10.9994C41.1537 10.8124 41.1457 10.7093 41.1274 10.5757L40.9166 7.63729C40.8102 7.0487 40.724 6.70582 40.528 6.21601C40.4307 5.97302 40.3559 5.80463 40.2488 5.59027L39.7529 4.74671C38.9147 3.61487 38.2784 3.09363 37.0276 2.47658C35.9965 1.96805 32.5566 1.26935 31.7086 1.09883C31.0402 0.964414 30.3486 0.828057 29.6684 0.713644C28.5597 0.527131 25.7955 0.113678 24.756 0.123831C24.1762 0.129485 23.5859 0.0211513 23.0195 0.0141602L18.2089 0.0570803C17.8488 0.0974469 17.4782 0.0937376 17.0833 0.126079C13.5928 0.412414 9.02362 1.19579 5.67411 2.21912C5.33494 2.32277 5.09688 2.44229 4.81 2.58576C4.01495 2.98323 3.32732 3.54696 2.73817 4.2062C1.91516 5.12715 1.38462 6.33766 1.20498 7.5599C0.942532 9.34533 0.719482 12.5898 0.719482 14.3866C0.719482 14.7969 0.719482 15.2071 0.719482 15.6173C0.719482 16.0654 0.756871 16.384 0.754864 16.8128C0.752737 17.2696 0.829822 18.0477 0.890129 18.5236C0.916756 18.7332 0.92089 18.8807 0.942957 19.0862C1.06381 20.2092 1.2575 21.3747 1.50712 22.4733L1.67582 23.2402C1.89795 24.3757 2.55798 26.3508 3.01527 27.4391C4.02401 29.8397 4.81474 31.2724 6.23602 33.413C6.71647 34.1367 7.28354 34.8074 7.81919 35.4859C9.94901 37.682 11.6465 39.6624 14.1927 41.3477C14.9909 41.876 15.5784 42.2927 16.4278 42.8049C17.2501 43.3007 18.3428 43.9275 19.2067 44.2974C19.7018 44.5094 20.2056 44.7526 20.7059 44.934C21.069 45.0656 21.0066 45.0346 21.3936 44.9068C21.5619 44.8512 21.6724 44.8005 21.8335 44.7314L24.1057 43.637C24.4279 43.4507 24.7695 43.301 25.0884 43.0994L26.985 41.9191C27.9684 41.2755 28.8998 40.5575 29.8188 39.8298C30.2181 39.5136 30.7549 39.0709 31.1179 38.7036L32.0629 37.8025C32.2902 37.6221 33.1703 36.6803 33.4018 36.3902L34.1366 35.5684C35.0521 34.435 35.9484 33.2641 36.6996 32.0139C37.3222 30.9777 37.9357 29.9207 38.4126 28.8038C39.9373 24.9706 40.4088 23.594 41.0563 19.2123C41.1064 18.8737 41.1205 18.4748 41.1748 18.0999C41.1982 17.9381 41.2132 17.6712 41.2242 17.534L41.2638 12.72C41.2611 12.5024 41.2235 12.3977 41.2261 12.1422L41.1537 10.9994Z" fill="#4CAE4F"/>
<path fill-rule="evenodd" clip-rule="evenodd" d="M22.1501 32.6122L22.1184 32.6017L22.1175 36.0161H19.9004L19.9007 33.1015C19.9004 32.6405 19.8927 32.6373 20.0268 32.2441L20.9913 29.3425L21.0866 29.4273C20.9715 29.0467 21.0101 29.2732 21.0104 28.7577V9.60835C21.0104 8.68655 21.0463 7.69076 21.0055 6.77808C20.6683 6.86744 19.072 8.75743 18.6918 9.22876C14.7731 14.0881 12.6987 21.4071 15.6394 27.304C16.2083 28.4447 17.2304 29.9945 18.0598 30.8564C18.2894 31.095 18.3966 31.2538 18.6431 31.4678C18.7474 31.5584 18.8236 31.669 18.9219 31.7679L19.8635 32.6253L19.8705 36.0205C20.0699 36.0606 21.9482 36.0606 22.1398 36.0205L22.1501 32.6122Z" fill="#80C683"/>
<path fill-rule="evenodd" clip-rule="evenodd" d="M21.0866 29.4273C21.095 29.6465 21.4927 30.7172 21.5913 31.0173C21.768 31.5554 21.9609 32.0687 22.1183 32.6017L22.15 32.6122C22.3169 32.519 22.5853 32.2304 22.755 32.0784C22.9731 31.8831 23.1605 31.7018 23.3639 31.4925C26.5791 28.1863 28.2354 24.2458 27.6406 19.2829C27.1867 15.4955 25.5387 12.0172 23.3414 9.24955L22.2371 7.96372C22.0022 7.73022 21.2725 6.89273 21.0055 6.77808C21.0462 7.69076 21.0104 8.68655 21.0104 9.60835V28.7577C21.0101 29.2732 20.9715 29.0467 21.0866 29.4273Z" fill="#4CAE4F"/>
<path fill-rule="evenodd" clip-rule="evenodd" d="M22.1183 32.6018C21.9608 32.0687 21.768 31.5555 21.5913 31.0174C21.4927 30.7172 21.095 29.6466 21.0866 29.4274L20.9912 29.3425L20.0267 32.2441C19.8927 32.6373 19.9004 32.6405 19.9006 33.1015L19.9004 36.0161H22.1174L22.1183 32.6018Z" fill="#DCEDC8"/>
</svg>
