<svg width="41" height="46" viewBox="0 0 41 46" fill="none" xmlns="http://www.w3.org/2000/svg">
<path fill-rule="evenodd" clip-rule="evenodd" d="M0.719482 13.6514V32.7034C0.719482 34.9604 2.12253 35.634 3.56203 36.4616C4.9267 37.246 6.45299 38.2249 7.93829 38.836C11.7831 40.4177 15.571 38.6549 15.571 34.3536V15.3015C15.571 14.5972 14.6494 14.8515 12.8708 14.8515C12.1619 14.8515 12.4203 16.0166 12.4207 17.2517C12.4215 19.9175 12.6927 33.8425 12.1686 35.0016C11.4429 36.6066 9.52491 36.3021 8.2099 35.564L4.20729 33.266C3.85189 33.031 3.7198 33.0119 3.7198 32.4033V14.1014C3.7198 13.4814 3.9401 13.3385 4.35797 13.0894L9.77185 9.95243C10.9845 9.29181 20.3592 3.75032 20.6716 3.75032L36.8885 13.036C37.3426 13.2994 37.6233 13.396 37.6233 14.1014V32.4033C37.6233 33.1615 37.2288 33.2189 36.6615 33.5418L27.0708 39.1026C26.0818 39.641 25.2991 40.1523 24.3182 40.7005C19.7385 43.2597 21.3183 43.0716 18.7687 41.657C14.8686 39.493 16.8361 39.8652 14.3941 40.8274C13.2246 41.2882 13.082 41.1178 13.0208 41.8544C14.7833 42.3249 18.381 45.7547 20.8216 45.7547C22.1491 45.7547 22.8753 45.1728 23.7564 44.6391L36.5732 37.2038C38.2847 36.2783 40.6236 35.2665 40.6236 33.1534V13.3513C40.6236 11.3622 38.3742 10.2798 36.6717 9.35236L22.7105 1.2613C22.205 0.956072 21.7019 0.797054 21.1985 0.75H20.5376C18.7363 0.910152 16.9176 2.31739 14.9632 3.44254L2.15144 10.8828C1.4572 11.3558 0.719482 12.5581 0.719482 13.6514Z" fill="#539E43"/>
<path fill-rule="evenodd" clip-rule="evenodd" d="M17.6712 18.9019C17.6712 20.9178 17.6026 22.0006 19.4464 23.2774C20.4517 23.9737 21.7455 24.2354 23.1991 24.4752C25.4439 24.8454 30.7225 24.8478 30.7225 27.0028C30.7225 30.0007 26.726 29.5531 24.4219 29.5531C19.502 29.5531 20.8174 25.9527 19.7714 25.9527C18.4642 25.9527 18.166 25.8476 17.0711 26.1027C17.0711 28.3764 17.4803 30.0698 19.531 31.2936C22.9733 33.348 30.7122 33.3682 33.1273 30.0077C34.3946 28.2444 34.6672 24.6658 32.1633 23.1618C28.6369 21.0435 20.9715 22.0698 20.9715 19.652C20.9715 17.581 23.0579 17.2518 25.322 17.2518C26.7336 17.2518 28.1358 17.4665 29.0135 18.0608C30.3683 18.9782 29.9331 20.7022 30.8725 20.7022C31.6298 20.7022 33.4228 20.9071 33.4228 20.2521C33.4228 16.1312 29.9575 14.2515 26.2221 14.2515C23.6701 14.2515 19.9302 14.3809 18.4235 16.8039C18.1368 17.2648 17.6712 18.1787 17.6712 18.9019Z" fill="#539E43"/>
</svg>
