<svg width="45" height="46" viewBox="0 0 45 46" fill="none" xmlns="http://www.w3.org/2000/svg">
<path fill-rule="evenodd" clip-rule="evenodd" d="M34.4017 26.0911C33.6988 25.1932 33.3022 24.1414 32.692 23.0538C31.4505 20.8412 28.9112 16.1711 30.5294 13.6833C31.4293 12.2998 33.1756 12.0477 35.3142 12.2118C35.1913 11.5477 34.4602 10.2711 34.0965 9.65183C33.9387 9.38294 33.7706 9.16156 33.6066 8.91162C33.2316 8.34015 32.4079 7.37329 31.919 6.90728C31.7236 6.7211 31.4934 6.49816 31.2732 6.32183C30.8185 5.9577 30.3973 5.60104 29.8634 5.27156C29.3507 4.95512 28.8605 4.69424 28.2555 4.418C27.1371 3.90742 25.6671 3.5544 24.2876 3.45748C21.7184 3.27697 19.5634 3.8019 17.8125 5.53627C15.9862 7.34539 14.8839 10.4209 14.6918 13.5111C15.0505 13.3728 15.4249 13.1478 15.817 12.9894C17.0626 12.4861 18.5493 12.1526 19.8364 12.5291C21.768 13.0941 22.0362 14.8349 22.3072 16.5192C22.6241 18.4894 22.658 20.4817 22.1107 22.3598C21.8645 23.2047 21.5228 23.9027 21.1972 24.6546C20.9686 25.1824 20.4475 26.467 20.3589 27.0427C21.3277 26.9003 22.0197 27.3346 22.4345 27.8197C22.9792 28.4567 23.1257 28.988 23.0979 30.0181C23.0317 32.4767 23.0353 36.1487 23.283 38.6243C23.3829 39.6223 23.4557 40.1865 23.8346 41.0104C24.4644 42.3799 25.547 43.2855 27.6087 42.9702C29.383 42.6988 30.7521 42.0603 31.4167 40.8944C32.115 39.6694 32.2879 37.6881 32.4952 36.1231C32.7265 34.3771 32.9385 32.6332 33.1306 30.8699C33.225 30.0033 33.1404 29.032 33.4734 28.2723C33.6265 27.9232 33.8564 27.6533 34.1006 27.4509C34.4268 27.1805 34.6716 27.1705 35.0722 26.9748L34.4017 26.0911Z" fill="#336791"/>
<path fill-rule="evenodd" clip-rule="evenodd" d="M15.2753 31.4329C15.9728 31.0988 17.2739 31.0453 18.2667 30.5563C19.0315 30.1796 19.6134 29.3006 20.1885 28.6114C20.735 27.9565 21.384 28.3516 21.6923 28.9569C21.8592 29.2845 21.9195 29.728 21.6975 30.034C21.5285 30.2669 21.2917 30.5528 21.1139 30.7241C20.0765 31.7233 18.7701 32.132 17.2428 31.9987C16.6902 31.9505 15.5665 31.7449 15.2753 31.4329ZM34.477 29.9744C34.4188 29.1082 34.5629 28.4894 35.2529 28.2503C35.8478 28.0441 35.6587 28.0597 36.1078 28.2971C37.3367 28.9462 39.0037 28.8356 40.3647 28.6213C40.6757 28.5723 41.1201 28.4616 41.407 28.4484C40.9237 28.8717 40.6503 29.0625 40.0674 29.3735C38.6134 30.149 35.9861 30.5576 34.477 29.9744ZM14.6499 15.0766C15.4075 14.3759 17.6073 13.479 19.0371 13.6457C19.946 13.7517 20.4133 14.1933 20.6884 14.9299C20.9025 15.5029 21.0769 16.7034 21.1555 17.3648C21.7115 22.0436 20.3091 22.8014 19.2806 26.2108C19.254 26.2992 19.2292 26.3843 19.2019 26.4811L19.0906 26.7452C16.7563 26.7571 15.0687 24.8554 14.6061 22.9007C14.3048 21.6279 14.6219 20.3698 14.6939 19.0763C14.7314 18.4016 14.7424 17.7296 14.7287 17.053C14.7163 16.434 14.6236 15.6654 14.6499 15.0766ZM33.6326 22.1587C32.9057 20.7449 32.2973 19.7935 31.7468 18.1106C30.5307 14.3926 31.4916 13.0765 35.479 13.4993C35.4776 15.4068 34.845 16.1988 35.1666 19.1305C35.2697 20.0707 35.4135 21.0134 35.4078 21.9767C35.4033 22.7315 35.2259 23.9457 34.8686 24.4797L33.6326 22.1587ZM35.0723 26.9745C34.6717 27.1702 34.4269 27.1802 34.1007 27.4506C33.8566 27.653 33.6266 27.9229 33.4735 28.272C33.1405 29.0317 33.2251 30.003 33.1307 30.8697C32.9386 32.6329 32.7266 34.3768 32.4953 36.1228C32.288 37.6878 32.1151 39.6691 31.4168 40.8941C30.7522 42.06 29.3831 42.6985 27.6088 42.9699C25.5471 43.2852 24.4646 42.3796 23.8347 41.0101C23.4558 40.1862 23.383 39.622 23.2831 38.624C23.0354 36.1484 23.0318 32.4764 23.098 30.0178C23.1258 28.9878 22.9793 28.4564 22.4346 27.8194C22.0198 27.3343 21.3278 26.9 20.359 27.0425C20.4476 26.4667 20.9687 25.1821 21.1973 24.6543C21.5229 23.9024 21.8646 23.2044 22.1108 22.3595C22.6581 20.4814 22.6242 18.4891 22.3073 16.5189C22.0363 14.8346 21.7681 13.0938 19.8366 12.5288C18.5494 12.1523 17.0627 12.4858 15.8171 12.9891C15.425 13.1475 15.0506 13.3726 14.6919 13.5108C14.884 10.4206 15.9863 7.34509 17.8126 5.53597C19.5635 3.8016 21.7185 3.27667 24.2877 3.45719C25.6672 3.5541 27.1372 3.90712 28.2556 4.41771C28.8606 4.69394 29.3508 4.95482 29.8635 5.27127C30.3974 5.60074 30.8186 5.9574 31.2733 6.32154C31.4935 6.49786 31.7237 6.7208 31.9191 6.90699C32.408 7.373 33.2317 8.33985 33.6067 8.91132C33.7707 9.16127 33.9388 9.38265 34.0966 9.65153C34.4603 10.2708 35.1914 11.5474 35.3143 12.2115C33.1757 12.0474 31.4294 12.2995 30.5295 13.683C28.9113 16.1708 31.4506 20.8409 32.6921 23.0535C33.3023 24.1411 33.6989 25.1929 34.4018 26.0908L35.0723 26.9745ZM14.5331 27.616C14.4478 27.7208 14.3923 27.7591 14.2968 27.8615C14.2164 27.9477 14.1781 28.0149 14.0994 28.1058L12.1442 30.3699C12.0698 30.4612 12.0074 30.5085 11.9335 30.5969C11.1792 31.4996 10.412 31.6897 9.47813 30.9741C6.86868 28.9745 4.7219 20.5979 4.08034 17.7329C3.29298 14.2164 2.36646 9.28848 4.73308 6.08127C7.05696 2.93196 11.8995 3.21698 15.5012 4.16131C15.9493 4.27878 16.5405 4.49658 16.9536 4.57235C16.8455 4.72208 16.6377 4.94305 16.5164 5.07558C16.1079 5.52169 15.7337 6.07087 15.4084 6.60327C14.0556 8.81703 13.2733 12.4771 13.3812 15.1209C13.4293 16.3006 13.5007 17.4008 13.4565 18.5942C13.3688 20.9621 12.7318 22.1791 13.9124 24.6485C14.4039 25.6766 14.6949 25.8076 15.2233 26.4151C15.3211 26.5276 15.3649 26.5386 15.4373 26.6429L14.5331 27.616ZM28.9164 3.24208C29.2147 3.24268 29.7422 3.11755 30.0778 3.07477C32.7554 2.73341 35.3882 3.00552 37.7614 4.2302C39.0263 4.88294 39.8769 5.68595 40.6726 6.54686C41.0774 6.98491 41.3776 7.48282 41.5043 8.31111C42.12 12.3359 39.594 19.0703 37.7693 22.6359C37.4731 23.2146 37.1813 23.7728 36.8636 24.3236C36.6974 24.6119 36.0348 25.7908 35.8795 25.9198C35.7724 25.8322 35.7494 25.7931 35.6901 25.6685C37.0163 23.0672 36.7241 21.8211 36.4077 18.8996C36.0741 15.8176 37.2553 13.873 36.5002 11.731C36.0137 10.351 35.2174 8.95165 34.3801 7.82968C33.5352 6.6975 32.5456 5.66814 31.4114 4.82079C31.026 4.53285 29.4545 3.44882 28.9089 3.36158L28.8102 3.26723L28.9164 3.24208ZM36.6371 27.1514C36.6969 26.9525 37.2345 26.1746 37.3945 25.9091C38.6539 23.8192 39.7582 21.5722 40.6487 19.2747C41.7507 16.4314 42.8585 12.6403 42.8462 9.53884C42.8389 7.73014 42.6013 6.86755 41.6398 5.75723C41.1749 5.2203 40.7181 4.75112 40.1459 4.30513C38.6589 3.1463 36.9748 2.27033 34.6156 1.88146C32.3296 1.50466 29.683 1.68792 27.5352 2.29488C27.3222 2.35511 26.9581 2.49535 26.7627 2.53401C26.4508 2.59586 23.5279 1.66736 20.5913 2.51388C20.0515 2.66947 19.6348 2.82531 19.1551 3.05338C18.4238 3.40108 18.2451 3.71227 17.8584 3.5654C14.9665 2.46667 10.5448 1.78376 7.6227 2.68507C5.72807 3.2695 4.10962 4.38944 3.18698 6.1608C1.01612 10.3285 2.15112 15.0802 3.21005 19.529C3.91142 22.4758 7.04232 34.7162 11.6744 32.4025C12.2447 32.1177 12.8805 31.4928 13.2553 30.9963C13.431 30.7634 16.2831 27.5042 16.4902 27.3501C17.8705 27.8584 17.2524 27.809 18.9845 28.016C18.9726 28.1511 18.8196 28.2875 18.7357 28.3899C18.4332 28.7587 18.2512 29.0777 17.8461 29.3462C16.9831 29.9183 15.0173 29.8479 14.1921 30.6585C13.6253 31.2154 13.8516 31.9151 14.3315 32.3178C15.652 33.4259 18.4084 33.5792 20.3028 32.7707C21.0382 32.4569 21.2566 32.1937 21.8109 31.8072C21.7964 33.9217 21.7585 39.0411 22.3793 40.7948C23.2252 43.1844 24.965 44.806 28.2067 44.1418C31.0557 43.558 32.5565 42.4053 33.2104 39.6571C33.5494 38.2328 34.2078 32.9031 34.3491 31.2946C34.6933 31.3298 35.0333 31.4417 35.4382 31.4725C36.5194 31.5549 37.9245 31.4184 38.9391 31.1434C40.4516 30.7335 41.3298 30.1656 42.2766 29.3834C42.5666 29.1438 43.2929 28.3729 42.9793 27.6646C42.33 26.1979 38.9253 28.3871 36.6371 27.1514Z" fill="white"/>
<path fill-rule="evenodd" clip-rule="evenodd" d="M15.4373 26.643C15.3649 26.5387 15.321 26.5277 15.2232 26.4152C14.6949 25.8077 14.4039 25.6767 13.9124 24.6486C12.7318 22.1793 13.3688 20.9622 13.4565 18.5944C13.5007 17.4009 13.4293 16.3007 13.3812 15.121C13.2733 12.4772 14.0556 8.81713 15.4084 6.60337C15.7337 6.07097 16.1079 5.52179 16.5163 5.07568C16.6377 4.94315 16.8454 4.72218 16.9535 4.57245C16.5405 4.49668 15.9493 4.27888 15.5011 4.16141C11.8994 3.21708 7.05693 2.93206 4.73304 6.08137C2.36643 9.28858 3.29295 14.2165 4.08031 17.733C4.72187 20.598 6.86865 28.9746 9.47809 30.9742C10.412 31.6898 11.1792 31.4997 11.9334 30.597C12.0073 30.5086 12.0697 30.4613 12.1441 30.37L14.0994 28.1059C14.178 28.015 14.2163 27.9478 14.2968 27.8616C14.3922 27.7592 14.4478 27.7209 14.5331 27.6161L15.4373 26.643Z" fill="#336791"/>
<path fill-rule="evenodd" clip-rule="evenodd" d="M36.6371 27.1516C38.9253 28.3873 42.3299 26.1981 42.9793 27.6648C43.2929 28.3731 42.5666 29.144 42.2766 29.3836C41.3298 30.1658 40.4516 30.7337 38.9391 31.1436C37.9245 31.4185 36.5193 31.5551 35.4382 31.4727C35.0333 31.4418 34.6933 31.33 34.3491 31.2948C34.2077 32.9033 33.5493 38.2329 33.2104 39.6573C32.5564 42.4054 31.0556 43.5582 28.2067 44.142C24.965 44.8062 23.2252 43.1846 22.3793 40.7949C21.7585 39.0413 21.7964 33.9219 21.8109 31.8074C21.2566 32.1939 21.0382 32.457 20.3028 32.7709C18.4083 33.5794 15.652 33.4261 14.3314 32.3179C13.8516 31.9153 13.6253 31.2156 14.1921 30.6587C15.0173 29.8481 16.9831 29.9185 17.8461 29.3464C18.2512 29.0779 18.4332 28.7588 18.7357 28.3901C18.8195 28.2876 18.9726 28.1513 18.9845 28.0162C17.2524 27.8092 17.8704 27.8586 16.4902 27.3502C16.2831 27.5043 13.431 30.7636 13.2552 30.9965C12.8805 31.493 12.2446 32.1179 11.6744 32.4027C7.0423 34.7164 3.91139 22.476 3.21002 19.5291C2.15109 15.0804 1.01609 10.3287 3.18696 6.16099C4.10959 4.38963 5.72804 3.26969 7.62267 2.68525C10.5447 1.78395 14.9665 2.46686 17.8584 3.56559C18.2451 3.71246 18.4238 3.40127 19.1551 3.05357C19.6347 2.82549 20.0515 2.66966 20.5913 2.51406C23.5279 1.66755 26.4508 2.59604 26.7627 2.5342C26.9581 2.49554 27.3221 2.3553 27.5352 2.29507C29.683 1.68811 32.3296 1.50485 34.6156 1.88164C36.9748 2.27051 38.6589 3.14648 40.1459 4.30532C40.7181 4.75131 41.1749 5.22049 41.6398 5.75742C42.6013 6.86774 42.8389 7.73032 42.8461 9.53903C42.8585 12.6405 41.7507 16.4316 40.6486 19.2749C39.7581 21.5724 38.6539 23.8194 37.3945 25.9093C37.2345 26.1748 36.6968 26.9527 36.6371 27.1516ZM26.8697 1.2325C26.4169 1.2325 25.9211 1.08288 25.462 1.05796C23.4632 0.949688 22.2068 0.811122 20.1703 1.38929C19.5327 1.57022 19.026 1.77248 18.4604 2.05272C17.6736 2.44266 18.2618 2.41511 16.5571 1.92012C13.3133 0.978248 8.89504 0.557651 5.81749 2.11133C4.5471 2.75271 3.70489 3.41997 2.823 4.5227C1.36977 6.33995 0.719482 9.15924 0.719482 11.4729C0.719482 13.9798 0.970083 15.1211 1.46979 17.5348C1.90867 19.6544 2.83017 23.2306 3.57068 25.2787C4.79525 28.6659 7.39705 35.603 12.053 33.7059C12.5016 33.5231 12.8228 33.2617 13.2013 33.0083C13.263 33.0535 13.485 33.3312 13.8538 33.5864C15.381 34.6432 18.1268 34.8692 19.8978 34.3429C20.1686 34.2625 20.5916 34.1319 20.8046 34.0191C20.8046 34.8396 20.8903 35.7644 20.891 36.6137L20.9988 38.132C21.274 40.0319 21.0599 39.5788 21.7548 41.6832C21.9301 42.2141 22.1584 42.7301 22.4219 43.1697C23.3118 44.6543 24.8109 45.4901 26.606 45.4901C27.8801 45.4901 29.8087 44.9671 30.8697 44.4358C33.8982 42.9193 34.5848 39.6291 35.0199 36.5437C35.1233 35.8109 35.2447 33.0607 35.3081 32.7885L36.2311 32.8325C37.2374 32.8325 38.1442 32.6934 38.9893 32.5142C39.5411 32.3973 40.2445 32.1907 40.7438 31.9393C41.6513 31.4825 42.3161 31.1575 43.0979 30.4259C43.2684 30.2664 43.3312 30.2631 43.4829 30.0637C44.2863 29.0082 44.3178 29.118 44.3178 27.7343C44.3178 27.2775 43.898 26.6975 43.5342 26.4084C42.3148 25.4393 40.8622 26.1306 39.5725 26.2412C39.3429 26.261 38.9416 26.2801 38.7362 26.3279C38.7743 26.1643 39.0867 25.6492 39.1944 25.4676L41.416 20.921C42.1435 19.2733 43.0552 16.4894 43.448 14.8222C43.9584 12.657 44.543 9.18111 43.8076 6.97284C43.3617 5.63457 42.7083 5.01781 41.736 4.0341C41.6046 3.90115 41.537 3.86411 41.4066 3.74819C39.042 1.64694 35.8387 0.485352 32.6272 0.485352C30.5301 0.485352 29.4004 0.585197 27.423 1.08258C27.2949 1.11478 26.9486 1.2325 26.8697 1.2325Z" fill="black"/>
<path fill-rule="evenodd" clip-rule="evenodd" d="M28.9163 3.24216L28.9089 3.36167C29.4544 3.44891 31.026 4.53293 31.4114 4.82088C32.5456 5.66823 33.5351 6.69758 34.38 7.82977C35.2173 8.95174 36.0137 10.3511 36.5001 11.7311C37.2552 13.8731 36.074 15.8177 36.4077 18.8997C36.724 21.8211 37.0163 23.0673 35.6901 25.6686C35.7494 25.7932 35.7723 25.8323 35.8795 25.9199C36.0348 25.7908 36.6973 24.612 36.8636 24.3237C37.1812 23.7729 37.4731 23.2147 37.7693 22.636C39.594 19.0704 42.1199 12.336 41.5042 8.3112C41.3775 7.48291 41.0774 6.98499 40.6726 6.54695C39.8768 5.68604 39.0262 4.88302 37.7613 4.23029C35.3881 3.0056 32.7553 2.73349 30.0778 3.07486C29.7422 3.11764 29.2147 3.24276 28.9163 3.24216Z" fill="#336791"/>
<path fill-rule="evenodd" clip-rule="evenodd" d="M17.912 14.945C17.6811 13.9218 20.4869 14.2763 20.205 15.1783C20.0934 15.5352 19.5152 15.9069 18.9593 15.829C18.507 15.7656 17.9962 15.3177 17.912 14.945ZM14.6498 15.0768C14.6235 15.6657 14.7163 16.4342 14.7287 17.0533C14.7423 17.7299 14.7314 18.4019 14.6938 19.0765C14.6219 20.37 14.3048 21.6281 14.606 22.901C15.0686 24.8557 16.7563 26.7573 19.0906 26.7454L19.2019 26.4814C19.2292 26.3846 19.2539 26.2994 19.2806 26.2111C20.309 22.8017 21.7114 22.0439 21.1554 17.3651C21.0768 16.7036 20.9024 15.5032 20.6884 14.9301C20.4133 14.1936 19.9459 13.752 19.037 13.646C17.6073 13.4792 15.4075 14.3762 14.6498 15.0768Z" fill="#336791"/>
<path fill-rule="evenodd" clip-rule="evenodd" d="M33.1452 14.0432C34.9678 13.7438 34.2862 15.1371 33.3711 15.2992C32.878 15.3865 32.32 15.0555 32.2124 14.7406C32.0667 14.3146 32.7744 14.1042 33.1452 14.0432ZM34.8686 24.4799C35.2259 23.946 35.4033 22.7317 35.4077 21.977C35.4134 21.0137 35.2697 20.071 35.1665 19.1307C34.845 16.1991 35.4776 15.4071 35.479 13.4995C31.4915 13.0767 30.5306 14.3929 31.7468 18.1109C32.2973 19.7937 32.9057 20.7452 33.6326 22.1589L34.8686 24.4799Z" fill="#336791"/>
<path fill-rule="evenodd" clip-rule="evenodd" d="M15.2751 31.4332C15.5663 31.7452 16.69 31.9508 17.2427 31.999C18.7699 32.1323 20.0763 31.7236 21.1137 30.7244C21.2916 30.5532 21.5283 30.2672 21.6974 30.0343C21.9194 29.7283 21.8591 29.2849 21.6921 28.9572C21.3839 28.3519 20.7348 27.9569 20.1883 28.6117C19.6132 29.3009 19.0313 30.1799 18.2665 30.5566C17.2737 31.0456 15.9726 31.0991 15.2751 31.4332Z" fill="#336791"/>
<path fill-rule="evenodd" clip-rule="evenodd" d="M34.4769 29.9745C35.9859 30.5578 38.6133 30.1492 40.0673 29.3736C40.6502 29.0626 40.9236 28.8718 41.4069 28.4486C41.12 28.4617 40.6755 28.5724 40.3645 28.6214C39.0036 28.8357 37.3366 28.9464 36.1077 28.2972C35.6586 28.0599 35.8477 28.0443 35.2528 28.2504C34.5628 28.4895 34.4187 29.1083 34.4769 29.9745Z" fill="#336791"/>
<path fill-rule="evenodd" clip-rule="evenodd" d="M17.912 14.945C17.9962 15.3178 18.507 15.7656 18.9594 15.829C19.5152 15.907 20.0935 15.5352 20.205 15.1784C20.4869 14.2763 17.6811 13.9218 17.912 14.945Z" fill="white"/>
<path fill-rule="evenodd" clip-rule="evenodd" d="M33.1452 14.0432C32.7744 14.1042 32.0667 14.3146 32.2124 14.7407C32.32 15.0555 32.878 15.3865 33.3711 15.2992C34.2863 15.1371 34.9679 13.7438 33.1452 14.0432Z" fill="white"/>
<path fill-rule="evenodd" clip-rule="evenodd" d="M28.9088 3.36169L28.9163 3.24219L28.8101 3.26734L28.9088 3.36169Z" fill="#9EB7CB"/>
</svg>
