<svg width="46" height="46" viewBox="0 0 46 46" fill="none" xmlns="http://www.w3.org/2000/svg">
<path fill-rule="evenodd" clip-rule="evenodd" d="M32.6235 20.5715L34.5675 20.5586L34.5773 25.7827L37.3298 25.7811L37.3363 27.5702L32.6322 27.5699L32.6235 20.5715ZM29.5721 20.5527L31.583 20.5571L31.5985 27.552L29.587 27.5756L29.5721 20.5527ZM12.1717 26.0547C12.478 26.0122 13.005 26.3734 13.2953 26.5513L13.2995 27.4823L12.1582 27.2507L12.1717 26.0547ZM24.9014 27.5297L23.0004 27.5624C22.8268 26.4526 22.9756 23.9651 22.9703 22.7061C22.9624 20.7883 23.9393 20.5436 25.7713 20.5511C27.5905 20.5584 28.6307 20.7328 28.625 22.6309C28.6204 24.1947 28.717 26.0446 28.6109 27.5706L26.7481 27.5739L26.7308 26.3904L24.9082 26.3739L24.9014 27.5297ZM20.6232 25.4065L22.1535 26.9995C22.3413 27.1931 22.5493 27.3429 22.715 27.574C22.0908 27.5667 20.1793 27.7384 19.8073 27.4702C19.3522 27.1419 18.777 26.2584 18.2943 25.9521L18.2814 27.5709L16.4195 27.5691L16.4077 20.5456C17.3408 20.4783 18.5189 20.5439 19.4743 20.553C23.309 20.5899 22.3718 24.1171 21.6083 24.8441C21.1594 25.2715 21.1705 25.1285 20.6232 25.4065ZM12.5603 22.1635C12.8176 22.2913 13.3452 22.648 13.5496 22.8562L13.4532 23.8532C12.9784 23.7679 12.6278 23.4526 12.1963 23.3068L12.5603 22.1635ZM4.49918 24.2853L3.09084 23.8641L3.64286 22.2608L5.00054 22.7894L4.49918 24.2853ZM41.3738 27.5717L37.801 27.5602L37.7941 25.7993C38.4216 25.7433 39.2275 25.7931 39.8736 25.7953C40.566 25.798 41.5887 26.0422 41.5302 25.2382C40.9581 24.9474 39.973 25.0597 39.2358 24.843C38.5614 24.6447 37.9762 24.2271 37.7726 23.6102C37.1945 21.8589 38.2371 20.4421 39.8736 20.4421H42.9677L42.9513 22.3846C42.3187 22.3841 40.2908 22.3037 39.8354 22.4318C39.8405 23.4328 39.7178 22.9053 41.7524 23.0487C43.6139 23.1798 43.5231 25.2886 43.1379 26.6458C42.889 27.5225 42.3585 27.5717 41.3738 27.5717ZM13.5938 20.0058C13.768 19.7367 14.0605 19.4738 14.3143 19.2706L15.0182 20.3868L14.6312 21.1472C14.3561 21.0025 13.7486 20.2651 13.5938 20.0058ZM16.95 17.7252L17.1574 18.2807C16.9234 18.4961 16.6797 18.6941 16.4108 18.8537L16.0065 18.0456L16.95 17.7252ZM5.94681 18.4566C6.13323 18.0909 6.65271 17.5789 6.94517 17.2946C7.42171 17.4848 7.76807 17.8572 8.23498 18.0427C8.1207 18.2947 7.47252 19.1034 7.24523 19.2995C6.83158 19.1369 6.38375 18.6404 5.94681 18.4566ZM19.2496 17.3456C19.6504 17.3566 20.0068 17.3899 20.3464 17.5319L20.2649 18.0358L19.2606 17.9584L19.2496 17.3456ZM4.09334 27.572C4.26631 25.7578 5.8421 22.0799 6.89111 20.5518C8.24354 18.5814 9.63323 17.0699 11.9614 15.8723C15.9398 13.8258 19.5547 15.0036 23.0832 17.2936C23.6309 17.6491 25.461 18.9284 25.7965 19.5076C25.4291 19.6662 25.551 19.7318 25.198 19.4589C24.0774 18.592 22.6183 17.8325 21.2141 17.4416C17.3961 16.3791 13.6456 18.012 12.3036 21.5414C11.3686 24.0009 11.8174 25.4647 11.834 27.5717L4.09334 27.572ZM19.3049 14.4327L20.6151 15.2927L20.3613 15.5996L19.3073 15.083L19.3049 14.4327ZM11.2471 14.2135C11.3803 14.4448 11.4283 14.4961 11.6346 14.7159C11.7888 14.8803 11.8792 15.0329 12.0399 15.2379L10.8456 15.8813C10.634 15.6948 10.0984 15.0287 10.019 14.8146L11.2471 14.2135ZM14.746 14.5483C14.5012 14.368 14.4419 13.7942 14.3983 13.4885L16.0288 13.4841L16.1564 14.5435L14.746 14.5483ZM0.719482 45.2836H45.7242V0.278809H0.719482V45.2836Z" fill="#CC0000"/>
<path fill-rule="evenodd" clip-rule="evenodd" d="M4.09332 27.572L11.8339 27.5718C11.8173 25.4647 11.3686 24.0009 12.3036 21.5415C13.6456 18.012 17.396 16.3791 21.2141 17.4417C22.6183 17.8325 24.0774 18.592 25.198 19.4589C25.5509 19.7318 25.4291 19.6662 25.7965 19.5076C25.4609 18.9284 23.6309 17.6491 23.0832 17.2936C19.5547 15.0036 15.9398 13.8258 11.9614 15.8723C9.6332 17.0699 8.24352 18.5814 6.89109 20.5518C5.84207 22.0799 4.26629 25.7578 4.09332 27.572Z" fill="#FEFEFE"/>
<path fill-rule="evenodd" clip-rule="evenodd" d="M18.407 22.4965L19.9566 22.4954L19.9664 23.7865L18.3775 23.787L18.407 22.4965ZM20.6232 25.4063C21.1706 25.1283 21.1595 25.2713 21.6084 24.8439C22.3719 24.1169 23.3091 20.5897 19.4744 20.5528C18.5189 20.5437 17.3409 20.4781 16.4078 20.5454L16.4196 27.5689L18.2815 27.5707L18.2944 25.9519C18.7771 26.2582 19.3523 27.1417 19.8074 27.47C20.1793 27.7382 22.0909 27.5665 22.7151 27.5738C22.5494 27.3427 22.3414 27.1929 22.1536 26.9993L20.6232 25.4063Z" fill="#FEFEFE"/>
<path fill-rule="evenodd" clip-rule="evenodd" d="M24.9094 22.3946L26.6695 22.4061L26.6714 24.379L24.9038 24.3827L24.9094 22.3946ZM24.9083 26.3738L26.7309 26.3902L26.7482 27.5737L28.611 27.5704C28.7171 26.0445 28.6205 24.1946 28.6251 22.6308C28.6307 20.7327 27.5906 20.5583 25.7713 20.5509C23.9394 20.5435 22.9624 20.7882 22.9704 22.706C22.9757 23.9649 22.8268 26.4524 23.0004 27.5623L24.9015 27.5296L24.9083 26.3738Z" fill="#FEFEFE"/>
<path fill-rule="evenodd" clip-rule="evenodd" d="M41.3737 27.5718C42.3584 27.5718 42.8889 27.5225 43.1378 26.6459C43.5231 25.2887 43.6138 23.1799 41.7523 23.0487C39.7177 22.9053 39.8405 23.4328 39.8353 22.4318C40.2907 22.3037 42.3187 22.3842 42.9513 22.3847L42.9676 20.4421H39.8735C38.2371 20.4421 37.1945 21.859 37.7725 23.6103C37.9761 24.2272 38.5614 24.6447 39.2357 24.8431C39.9729 25.0597 40.9581 24.9474 41.5302 25.2383C41.5886 26.0422 40.5659 25.798 39.8735 25.7954C39.2274 25.7931 38.4215 25.7433 37.794 25.7994L37.801 27.5602L41.3737 27.5718Z" fill="#FEFEFE"/>
<path fill-rule="evenodd" clip-rule="evenodd" d="M32.6323 27.5699L37.3363 27.5702L37.3298 25.7811L34.5773 25.7827L34.5675 20.5586L32.6235 20.5716L32.6323 27.5699Z" fill="#FEFEFE"/>
<path fill-rule="evenodd" clip-rule="evenodd" d="M29.587 27.5757L31.5985 27.552L31.583 20.5571L29.5721 20.5527L29.587 27.5757Z" fill="#FEFEFE"/>
<path fill-rule="evenodd" clip-rule="evenodd" d="M24.9038 24.3826L26.6714 24.3789L26.6695 22.406L24.9094 22.3945L24.9038 24.3826Z" fill="#CC0000"/>
<path fill-rule="evenodd" clip-rule="evenodd" d="M5.94684 18.4565C6.38377 18.6403 6.83161 19.1367 7.24526 19.2994C7.47255 19.1032 8.12072 18.2945 8.23501 18.0426C7.76809 17.8571 7.42173 17.4847 6.9452 17.2944C6.65274 17.5788 6.13325 18.0908 5.94684 18.4565Z" fill="#FEFEFE"/>
<path fill-rule="evenodd" clip-rule="evenodd" d="M5.00046 22.7894L3.64278 22.2607L3.09076 23.8641L4.49911 24.2853L5.00046 22.7894Z" fill="#FEFEFE"/>
<path fill-rule="evenodd" clip-rule="evenodd" d="M18.3775 23.7872L19.9663 23.7867L19.9566 22.4956L18.407 22.4967L18.3775 23.7872Z" fill="#CC0000"/>
<path fill-rule="evenodd" clip-rule="evenodd" d="M10.0189 14.8147C10.0984 15.0288 10.634 15.6948 10.8455 15.8814L12.0399 15.238C11.8791 15.033 11.7888 14.8803 11.6346 14.716C11.4282 14.4961 11.3802 14.4448 11.2471 14.2136L10.0189 14.8147Z" fill="#FEFEFE"/>
<path fill-rule="evenodd" clip-rule="evenodd" d="M14.7458 14.5483L16.1563 14.5435L16.0287 13.4841L14.3981 13.4885C14.4417 13.7942 14.501 14.368 14.7458 14.5483Z" fill="#FEFEFE"/>
<path fill-rule="evenodd" clip-rule="evenodd" d="M12.1963 23.3068C12.6279 23.4527 12.9784 23.768 13.4532 23.8532L13.5497 22.8563C13.3452 22.6481 12.8176 22.2913 12.5603 22.1636L12.1963 23.3068Z" fill="#FEFEFE"/>
<path fill-rule="evenodd" clip-rule="evenodd" d="M13.5938 20.0057C13.7486 20.265 14.3561 21.0024 14.6312 21.1471L15.0182 20.3867L14.3143 19.2705C14.0605 19.4737 13.768 19.7366 13.5938 20.0057Z" fill="#FEFEFE"/>
<path fill-rule="evenodd" clip-rule="evenodd" d="M12.1582 27.2505L13.2996 27.4821L13.2953 26.5511C13.005 26.3731 12.478 26.012 12.1717 26.0545L12.1582 27.2505Z" fill="#FEFEFE"/>
<path fill-rule="evenodd" clip-rule="evenodd" d="M16.0064 18.0455L16.4107 18.8536C16.6796 18.694 16.9233 18.496 17.1573 18.2806L16.9499 17.7251L16.0064 18.0455Z" fill="#FEFEFE"/>
<path fill-rule="evenodd" clip-rule="evenodd" d="M19.3073 15.083L20.3613 15.5995L20.6151 15.2927L19.3049 14.4326L19.3073 15.083Z" fill="#FEFEFE"/>
<path fill-rule="evenodd" clip-rule="evenodd" d="M19.2606 17.9583L20.2649 18.0357L20.3464 17.5318C20.0068 17.3898 19.6504 17.3565 19.2496 17.3455L19.2606 17.9583Z" fill="#FEFEFE"/>
</svg>
