<svg width="42" height="42" viewBox="0 0 42 42" fill="none" xmlns="http://www.w3.org/2000/svg">
<path d="M38.2764 0.733398H3.27816C1.64472 0.733398 0.320557 2.05756 0.320557 3.69101V38.6892C0.320557 40.3226 1.64472 41.6468 3.27816 41.6468H38.2764C39.9098 41.6468 41.234 40.3226 41.234 38.6892V3.69101C41.234 2.05756 39.9098 0.733398 38.2764 0.733398Z" fill="#61DAFB"/>
<path fill-rule="evenodd" clip-rule="evenodd" d="M21.6677 29.9827L22.9348 28.5136C23.3267 28.0117 23.7515 27.481 24.1072 26.9498C24.9388 26.9498 27.2103 26.5321 27.9642 26.3565C28.3365 27.9546 28.9975 31.3009 27.5286 32.514C26.477 33.3825 24.4727 32.2471 23.6982 31.7104C22.93 31.1781 22.7307 30.962 22.139 30.4675C22.028 30.3746 21.7387 30.0886 21.6677 29.9827ZM15.2065 32.8178C14.423 32.8178 13.9483 32.6842 13.5358 31.917C12.9634 30.8523 13.0926 28.977 13.2847 27.7972C13.335 27.4883 13.4932 26.5936 13.5911 26.3894L13.7742 26.4014C14.6837 26.5891 16.6215 26.9499 17.4481 26.9499L19.8876 29.9827C19.724 30.227 19.3627 30.492 19.1876 30.6672C18.9535 30.9016 18.1289 31.5221 17.8572 31.7104C17.3025 32.0947 16.0874 32.8178 15.2065 32.8178ZM19.0964 27.0817C19.4768 27.0817 19.7342 27.1147 20.1183 27.1147H21.437C21.8211 27.1147 22.0785 27.0817 22.4589 27.0817C22.2698 27.3641 21.6036 28.1621 21.3283 28.4895C21.2857 28.5401 21.2582 28.559 21.2142 28.6061L20.7777 29.0926C20.6781 29.0259 20.2594 28.5093 20.126 28.3597L19.0964 27.0817ZM25.0303 25.5983L25.8857 24.1791C25.956 24.0563 26.0162 23.9423 26.0869 23.8198C26.1527 23.7056 26.2166 23.5813 26.2893 23.4618L26.7445 22.6972L27.2101 23.9129C27.2756 24.1103 27.3506 24.3016 27.4243 24.5228C27.496 24.7378 27.586 24.9614 27.6346 25.1697C27.5204 25.1722 25.5325 25.5983 25.0303 25.5983ZM14.8109 22.6972H14.8768C14.9116 22.8466 14.9863 22.9466 15.0607 23.074L16.0859 24.8836C16.2349 25.134 16.3919 25.3464 16.5251 25.5983C16.0262 25.5983 14.0349 25.1722 13.9208 25.1697C14.0499 24.6156 14.7876 22.8038 14.8109 22.6972ZM28.8213 17.5546C29.1123 17.5774 30.1639 17.966 30.4649 18.0867C30.9967 18.3 31.4487 18.517 31.9418 18.7856C32.3673 19.0174 32.8638 19.3709 33.1976 19.7056C34.1605 20.6716 34.2451 21.6516 33.2471 22.6397C32.3479 23.53 30.8993 24.175 29.6826 24.5805C29.4773 24.6489 29.043 24.8216 28.8213 24.84C28.8036 24.6271 28.5983 24.123 28.5204 23.8882L27.8232 22.0801C27.7721 21.9608 27.4495 21.24 27.4475 21.2095C27.4426 21.1331 27.7509 20.4691 27.8107 20.335C27.9459 20.0316 28.0465 19.7549 28.1715 19.4431C28.2938 19.1381 28.4069 18.8497 28.5123 18.5312C28.5732 18.3469 28.8101 17.6898 28.8213 17.5546ZM18.1404 16.5986C18.7768 16.5986 19.3292 16.5326 19.9865 16.5326C20.4556 16.5326 23.2103 16.5159 23.4149 16.6314C23.4735 16.6767 23.7478 17.1147 23.8172 17.2182C24.2558 17.8718 25.1963 19.4674 25.5471 20.1695C25.6115 20.2984 25.6628 20.4021 25.7225 20.5215C26.1136 21.3037 26.2059 21.0225 25.5142 22.2581C25.4454 22.381 25.4032 22.4822 25.3384 22.6098L24.5826 23.9309C24.446 24.1636 24.3329 24.3671 24.1865 24.5897C24.0424 24.8089 23.9266 24.9955 23.7841 25.2092C23.2415 26.0233 23.5017 25.7088 22.7976 25.8051C22.2431 25.8809 20.3994 25.8602 19.7879 25.8628L18.7858 25.8099C18.6166 25.7844 18.4446 25.813 18.2833 25.785C18.0914 25.7518 18.09 25.6921 18.0083 25.5655L17.3822 24.6093C17.3157 24.5087 17.2625 24.4153 17.195 24.3019L16.605 23.3099C16.5822 23.2728 16.5723 23.2563 16.5579 23.229L16.0527 22.2795C15.9846 22.153 15.9293 22.0667 15.8657 21.9391C15.811 21.829 15.756 21.7194 15.7009 21.6094C15.4264 21.0603 15.4463 21.3047 15.9865 20.2137L17.7249 17.2379C17.8657 17.0276 18.0276 16.8117 18.1404 16.5986ZM12.734 24.84C12.158 24.7921 10.1127 23.8839 9.60055 23.5891C9.12379 23.3146 8.70583 23.035 8.32472 22.6561C7.65381 21.989 7.3448 21.2462 7.84426 20.3459C8.42082 19.3065 10.0226 18.5138 11.0668 18.0961C11.3482 17.9836 12.4589 17.5607 12.734 17.5546C12.7776 18.0792 14.1077 21.1859 14.1077 21.1859L13.5205 22.5985C13.5175 22.6061 13.5141 22.6148 13.5111 22.6223C13.3677 22.9809 12.7586 24.5445 12.734 24.84ZM25.0303 16.7964C25.3639 16.7964 25.9924 16.9186 26.363 16.98C26.5954 17.0186 26.7868 17.0518 27.0057 17.0956C27.1924 17.133 27.4483 17.2095 27.6346 17.2249L26.6785 19.6974C26.6107 19.406 25.6511 17.8183 25.4691 17.5113C25.3228 17.2645 25.1829 17.0243 25.0303 16.7964ZM14.8768 19.6974L14.0238 17.5505C13.9923 17.4567 13.9562 17.2987 13.9208 17.2249C14.107 17.2095 14.363 17.133 14.5496 17.0956C14.9582 17.0138 16.1651 16.7964 16.5251 16.7964C16.3704 17.0887 15.8876 17.8078 15.668 18.2139C15.5452 18.4409 14.9294 19.4716 14.8768 19.6974ZM19.0964 15.3129C19.439 14.8013 20.1153 14.0391 20.5549 13.5407C20.6524 13.4301 20.6479 13.3889 20.7777 13.302C20.9075 13.3889 20.9029 13.4301 21.0004 13.5407L22.059 14.7898C22.2025 14.9699 22.3307 15.1214 22.4589 15.3129C22.2287 15.3129 22.1372 15.28 21.8985 15.28H19.6568C19.4181 15.28 19.3267 15.3129 19.0964 15.3129ZM21.6677 12.379C21.7539 12.2503 22.6634 11.4645 22.8648 11.3014C23.0206 11.1754 23.1539 11.0749 23.3113 10.9567C24.6478 9.95267 27.4263 8.39256 28.2072 10.9162C28.691 12.48 28.318 14.5198 27.9642 16.0381C27.601 15.8639 25.2495 15.5549 24.7856 15.4916C24.5916 15.4652 24.3964 15.4695 24.2121 15.4387C24.0391 15.4099 24.0339 15.3216 23.8955 15.129C23.6655 14.8088 22.3583 13.1176 21.9567 12.7163C21.8585 12.6183 21.7409 12.4882 21.6677 12.379ZM13.5911 16.0382C13.4821 15.5703 13.3789 15.1238 13.2944 14.6207C13.0589 13.2197 12.7878 10.1436 14.5018 9.63038C15.8533 9.22566 17.9175 10.594 18.8734 11.4482L19.8876 12.379L18.7477 13.7115C18.3725 14.186 18.0142 14.6357 17.6598 15.129C17.6101 15.1983 17.5876 15.2417 17.5396 15.3055C17.3798 15.5181 17.2367 15.4325 16.7984 15.4873C16.3589 15.5423 13.9433 15.8692 13.5911 16.0382ZM11.8769 12.379C11.8769 13.9123 11.9809 14.5102 12.2807 15.931C12.3046 16.0445 12.3606 16.2058 12.3714 16.3348L11.345 16.6601C10.2031 17.0381 8.9332 17.6555 7.98636 18.3781C6.37717 19.6062 5.72544 21.4187 7.09231 23.1303C7.38853 23.5012 7.75937 23.8378 8.14206 24.1245C8.21639 24.1802 8.25597 24.2065 8.33649 24.2597C8.42176 24.316 8.47741 24.3642 8.54902 24.4098L9.40419 24.9062C9.85807 25.1312 11.8746 26.0157 12.3714 26.0268C12.3672 26.2139 11.8769 27.954 11.8769 29.4223C11.8769 30.6808 11.9781 31.839 12.5954 32.7585C12.8408 33.1241 13.0953 33.4239 13.4815 33.6526C15.191 34.6647 17.2359 33.6634 18.6681 32.6531C19.3477 32.1737 19.5375 31.9641 20.0334 31.579L20.3258 31.311C20.3985 31.2503 20.4168 31.2487 20.4899 31.1783C20.5922 31.0799 20.6649 30.9812 20.7776 30.9057L21.6265 31.6722C21.694 31.7365 21.7056 31.7382 21.7713 31.7912C22.1802 32.1214 22.7213 32.5725 23.1777 32.8571C24.0292 33.3882 25.2634 34.0704 26.3488 34.0704C27.0828 34.0704 27.4247 34.0369 28.0528 33.6646C28.4443 33.4325 28.6986 33.1493 28.9467 32.7783C30 31.2034 29.7172 28.6486 29.357 26.8425C29.3193 26.6536 29.3072 26.59 29.2698 26.4372C29.2361 26.2994 29.1871 26.1675 29.1839 26.0268C29.4844 26.0201 30.9339 25.4603 31.2041 25.3437C31.8753 25.0541 32.4263 24.7792 33.0063 24.4098C33.0733 24.3671 33.1219 24.3242 33.1988 24.2727C33.273 24.2231 33.3223 24.1924 33.3945 24.1387C33.5384 24.0318 33.6403 23.9426 33.7764 23.8283C34.7403 23.0183 35.4276 21.9032 35.1373 20.6009C35.0923 20.3991 35.041 20.2523 34.9643 20.0815C34.7139 19.5235 34.2648 18.9299 33.7853 18.5574L32.9882 17.9699C32.8462 17.8748 32.7234 17.7974 32.5794 17.7194C32.4979 17.6753 32.4579 17.6432 32.3708 17.5993C32.3225 17.575 32.3048 17.5703 32.2608 17.5486C32.2118 17.5243 32.1823 17.506 32.1288 17.4779C31.8156 17.3134 31.5474 17.1877 31.209 17.0459L29.7155 16.4954C29.5826 16.4549 29.2986 16.3898 29.1839 16.3348L29.5042 14.7432C29.7729 13.1461 29.8658 10.5789 28.7305 9.30502C28.4153 8.9514 28.0468 8.64889 27.5487 8.47594C25.5829 7.79351 23.2623 9.34009 21.8553 10.5227C21.7944 10.5739 21.7867 10.5699 21.7259 10.6241C21.6667 10.6769 21.6564 10.6964 21.5879 10.7497L20.7776 11.4888C20.6062 11.3741 20.4565 11.162 20.2641 11.0135L19.4487 10.3123C18.4657 9.51217 17.0869 8.64264 15.8033 8.38665C13.1597 7.85949 11.8769 10.005 11.8769 12.379Z" fill="white"/>
<path fill-rule="evenodd" clip-rule="evenodd" d="M18.1735 21.148C18.1735 21.526 18.2751 21.9381 18.3945 22.2126C19.2971 24.2871 22.2066 24.3304 23.151 22.2355C23.2145 22.0946 23.2717 21.9187 23.3083 21.7664C23.5871 20.6066 22.9768 19.396 21.9537 18.8842C20.8988 18.3566 19.7527 18.5707 18.9069 19.409C18.4817 19.8304 18.1735 20.5449 18.1735 21.148Z" fill="white"/>
</svg>
