<svg width="47" height="40" viewBox="0 0 47 40" fill="none" xmlns="http://www.w3.org/2000/svg">
<path fill-rule="evenodd" clip-rule="evenodd" d="M24.9792 33.5784L26.991 31.3079C27.6132 30.5323 28.2878 29.712 28.8526 28.8911C30.1729 28.8911 33.7795 28.2455 34.9765 27.9741C35.5677 30.444 36.6172 35.6158 34.2849 37.4906C32.6153 38.8328 29.4328 37.078 28.2031 36.2486C26.9834 35.4259 26.6669 35.092 25.7275 34.3276C25.5512 34.1842 25.0919 33.7421 24.9792 33.5784ZM14.7203 37.96C13.4763 37.96 12.7226 37.7536 12.0677 36.568C11.1588 34.9223 11.3639 32.0241 11.6689 30.2007C11.7488 29.7232 12 28.3405 12.1555 28.025L12.4462 28.0434C13.8902 28.3335 16.967 28.8911 18.2795 28.8911L22.1528 33.5784C21.893 33.956 21.3193 34.3655 21.0413 34.6364C20.6696 34.9986 19.3603 35.9576 18.929 36.2486C18.0483 36.8425 16.1189 37.96 14.7203 37.96ZM20.8966 29.0949C21.5006 29.0949 21.9093 29.1458 22.5192 29.1458H24.6129C25.2228 29.1458 25.6315 29.0949 26.2354 29.0949C25.9352 29.5313 24.8775 30.7648 24.4404 31.2707C24.3727 31.3489 24.329 31.3782 24.2592 31.4509L23.566 32.2028C23.4079 32.0997 22.7431 31.3013 22.5314 31.07L20.8966 29.0949ZM30.3181 26.8022L31.6764 24.6089C31.7879 24.4191 31.8836 24.243 31.9958 24.0536C32.1003 23.8771 32.2018 23.685 32.3172 23.5004L33.0399 22.3187L33.7791 24.1975C33.8831 24.5026 34.0022 24.7982 34.1193 25.1401C34.2332 25.4724 34.3761 25.818 34.4531 26.1399C34.272 26.1438 31.1155 26.8022 30.3181 26.8022ZM14.0921 22.3187H14.1968C14.2521 22.5496 14.3708 22.704 14.4888 22.901L16.1166 25.6978C16.3531 26.0848 16.6024 26.413 16.8139 26.8022C16.0218 26.8022 12.86 26.1438 12.6789 26.1399C12.8839 25.2835 14.0552 22.4834 14.0921 22.3187ZM36.3374 14.3707C36.7995 14.4059 38.4692 15.0065 38.9471 15.1931C39.7913 15.5227 40.509 15.8581 41.292 16.2733C41.9676 16.6315 42.756 17.1777 43.2858 17.6951C44.8148 19.1881 44.9492 20.7027 43.3645 22.2298C41.9368 23.6056 39.6368 24.6027 37.705 25.2293C37.3789 25.335 36.6894 25.6019 36.3374 25.6304C36.3093 25.3013 35.9834 24.5221 35.8597 24.1594L34.7527 21.3648C34.6714 21.1804 34.1592 20.0665 34.1562 20.0195C34.1483 19.9013 34.6378 18.8751 34.7327 18.6678C34.9474 18.199 35.1071 17.7712 35.3056 17.2894C35.4998 16.818 35.6795 16.3723 35.8467 15.88C35.9435 15.5951 36.3196 14.5797 36.3374 14.3707ZM19.3787 12.8932C20.3891 12.8932 21.2662 12.7912 22.3098 12.7912C23.0546 12.7912 27.4284 12.7654 27.7533 12.9439C27.8463 13.0139 28.2818 13.6908 28.3921 13.8508C29.0885 14.861 30.5818 17.3269 31.1388 18.412C31.241 18.6113 31.3224 18.7714 31.4173 18.9561C32.0382 20.1649 32.1847 19.7303 31.0865 21.64C30.9773 21.8299 30.9102 21.9863 30.8074 22.1836L29.6074 24.2253C29.3904 24.5849 29.2109 24.8994 28.9785 25.2435C28.7497 25.5822 28.5658 25.8706 28.3395 26.201C27.4779 27.4591 27.8911 26.973 26.7732 27.1218C25.8928 27.239 22.9655 27.2071 21.9946 27.211L20.4034 27.1294C20.1348 27.0899 19.8617 27.1341 19.6055 27.0909C19.3008 27.0395 19.2986 26.9473 19.1689 26.7517L18.1748 25.2737C18.0692 25.1183 17.9848 24.974 17.8776 24.7987L16.9407 23.2656C16.9047 23.2083 16.8889 23.1827 16.866 23.1406L16.0639 21.6731C15.9558 21.4776 15.8679 21.3442 15.767 21.1469C15.6801 20.9767 15.5927 20.8074 15.5054 20.6374C15.0695 19.7888 15.1011 20.1664 15.9588 18.4804L18.7189 13.8813C18.9424 13.5561 19.1996 13.2225 19.3787 12.8932ZM10.7946 25.6304C9.88014 25.5563 6.63256 24.1527 5.81941 23.697C5.06245 23.2727 4.39886 22.8407 3.79374 22.2551C2.72845 21.2241 2.23782 20.0761 3.03086 18.6846C3.94633 17.0783 6.48963 15.8531 8.14753 15.2076C8.59435 15.0337 10.3579 14.3802 10.7946 14.3707C10.8639 15.1814 12.9758 19.9829 12.9758 19.983L12.0433 22.1661C12.0386 22.1779 12.0332 22.1913 12.0284 22.2029C11.8007 22.757 10.8337 25.1736 10.7946 25.6304ZM30.3181 13.1988C30.8479 13.1988 31.8457 13.3877 32.4342 13.4827C32.8031 13.5422 33.107 13.5936 33.4546 13.6613C33.751 13.719 34.1575 13.8372 34.4531 13.8612L32.9352 17.6824C32.8274 17.232 31.3038 14.7782 31.0149 14.3038C30.7825 13.9223 30.5604 13.5511 30.3181 13.1988ZM14.1968 17.6824L12.8424 14.3644C12.7924 14.2194 12.7351 13.9752 12.6789 13.8612C12.9746 13.8372 13.3811 13.719 13.6774 13.6613C14.3261 13.5349 16.2423 13.1988 16.8139 13.1988C16.5683 13.6506 15.8017 14.7621 15.453 15.3897C15.2582 15.7404 14.2804 17.3334 14.1968 17.6824ZM20.8966 10.9061C21.4406 10.1154 22.5142 8.9375 23.2123 8.16722C23.3672 7.99627 23.3599 7.9326 23.566 7.79826C23.7721 7.9326 23.7648 7.99627 23.9197 8.16722L25.6005 10.0977C25.8283 10.376 26.0319 10.6102 26.2354 10.9061C25.8699 10.9061 25.7247 10.8552 25.3456 10.8552H21.7864C21.4073 10.8552 21.2622 10.9061 20.8966 10.9061ZM24.9792 6.37172C25.1161 6.17282 26.5601 4.95834 26.88 4.70641C27.1273 4.51165 27.3389 4.35629 27.5888 4.17354C29.7108 2.62189 34.1225 0.210703 35.3623 4.11107C36.1305 6.52785 35.5382 9.68042 34.9765 12.027C34.3998 11.7577 30.6662 11.2801 29.9296 11.1824C29.6217 11.1415 29.3118 11.1482 29.0191 11.1006C28.7444 11.0561 28.7361 10.9197 28.5164 10.6219C28.1512 10.127 26.0757 7.51322 25.438 6.89314C25.2822 6.74162 25.0953 6.54045 24.9792 6.37172ZM12.1555 12.027C11.9825 11.3039 11.8185 10.6138 11.6843 9.83638C11.3104 7.67102 10.8799 2.91689 13.6013 2.12371C15.7472 1.49821 19.0247 3.61302 20.5424 4.93321L22.1528 6.37172L20.3429 8.43116C19.7472 9.16456 19.1782 9.8595 18.6156 10.6219C18.5366 10.7291 18.501 10.796 18.4248 10.8947C18.171 11.2233 17.9437 11.0909 17.2478 11.1757C16.55 11.2607 12.7146 11.7659 12.1555 12.027ZM9.43371 6.37172C9.43371 8.74146 9.5988 9.66559 10.0748 11.8615C10.1128 12.0369 10.2018 12.2861 10.2188 12.4856L8.58922 12.9882C6.7761 13.5724 4.75983 14.5267 3.25649 15.6435C0.70151 17.5415 -0.333315 20.3428 1.83695 22.9881C2.30726 23.5613 2.89609 24.0815 3.50367 24.5246C3.62175 24.6107 3.68457 24.6513 3.8124 24.7335C3.94777 24.8205 4.03614 24.895 4.14983 24.9655L5.5077 25.7327C6.22831 26.0805 9.43015 27.4475 10.2188 27.4646C10.2122 27.7538 9.43371 30.4431 9.43371 32.7123C9.43371 34.6573 9.5945 36.4473 10.5746 37.8685C10.9642 38.4335 11.3682 38.8969 11.9815 39.2503C14.6957 40.8145 17.9426 39.2671 20.2165 37.7056C21.2955 36.9647 21.5969 36.6408 22.3843 36.0455L22.8487 35.6314C22.9639 35.5376 22.993 35.5351 23.1091 35.4263C23.2715 35.2741 23.387 35.1217 23.566 35.005L24.9138 36.1896C25.021 36.289 25.0394 36.2915 25.1436 36.3735C25.793 36.8839 26.6521 37.5811 27.3767 38.021C28.7287 38.8417 30.6883 39.8961 32.4118 39.8961C33.5771 39.8961 34.1199 39.8444 35.1173 39.2688C35.7388 38.9103 36.1425 38.4725 36.5365 37.899C38.2088 35.4651 37.7599 31.5166 37.188 28.7254C37.1281 28.4333 37.1088 28.3351 37.0496 28.0989C36.9961 27.8859 36.9181 27.682 36.9132 27.4646C37.3903 27.4542 39.6918 26.5891 40.1207 26.4089C41.1865 25.9612 42.0613 25.5365 42.9822 24.9655C43.0886 24.8995 43.1657 24.8331 43.2879 24.7536C43.4057 24.677 43.4839 24.6296 43.5986 24.5466C43.8271 24.3812 43.9888 24.2435 44.2049 24.0667C45.7353 22.815 46.8266 21.0915 46.3657 19.0788C46.2943 18.7669 46.2128 18.5401 46.0911 18.2761C45.6934 17.4137 44.9804 16.4963 44.219 15.9206L42.9535 15.0125C42.7281 14.8656 42.5331 14.7459 42.3044 14.6254C42.175 14.5572 42.1114 14.5077 41.9731 14.4398C41.8966 14.4022 41.8683 14.395 41.7986 14.3614C41.7208 14.3239 41.6739 14.2956 41.589 14.2522C41.0917 13.998 40.6658 13.8037 40.1285 13.5846L37.7573 12.7336C37.5461 12.6711 37.0953 12.5706 36.9132 12.4856L37.4218 10.0256C37.8483 7.55731 37.9959 3.58965 36.1932 1.62092C35.6928 1.07442 35.1077 0.606884 34.3168 0.339573C31.1957 -0.715144 27.511 1.6751 25.2771 3.50278C25.1804 3.58192 25.1682 3.57576 25.0717 3.65951C24.9776 3.74112 24.9612 3.77138 24.8524 3.85367L23.566 4.99607C23.2937 4.81861 23.0561 4.49093 22.7506 4.2613L21.4561 3.17774C19.8951 1.94105 17.706 0.597184 15.6679 0.201559C11.4705 -0.61315 9.43371 2.70277 9.43371 6.37172Z" fill="#61DAFB"/>
<path fill-rule="evenodd" clip-rule="evenodd" d="M19.4309 19.9242C19.4309 20.5084 19.5922 21.1453 19.7819 21.5696C21.215 24.7758 25.8346 24.8426 27.334 21.605C27.4349 21.3872 27.5256 21.1154 27.5838 20.8801C28.0265 19.0875 27.0575 17.2165 25.433 16.4255C23.7582 15.6101 21.9383 15.941 20.5954 17.2365C19.9203 17.8879 19.4309 18.9921 19.4309 19.9242Z" fill="#61DAFB"/>
</svg>
