<svg width="42" height="46" viewBox="0 0 42 46" fill="none" xmlns="http://www.w3.org/2000/svg">
<path fill-rule="evenodd" clip-rule="evenodd" d="M21.7906 42.6556L21.7907 35.7909C21.9809 35.6396 22.5102 35.3767 22.76 35.2507L25.8118 33.6186C26.4704 33.2497 27.1562 32.8807 27.8352 32.5354C28.2928 32.3026 31.6993 30.3849 31.9022 30.4366L37.3997 33.5182C37.5537 33.605 37.7919 33.6994 37.8971 33.844C37.6059 33.9425 37.1753 34.2187 36.8874 34.3747L27.8284 39.3631C27.2055 39.712 21.9671 42.6212 21.7906 42.6556ZM4.26821 33.7901C4.74515 33.5792 8.38839 31.4656 9.19746 31.0253C10.435 30.352 10.1329 30.2998 10.7139 30.6044C10.8747 30.6887 11.0596 30.7896 11.2317 30.8764C13.5359 32.0387 16.0004 33.4905 18.3301 34.6751C19.0172 35.0245 19.6723 35.4393 20.3609 35.7543L20.3742 42.6677L16.3525 40.4723C15.6713 40.0957 15.0359 39.7347 14.3516 39.3676C12.3414 38.2892 10.2815 37.0889 8.27916 36.0278C7.60097 35.6684 6.93759 35.295 6.27692 34.9245C5.93755 34.7343 4.44785 33.9512 4.26821 33.7901ZM33.1268 29.5028L33.1211 17.6101C33.15 17.5405 38.8989 14.3215 39.022 14.3011V32.8067C38.984 32.799 33.5466 29.8346 33.1268 29.5028ZM3.14961 32.8198L3.15701 14.2831C4.52963 15.1047 6.15997 15.9365 7.60278 16.7744L8.70063 17.3916C8.7677 17.4278 8.82114 17.4525 8.87967 17.4896C9.03011 17.5848 9.0441 17.5863 9.0441 17.7468V29.4572C8.96444 29.6241 8.51734 29.8159 8.33937 29.9162L4.62934 32.0007C4.37455 32.1408 4.12961 32.2746 3.88588 32.4166C3.67646 32.5386 3.36508 32.7323 3.14961 32.8198ZM21.7942 34.1733L21.7907 23.9632L31.6835 18.3925C31.7359 18.7695 31.7219 28.7414 31.7045 28.8193C31.6338 28.97 31.7409 28.8375 31.592 28.9491L29.2696 30.1949C28.8305 30.4166 28.4628 30.6304 28.0329 30.8588C27.609 31.0841 27.1784 31.2982 26.7612 31.5358C26.5041 31.6821 22.0254 34.1095 21.7942 34.1733ZM10.4633 18.4049C10.7287 18.4828 18.1845 22.7359 19.1182 23.2451C19.4925 23.4492 20.0068 23.7904 20.3729 23.934L20.3737 34.1809L16.1708 31.9468C14.5446 31.0207 12.6061 30.0468 10.8878 29.1159C10.3494 28.8243 10.4606 29.0605 10.4606 27.9536C10.4606 24.8793 10.3872 21.382 10.4633 18.4049ZM11.1549 17.1566L16.1009 14.5056C16.6705 14.2183 20.9436 11.8685 21.0776 11.8611C21.0891 11.8604 30.5915 16.8859 30.9922 17.1545L30.717 17.3422C30.6012 17.4045 30.5379 17.4456 30.4215 17.5098C30.2068 17.6281 30.0234 17.7381 29.8012 17.8619C29.3949 18.0881 28.9558 18.3284 28.5488 18.5584C27.5589 19.1179 21.1778 22.7347 21.0753 22.7305L12.3793 17.8665C12.1228 17.7179 11.3088 17.3095 11.1549 17.1566ZM21.7909 3.99436C21.9746 4.01879 25.4538 5.97285 25.9214 6.23403L32.1083 9.64294C32.8098 10.0255 33.4977 10.3868 34.1725 10.7781C34.8447 11.1679 35.5668 11.5224 36.2387 11.9119L38.3046 13.0367L38.2221 13.1146C38.2145 13.1206 38.2025 13.1304 38.194 13.1367C38.1717 13.1534 38.1117 13.1902 38.0792 13.209C37.969 13.2725 37.919 13.2938 37.811 13.3567L33.2407 15.9251C32.3664 16.4352 32.5137 16.3948 32.1663 16.195C31.5148 15.8203 30.7478 15.4216 30.0788 15.0814C28.6609 14.3602 27.3366 13.5841 25.9454 12.8638L21.7906 10.626L21.7909 3.99436ZM3.85925 13.0644L14.1656 7.38126C14.8739 7.00141 15.5205 6.62148 16.226 6.24374C16.6853 5.99785 20.0409 4.11034 20.3737 3.97723L20.3742 10.6602C20.0828 10.7601 19.6559 11.0372 19.3457 11.194L10.013 16.1897C9.5723 16.4199 9.68699 16.3463 8.96814 15.9468L3.85925 13.0644ZM0.658691 12.1422V34.5151C0.658691 34.6672 1.00622 34.7869 1.23533 34.9107L4.43485 36.6718C5.82016 37.3909 7.51364 38.4212 8.91307 39.1477L12.1131 40.9084C12.5563 41.1495 12.9724 41.363 13.4004 41.6146L15.9752 43.0271C16.3997 43.277 16.8178 43.4995 17.2607 43.735L20.4603 45.4962C20.6796 45.6065 20.8961 45.7481 21.1154 45.861L28.8016 41.6322C29.2261 41.3822 29.6442 41.1598 30.0871 40.9242C30.3105 40.8055 30.5 40.687 30.7118 40.5754L41.3011 34.7525C41.4192 34.6858 41.5721 34.6472 41.5721 34.5151V12.1422C41.5721 11.9891 41.2207 11.8374 41.0106 11.7318C40.3368 11.3932 39.4593 10.8456 38.7945 10.5169L30.1232 5.74356C29.901 5.61563 29.7128 5.50847 29.4944 5.39869L24.3255 2.55296C24.3168 2.54821 24.3049 2.54167 24.2961 2.53688L23.6922 2.20676C23.4091 2.04751 21.2232 0.816895 21.1154 0.816895C20.9682 0.816895 18.641 2.14772 18.094 2.45068C18.0851 2.4556 18.0729 2.46171 18.0638 2.46659C18.0545 2.47151 18.0422 2.47731 18.0328 2.48223C18.0043 2.49694 17.9731 2.51083 17.9373 2.53016C17.7185 2.64807 17.5059 2.7768 17.2765 2.89203C16.8454 3.10876 16.4387 3.3771 15.9974 3.60621C15.1101 4.06676 14.3033 4.54963 13.4222 5.01827L3.82581 10.3039C3.59143 10.4285 3.39618 10.5321 3.16658 10.6647L0.922683 11.8979C0.802581 11.9587 0.658691 11.9932 0.658691 12.1422Z" fill="white"/>
<path fill-rule="evenodd" clip-rule="evenodd" d="M11.1549 17.1568C11.3087 17.3098 12.1227 17.7182 12.3792 17.8667L21.0753 22.7307C21.1778 22.735 27.5588 19.1182 28.5488 18.5587C28.9557 18.3287 29.3949 18.0884 29.8011 17.8621C30.0234 17.7383 30.2068 17.6283 30.4215 17.51C30.5379 17.4459 30.6012 17.4047 30.717 17.3425L30.9922 17.1547C30.5915 16.8862 21.0891 11.8607 21.0775 11.8613C20.9435 11.8688 16.6705 14.2185 16.1009 14.5059L11.1549 17.1568Z" fill="#1C78C0"/>
<path fill-rule="evenodd" clip-rule="evenodd" d="M10.4633 18.405C10.3873 21.3821 10.4606 24.8794 10.4606 27.9537C10.4606 29.0606 10.3495 28.8244 10.8878 29.116C12.6061 30.0469 14.5447 31.0208 16.1708 31.9469L20.3738 34.181L20.373 23.9341C20.0068 23.7905 19.4925 23.4493 19.1183 23.2452C18.1845 22.736 10.7287 18.4829 10.4633 18.405Z" fill="#1C78C0"/>
<path fill-rule="evenodd" clip-rule="evenodd" d="M21.7941 34.1734C22.0254 34.1096 26.5041 31.6822 26.7611 31.5358C27.1783 31.2983 27.609 31.0842 28.0329 30.8589C28.4628 30.6305 28.8305 30.4167 29.2695 30.195L31.592 28.9492C31.7409 28.8376 31.6338 28.9701 31.7044 28.8194C31.7219 28.7415 31.7359 18.7696 31.6834 18.3926L21.7906 23.9633L21.7941 34.1734Z" fill="#1C78C0"/>
<path fill-rule="evenodd" clip-rule="evenodd" d="M33.1268 29.503C33.5466 29.8348 38.9839 32.7992 39.022 32.8068V14.3013C38.8989 14.3217 33.15 17.5407 33.1211 17.6103L33.1268 29.503Z" fill="#8ED5FA"/>
<path fill-rule="evenodd" clip-rule="evenodd" d="M3.14954 32.8199C3.36501 32.7324 3.67639 32.5387 3.88581 32.4167C4.12954 32.2747 4.37448 32.1409 4.62926 32.0007L8.3393 29.9163C8.51727 29.816 8.96436 29.6241 9.04403 29.4573V17.7469C9.04403 17.5864 9.03004 17.5849 8.8796 17.4897C8.82106 17.4526 8.76762 17.4279 8.70055 17.3917L7.60271 16.7745C6.1599 15.9365 4.52956 15.1048 3.15694 14.2832L3.14954 32.8199Z" fill="#8ED5FA"/>
<path fill-rule="evenodd" clip-rule="evenodd" d="M21.7906 10.6258L25.9455 12.8635C27.3367 13.5839 28.6609 14.36 30.0789 15.0812C30.7479 15.4214 31.5149 15.8201 32.1664 16.1948C32.5137 16.3946 32.3665 16.435 33.2407 15.9249L37.811 13.3564C37.9191 13.2936 37.9691 13.2723 38.0792 13.2088C38.1117 13.19 38.1717 13.1532 38.1941 13.1365C38.2026 13.1301 38.2145 13.1204 38.2221 13.1144L38.3047 13.0365L36.2387 11.9116C35.5669 11.5222 34.8447 11.1677 34.1726 10.7779C33.4978 10.3865 32.8098 10.0253 32.1083 9.64272L25.9215 6.23381C25.4539 5.97263 21.9746 4.01857 21.791 3.99414L21.7906 10.6258Z" fill="#8ED5FA"/>
<path fill-rule="evenodd" clip-rule="evenodd" d="M8.96813 15.9468C9.68699 16.3464 9.5723 16.42 10.0129 16.1898L19.3457 11.1941C19.6559 11.0373 20.0828 10.7601 20.3742 10.6602L20.3737 3.97729C20.0409 4.11041 16.6853 5.99791 16.226 6.24381C15.5205 6.62155 14.8739 7.00148 14.1656 7.38133L3.85925 13.0644L8.96813 15.9468Z" fill="#8ED5FA"/>
<path fill-rule="evenodd" clip-rule="evenodd" d="M21.7906 42.6556C21.9672 42.6211 27.2056 39.7119 27.8284 39.363L36.8874 34.3746C37.1753 34.2186 37.6059 33.9424 37.8971 33.8439C37.792 33.6993 37.5537 33.6049 37.3998 33.5182L31.9023 30.4366C31.6994 30.3849 28.2929 32.3025 27.8352 32.5353C27.1563 32.8807 26.4704 33.2497 25.8118 33.6185L22.76 35.2506C22.5102 35.3766 21.9809 35.6395 21.7908 35.7908L21.7906 42.6556Z" fill="#8ED5FA"/>
<path fill-rule="evenodd" clip-rule="evenodd" d="M4.26819 33.7901C4.44782 33.9512 5.93752 34.7344 6.27689 34.9246C6.93756 35.2951 7.60095 35.6685 8.27914 36.0279C10.2815 37.089 12.3414 38.2893 14.3516 39.3677C15.0359 39.7348 15.6713 40.0958 16.3524 40.4724L20.3742 42.6678L20.3609 35.7544C19.6722 35.4394 19.0172 35.0246 18.33 34.6752C16.0003 33.4906 13.5358 32.0387 11.2317 30.8765C11.0595 30.7896 10.8747 30.6888 10.7139 30.6045C10.1329 30.2999 10.435 30.3521 9.19744 31.0254C8.38836 31.4656 4.74512 33.5793 4.26819 33.7901Z" fill="#8ED5FA"/>
</svg>
