<svg width="1440" height="983" viewBox="0 0 1440 983" fill="none" xmlns="http://www.w3.org/2000/svg">
<path fill-rule="evenodd" clip-rule="evenodd" d="M361.796 820.695C362.424 821.959 362.236 820.399 361.944 822.328C361.264 826.806 360.167 824.157 361.367 828.6C362.839 834.045 362.645 829.46 362.645 838.976C364.799 838.401 363.581 838.711 365.088 837.571C367.624 835.652 367.648 834.289 373.227 834.165C373.227 837.168 373.008 837.671 373.794 840.332C374.979 844.342 375.115 841.976 376.112 845.71H378.998C378.998 841.662 378.594 841.823 379.96 838.976C377.89 837.537 378.693 838.835 378.036 836.089C382.648 837.194 379.531 836.745 380.922 836.089C376.714 827.318 390.372 835.532 382.846 828.393C385.776 828.327 386.353 827.958 388.617 827.43C388.193 832.536 387.304 828.932 388.817 832.129C392.167 839.203 392.992 833.871 388.863 842.226C388.326 843.314 387.085 842.948 389.579 846.672L385.769 845.593C387.132 848.351 386.671 849.599 390.078 849.789L391.189 849.627C391.222 849.621 391.402 849.523 391.503 849.559C392.455 853.126 392.475 850.802 393.427 854.369C392.816 855.419 391.557 852.879 393.146 855.869C394.886 859.141 403.046 853.806 404.97 862.066L409.779 859.18C409.779 854.184 410.844 853.56 407.855 851.483C408.837 847.269 409.314 847.337 409.89 841.927C411.145 830.141 407.961 835.107 418.437 827.43C419.239 829.049 419.322 829.121 420.361 830.317C421.407 826.398 422.527 827.532 427.094 826.468C426.766 811.751 429.843 818.166 433.077 811.361C434.382 808.615 433.207 811.649 433.553 808.963L433.653 807.833C433.683 807.607 433.776 807.005 433.816 806.784L434.889 803.41C439.959 791.81 430.724 807.087 436.767 793.462L437.675 787.021C439.206 786.26 435.906 786.035 440.561 787.021C440.561 773.939 439.107 781.272 439.354 776.953C439.427 775.677 442.36 768.085 440.811 760.008C440.782 759.857 440.722 759.589 440.689 759.441L441.523 752.384C440.383 757.279 441.168 757.195 447.294 757.195C450.404 750.711 447.78 752.825 446.332 746.611H449.218V751.422C454.104 748.15 449.74 749.242 454.028 752.384L462.686 747.573C463.304 750.228 463.149 749.742 464.61 751.422C467.191 746.041 462.934 744.238 468.457 742.763C468.457 736.933 467.476 738.354 468.156 732.917C468.623 729.173 468.457 725.43 468.457 721.596H470.381C470.07 725.334 469.513 724.102 469.419 728.331C472.265 729.091 470.978 728.723 473.267 730.255L474.229 734.103C476.428 735.716 475.682 734.085 475.942 738.013L478.076 742.763C478.076 739.142 477.086 731.954 476.512 727.885C476.132 725.187 476.264 722.949 476.798 721.324C477.964 717.768 477.883 718.848 480.962 716.785C482.03 721.374 480.465 731.911 481.92 736.086C485.29 745.764 482.263 736.454 481.313 743.827C480.837 747.52 482.897 749.9 485.771 751.422C485.771 746.146 484.662 746.12 482.886 742.763C484.324 742.126 482.752 742.736 484.12 742.753L485.771 742.763C485.771 738.291 486.378 738.733 486.683 735.016C486.922 732.103 486.733 728.437 486.733 725.444C489.15 727.063 491.233 729.044 492.015 732.144C492.708 734.892 491.773 731.068 492.263 733.909C492.315 734.204 492.555 735.436 492.654 735.883C493.008 737.48 493.534 738.693 493.798 741.517C494.621 750.321 485.771 743.404 485.771 757.195C488.982 758.735 492.441 759.119 497.314 759.119C498.578 754.387 503.707 753.25 499.439 745.495C496.977 741.025 499.63 743.124 496.352 741.8V739.876C501.241 737.903 498.368 731.514 498.276 727.368C500.874 727.152 500.893 726.917 503.086 726.406C503.086 733.76 506.31 732.38 506.934 739.876C502.867 738.928 504.315 738.726 501.162 740.838C502.017 744.509 503.193 744.864 504.048 748.535C508.201 748.535 511.72 748.803 511.511 744.882C511.379 742.38 509.282 741.981 507.896 736.028C510.395 735.365 508.969 736.385 509.82 734.103H511.744C511.851 738.905 512.862 737.863 513.071 740.91C513.304 744.333 510.828 743.825 514.63 746.611C514.725 742.282 514.972 741.74 517.515 739.876L518.68 757.178L521.363 757.195C521.363 753.55 520.773 752.942 521.12 750.834L521.363 744.687C530.148 748.904 529.777 737.53 531.375 742.123C532.075 744.133 530.229 745.898 530.157 748.61C529.923 757.422 531.716 744.102 531.944 754.308C529.098 755.068 530.385 754.7 528.096 756.233L530.179 759.937C535.62 768.444 530.4 765.385 531.808 769.882C533.532 775.392 535.311 769.683 535.292 776.125C535.273 782.257 533.403 779.13 536.753 784.134C529.426 782.427 529.648 787.876 533.03 788.722C535.447 789.326 540.653 785.393 541.09 784.687C542.521 782.369 542.253 779.103 545.236 778.171C549.049 776.976 545.535 781.671 550.903 780.893C556.584 780.067 549.309 779.093 555.992 778.362C555.45 780.685 556.08 779.117 555.216 780.472C554.29 781.924 554.696 781.164 553.877 782.018C552.382 783.578 553.414 780.878 551.182 785.097C553.617 786.264 552.358 786.62 555.147 785.29C558.309 783.78 552.22 783.342 559.84 783.172C559.692 776.542 556.536 776.437 565.611 776.437C564.837 779.335 565.623 778.55 562.726 779.324L565.611 783.172C557.381 783.857 559.6 788.977 561.54 790.109C566.363 792.925 564.583 785.984 567.143 790.435C569.679 794.841 564.39 798.822 563.688 801.453C568.906 809.247 567.958 800.611 567.599 814.438C567.556 816.095 567.275 815.694 569.459 815.885V819.733C565.089 819.83 564.463 820.181 563.986 823.627C563.804 824.949 564.033 829.995 564.65 831.279C568.783 829.091 566.396 831.54 567.535 828.393H570.421C570.421 832.987 571.075 832.381 571.383 836.089C571.239 836.157 570.966 835.989 570.911 836.157L566.573 837.052L567.535 842.824C569.291 843.695 568.74 843.56 571.383 843.786C565.838 849.046 568.617 848.736 568.817 855.063C568.929 858.593 570.804 855.858 567.535 858.218C566.231 858.833 569.126 860.017 565.605 858.088C562.121 856.181 565.047 855.828 561.299 854.975C559.86 854.648 560.977 855.839 557.916 854.369C559.11 840.02 562.3 841.588 554.068 843.786C550.771 841.578 547.203 836.811 547.683 846.002C548.234 856.591 549.539 850.138 551.182 856.293H553.106C554.633 852.077 558.906 852.527 555.432 856.454L554.338 857.372C548.801 862.888 553.656 865.311 555.992 868.801C558.492 868.139 557.065 869.158 557.916 866.877C563.771 867.008 560.939 865.522 560.802 871.688C567.638 871.688 564.226 871.463 565.631 873.607C566.054 874.253 565.806 876.967 568.881 877.768C571.779 878.523 569.886 876.803 572.777 878.103C574.394 878.831 572.902 878.865 575.071 879.003C575.95 879.06 576.467 878.807 578.116 878.423C578.116 889.551 579.873 882.453 580.04 889.968C576.033 888.045 577.128 890.343 575.149 887.163C573.137 883.928 575.926 884.896 572.345 882.271C567.883 891.572 573.047 888.645 577.154 894.779C561.928 894.779 571.226 905.615 572.345 907.287C574.845 906.624 573.418 907.644 574.269 905.362C582.864 905.554 572.42 908.138 580.04 910.173C581.201 907.753 580.599 908.31 579.799 905.711C578.725 902.218 579.078 901.419 579.078 897.665C582.379 897.94 580.681 897.142 582.015 898.615C583.894 900.688 583.03 899.772 581.002 900.552C581.052 902.8 581.379 903.038 581.433 903.125C583.815 907.002 578.055 900.531 582.579 903.629C584.051 904.638 584.619 906.434 584.85 909.211C582.222 910.162 582.872 909.161 581.964 913.059C586.508 919.847 585.01 910.083 589.314 924.95C590.829 930.181 592.337 935.083 594.095 940.373C600.49 959.609 597.443 958.505 608.828 965.085C619.898 971.483 617.115 966.764 622.096 969.19C624.851 970.532 621.589 970.233 625.229 970.57C629.641 970.979 632.144 967.161 636.65 969.106C642.099 971.46 637.835 970.719 643.806 970.07C647.868 969.63 648.323 970.466 650.951 972.042C658.405 976.514 658.602 973.058 662.473 971.843C667.57 970.245 666.902 975.922 669.781 979.164L672.385 981.37C681.87 975.017 683.042 984.234 682.004 971.75C694.899 971.75 693.852 981.165 698.357 982.333C704.577 981.815 704.927 980.719 706.474 975.058C708.015 969.422 710.05 969.509 709.762 963.234C709.616 960.043 708.523 960.964 710.609 958.089C711.678 956.617 713.071 955.755 714.408 954.124C720.278 946.961 715.907 951.201 723.367 949.62C725.093 942.209 721.723 930.767 721.467 927.467C721.035 921.894 722.052 920.918 720.375 916.021C717.489 907.593 719.208 911.094 720.481 906.324C713.034 905.705 714.985 893.042 711.822 886.198L709.551 879.658C709.071 878.417 708.827 877.98 708.64 876.36C708.274 873.201 709.278 877.865 708.484 873.785C708.039 871.499 705.526 866.922 705.596 863.867C705.652 861.452 707.414 862.143 704.697 859.602C704.603 859.514 704.307 859.335 704.129 859.18C707.396 859.452 707.65 859.914 709.9 861.104C712.325 857.482 711.94 858.999 710.862 854.369H707.014C706.24 857.268 707.026 856.482 704.129 857.256C701.828 852.461 699.319 833.209 699.319 826.468H701.243C701.243 836.847 707.158 833.815 712.786 835.127C712.672 840.217 711.911 837.731 712.786 841.862C716.738 840.941 718.119 840.446 718.557 845.71H720.481C719.095 839.759 720.082 842.284 720.849 839.36C722.164 834.343 720.126 836.392 721.443 833.203C727.556 834.835 721.253 836.155 727.351 836.496L730.869 837.317C733.561 838.461 732.428 839.038 734.91 838.013C734.828 841.683 732.316 846.172 740.805 846.997C745.198 847.424 745.601 846.585 746.184 851.967C746.315 853.175 745.98 852.405 746.453 853.407H750.301C748.563 849.201 752.433 850.466 754.794 847.038C760.046 839.417 759.986 846.895 761.844 839.938H765.691C766.882 843.806 765.127 840.867 768.171 840.063L769.403 839.8C775.57 838.575 771.949 838.929 774.023 834.814C775.97 830.952 777.625 834.1 777.216 829.875C777.02 827.841 776.846 829.002 776.981 827.65C777.204 825.407 780.233 822.245 782.698 815.576C784.406 810.958 784.599 813.306 788.759 811.01C788.795 810.99 793.254 806 800.477 809.876C802.765 811.104 797.881 810.491 803.207 811.074C803.976 809.103 803.317 810.9 803.304 809.591L803.207 808.188C807.434 808.281 806.203 808.839 809.94 809.15C811.1 804.168 810.268 805.89 814.75 806.263C813.664 804.001 813.911 802.752 812.826 800.491C808.113 801.749 810.737 802.021 808.468 804.015C805.665 806.476 805.875 805.706 804.169 803.377L814.75 795.68C819.737 797.485 813.733 795.697 817.574 797.665L822.445 798.566C821.697 796.501 817.594 795.68 826.292 795.68C827.428 798.725 824.204 797.06 829.178 797.604C828.778 799.323 827.173 800.223 829.868 803.567C829.912 803.62 829.12 804.408 833.42 805.978C834.614 806.414 834.527 806.084 835.682 806.565C839.122 807.997 833.012 811.758 838.943 812.166C844.697 812.561 842.427 814.237 846.43 811.537L847.562 810.585C849.36 809.848 847.46 810.024 849.682 810.609C852.817 811.434 850.043 812.036 856.112 812.036C857.13 808.225 861.39 807.916 864.944 808.466C868.018 808.942 866.886 808.194 867.655 811.074L871.503 809.15C874.39 807.814 873.506 808.836 877.274 809.15C877.893 806.495 877.738 806.981 879.198 805.301C883.565 811.347 881.299 802.863 880.16 800.491C874.291 803.596 875.213 807.299 872.564 804.65C869.619 801.703 871.471 806.078 872.382 803.32C873.118 801.09 884.666 796.915 878.564 792.853C876.139 791.239 868.262 792.994 865.574 792.971C858.919 792.913 856.827 793.756 849.379 793.756L853.638 792.176C853.864 792.1 854.115 791.981 854.327 791.893L857.386 790.069C857.472 790.011 857.687 789.851 857.774 789.794C857.862 789.736 858.087 789.584 858.179 789.525C863.686 785.943 860.641 787.078 863.956 784.284C866.606 782.048 865.968 783.334 868.617 780.286C864.391 768.608 867.655 780.119 867.655 764.892C871.422 763.335 870.971 767.521 872.291 761.909C872.725 760.062 872.489 754.868 872.613 752.523C872.793 749.129 872.841 751.716 872.73 748.951L872.465 735.066C872.602 734.99 872.878 734.825 872.921 734.961C872.934 735.001 875.543 734.831 874.824 730.889L874.278 728.561C874.281 728.516 875.754 724.815 875.921 724.148C876.54 721.672 876.312 719.424 876.312 716.785H881.122C881.057 713.854 880.688 713.277 880.16 711.012C885.706 712.305 884.514 711.339 886.443 713.388C889.479 716.614 885.593 716.372 890.741 717.747C884.939 706.78 892.79 713.432 887.229 702.043C885.981 699.487 887.305 703.262 885.931 699.467L890.099 701.072C890.298 701.165 890.521 701.32 890.724 701.409L896.513 702.353C896.174 706.429 894.364 706.077 898.437 707.164C898.173 703.991 896.945 703.265 897.671 700.63C898.863 696.314 897.942 700.514 902.285 698.504V706.202L904.209 707.164C904.498 706.078 905.264 704.221 905.264 704.145C905.259 702.198 902.965 700.54 902.753 696.032C902.591 692.621 901.528 694.696 904.209 692.732C904.209 705.853 907.845 693.853 908.056 703.315H909.98C910.344 701.753 911.704 700.048 908.967 697.673C907.778 696.64 909.088 697.302 907.094 696.58V693.694C909.287 693.183 909.307 692.949 911.904 692.732C916.166 699.098 911.706 697.464 915.751 700.429C918.533 698.39 917.675 699.645 917.675 694.656H919.599C919.7 699.206 918.62 698.434 922.485 699.467C922.39 695.238 921.834 696.47 921.523 692.732C924.313 695.943 926.168 697.443 928.256 701.391C933.306 700.043 935.352 697.309 937.876 695.618C936.202 690.994 937.626 696.395 935.951 691.77C943.679 689.706 938.822 679.057 940.467 672.215C940.523 671.979 940.627 671.726 940.682 671.501C940.734 671.288 940.818 671.022 940.866 670.819C940.911 670.627 940.96 670.345 941.002 670.162C941.902 666.214 939.941 667.811 942.686 666.755C943.748 662.775 944.005 665.597 944.441 661.76L944.473 656.707C945.114 651.269 955.902 655.94 953.267 644.626C960.031 647.075 954.913 645.279 960.962 643.664C961.735 646.562 960.95 645.776 963.848 646.55L964.199 642.022C964.26 641.767 964.366 641.527 964.436 641.284C965.179 638.72 965.736 638.981 964.81 635.005C970.221 637.189 960.664 632.019 965.897 635.934C967.666 637.257 966.154 638.297 968.572 636.753C971.043 635.177 970.244 633.838 969.619 631.156L975.39 635.005C975.39 626.443 975.631 633.297 980.88 624.138L983.485 620.971C984.207 619.935 985.348 616.941 985.972 615.762C991.63 616.381 986.266 615.339 990.782 618.648C992.649 617.025 992.852 616.494 995.591 615.762C996.702 619.925 998.648 618.225 1002.11 619.026C1010.56 620.982 1009.91 612.719 1002.32 610.951C1005.43 606.719 1005.21 611.267 1005.21 603.254C1007.58 603.807 1007.7 604.37 1010.43 604.386C1010.59 604.387 1010.87 604.348 1011.01 604.338L1015.86 605.012C1016.11 605.15 1016.84 605.665 1017.1 605.802L1021.51 607.014C1021.62 607.025 1021.95 607.053 1022.03 607.061C1023.29 607.184 1024.74 620.161 1024.35 624.25L1023.49 640.777C1021.03 641.349 1019.26 641.788 1018.53 644.392C1017.06 649.677 1022.08 650.437 1026.37 649.437C1026.48 654.489 1027.36 653.11 1028.3 657.134C1026.16 658.566 1023.56 660.223 1022.31 662.761C1018.76 669.934 1026.94 677.609 1033.29 678.804C1037.36 679.57 1032.8 676.894 1037.92 679.263C1040.5 681.815 1042.28 761.577 1040.54 774.25L1039.84 804.339C1048.09 804.523 1039.71 805.392 1046.57 807.226V802.415H1049.46C1048.43 806.852 1048.6 808.569 1052.34 811.074C1052.34 806.081 1053.57 796.419 1054.27 794.718C1058.73 797.987 1055.65 805.086 1055.23 810.112C1057.63 809.143 1055.77 809.879 1057.28 808.309C1058.36 807.173 1056.23 808.351 1059.08 806.263C1060.56 808.39 1059.24 807.459 1061.96 808.188C1060.77 810.438 1060.31 810.692 1060.04 813.961C1058.64 812.483 1059.07 812.351 1056.19 812.036C1059.83 817.473 1058.86 814.745 1062.98 815.464C1067.25 816.211 1064.85 818.278 1064.85 823.582H1066.77C1066.77 818.478 1066.82 817.9 1067.74 813.961L1071.52 813.457C1071.62 813.41 1073.34 810.429 1073.38 817.879C1073.4 822.778 1071.18 821.527 1074.47 822.62C1074.47 819.494 1074.6 816.099 1074.38 813.01C1074 807.753 1074.04 810.474 1074.47 805.301C1068.48 806.9 1072.83 808.043 1068.7 811.074V801.453C1070.9 804.62 1069.77 803.27 1071.12 803.247L1076.39 803.377C1074.6 807.117 1074.69 805.503 1076.39 808.188C1076.8 804.446 1077.78 804.218 1080.24 802.415C1081.74 808.864 1080.64 805.006 1079.28 810.112C1082.9 809.811 1083.39 808.181 1084.99 805.244C1087.02 801.551 1085.83 782.684 1085.05 779.324C1091.4 779.182 1086.82 778.801 1091.78 775.475C1087.34 767.068 1091.26 770.242 1091.78 763.93C1093.26 766.054 1092.48 766.937 1095.63 767.778L1094.41 755.684C1093.32 747.074 1090.82 755.987 1090.82 744.687H1092.75C1093.06 748.445 1095.51 751.253 1098.52 753.346C1100.38 753.841 1100.01 753.523 1101.4 754.308V763.93H1104.29C1100.84 749.131 1107.1 750.426 1101.4 746.611C1102.05 749.683 1102.37 748.11 1101.4 750.46C1100.11 749.731 1100.34 749.934 1098.52 749.498C1097.18 744.49 1097.59 748.68 1094.67 744.687C1098.26 739.323 1099.48 741.745 1099.48 732.179C1099.61 732.372 1099.78 732.456 1099.83 732.787C1100.2 735.189 1103.48 735.748 1101.4 744.687C1106.7 743.273 1103.72 740.757 1103.33 736.028C1106.2 735.713 1105.77 735.581 1107.17 734.103C1105.11 730.196 1105.15 730.984 1106.21 726.406H1109.1C1108.98 731.528 1107.17 737.384 1107.17 742.763C1111.15 743.198 1111.15 742.426 1110.22 753.513C1109.98 756.359 1110.43 757.979 1110.64 759.704C1110.65 759.778 1110.89 761.988 1110.88 762.319C1110.76 765.782 1111.5 759.579 1110.76 763.751C1110.38 765.907 1110.84 764.623 1110.06 765.854V768.74C1112.1 766.484 1111.32 767.544 1111.98 767.778C1111.61 772.254 1111.76 772.192 1108.14 772.589L1116.79 780.286C1115.16 773.276 1116.79 775.552 1116.79 768.74C1120.77 771.652 1117.98 770.473 1117.99 774.558C1118.01 780.277 1119.53 775.458 1119.68 782.21H1123.53C1123.07 776.724 1122.06 780.961 1121.6 775.475C1127.46 777.038 1122.68 781.339 1125.7 778.323C1127.03 776.998 1126.41 772.291 1126.41 769.702C1129.51 771.971 1128.34 775.016 1128.34 780.286C1131.6 777.898 1128.31 780.947 1130.48 776.653L1131.13 775.382C1131.24 775.203 1131.41 774.985 1131.53 774.811C1132.85 772.787 1134.04 771.599 1133.88 768.731L1132.98 764.771C1132.91 762.515 1132.75 765.401 1133.3 763.102L1135.37 755.39C1136.98 755.536 1135.53 756.016 1137.49 755.466C1140.94 754.502 1138.95 749.51 1138.91 737.944L1139.88 717.747C1141.95 717.015 1138.3 717.226 1141.53 718.09L1143.73 718.709C1142.05 715.082 1141.93 716.88 1144.69 714.861C1145.86 719.891 1145.11 716.503 1144.69 721.596H1142.77C1142.77 727.439 1141.71 728.946 1146.61 730.255C1146.61 725.574 1147.97 724.243 1148.19 715.122L1147.57 688.883H1151.42C1151.51 689.112 1151.74 689.173 1151.79 689.514C1151.82 689.738 1153.41 691.302 1153.03 696C1152.61 701.18 1150.85 699.823 1151.47 705.076C1151.95 709.191 1153.53 709.325 1153.22 714.708L1153.35 724.482H1156.23C1156.23 719.147 1155.36 718.085 1155.27 713.899C1162.75 714.521 1158.53 718.293 1161.04 723.52C1163.92 722.751 1163.47 723.617 1163.24 721.283C1163.14 720.329 1162 719.43 1162 715.823C1169.3 719.323 1163.25 718.281 1167.78 721.596C1169.8 717.383 1167.49 715.198 1164.89 712.936C1168.91 711.999 1167.53 711.125 1172.59 711.012C1172.59 716.241 1171.76 714.815 1172.59 718.709C1174.87 718.099 1175.49 718.482 1175.75 715.76C1176.16 711.335 1172.83 716.721 1175.47 711.012C1178.99 713.367 1176.84 711.726 1178.39 714.827C1178.99 716.017 1178.46 717.355 1182.2 718.709L1179.32 709.088C1181.99 710.372 1181.18 710.05 1185.09 710.05C1185.97 705.893 1185.48 708.94 1185.09 704.277C1188.87 704.362 1187.35 704.014 1189.9 705.239C1190.02 705.15 1191.71 703.406 1191.82 703.315C1195.61 704.687 1191.93 703.46 1195.67 706.202V699.467C1201.11 703.395 1193.5 698.976 1198.4 703.526C1203.37 708.139 1199.61 707.321 1202.74 709.661C1206 712.098 1202.68 709.765 1205.49 710.646C1208.88 711.706 1207.13 711.721 1210.1 713.899C1211.69 710.049 1208.91 713.752 1211.06 709.088C1212.47 709.832 1212.8 710.075 1214.01 710.952C1216.73 712.938 1212.45 711.352 1216.83 712.936C1215.88 716.504 1215.86 714.18 1214.91 717.747L1217.21 719.088C1215.86 720.472 1216.77 719.407 1215.87 720.634C1219.78 720.721 1218.35 721.366 1221.64 722.558V724.482C1216.59 724.482 1216.93 723.42 1215.87 727.368C1219.07 727.103 1221.24 726.684 1222.59 724.565C1223.13 723.717 1223.57 720.035 1223.57 716.785H1228.38C1226.7 712.16 1228.13 717.562 1226.45 712.936H1230.3V717.747L1226.45 719.671C1231.49 720.101 1228.19 718.754 1229.34 721.596C1231.44 719.382 1233.38 718.812 1238 718.709C1239.26 721.35 1238.51 720.016 1239.18 723.294C1239.92 726.882 1240.01 728.613 1243.61 731.371C1245.65 732.934 1245.57 732.891 1248.58 733.141C1249.28 730.888 1249.35 734.532 1248.18 732.317C1247.15 730.38 1246.98 733.253 1247.61 731.217C1249.81 730.706 1249.83 730.471 1252.43 730.255C1250.6 734.053 1252.78 732.479 1249.76 734.323C1246.04 736.597 1247.67 732.979 1244.73 736.99C1249.84 736.99 1250.1 737.029 1250.5 741.8H1253.39L1251.46 743.725C1252.95 746.832 1251.98 748.103 1253.21 751.604C1253.31 751.906 1253.79 755.632 1257.23 758.157C1261.96 756.895 1261.67 753.062 1262.52 751.721C1262.85 751.19 1259.22 750.959 1264.93 750.46C1266.29 756.294 1267.94 755.462 1269.07 758.376C1269.47 759.391 1269.21 760.204 1269.37 762.164C1269.5 763.849 1269.93 765.004 1270.55 766.899C1271.92 771.105 1272.86 778.943 1274.62 782.137C1276.06 784.749 1275.11 784.219 1278.4 785.097C1277.33 780.077 1279.54 772.464 1278.4 769.702C1279.89 770.051 1280.14 769.889 1281.37 770.579C1284.14 772.135 1283.64 774.853 1288.02 776.437V764.892C1288.55 765.656 1288.5 765.299 1289.06 766.734C1289.7 768.384 1289.46 767.625 1289.87 769.776C1290.34 772.299 1290.72 774.237 1290.9 776.437H1292.83C1293.14 772.641 1293.79 771.928 1293.79 766.816H1295.71C1295.79 770.231 1296.94 775.374 1297.64 778.362H1300.52L1301.48 761.043C1301.48 771.466 1304.37 764.377 1304.37 773.551C1304.5 773.608 1304.76 773.356 1304.79 773.498C1305.67 776.963 1303.63 770.621 1307.71 774.943C1309.51 776.852 1306.23 775.245 1309.18 776.437C1310 774.461 1311.1 764.605 1311.1 759.119H1314.95L1315.91 691.77L1318.48 696.896C1319.33 699.458 1319.71 700.928 1320.31 703.732C1321.74 710.499 1321.98 713.655 1326.49 714.861C1326.49 706.682 1324.27 700.841 1327.45 698.504C1328.57 701.275 1327.55 698.364 1330.4 701.33C1332.56 703.569 1333.34 706.046 1336.11 707.164C1336.11 700.429 1334.19 697.159 1334.19 689.845C1337.15 692.016 1338.63 701.763 1339 706.202C1339.64 706.146 1342.19 707.777 1342 701.361C1341.88 697.438 1337.94 697.093 1343.81 696.58C1344.1 700.133 1344.8 706.999 1347.66 709.088C1349.14 706 1348.81 705.874 1348.19 701.772C1347.47 697.027 1347.53 697.719 1349.58 694.656C1351.46 697.365 1352.38 700.679 1352.47 704.277C1357.17 703.28 1354.58 705.839 1358.24 707.164C1358.24 699.754 1356.55 701.802 1358.27 696.617C1359.53 692.79 1359.3 694.425 1358.24 689.845C1362.15 689.845 1361.33 690.167 1364.01 688.883C1363.75 685.768 1362.76 680.238 1362.08 677.338C1369.85 677.984 1364.46 679.812 1373.21 678.135C1378.13 677.19 1373.08 680.224 1385.17 680.224C1385.79 674.565 1384.75 679.93 1388.06 675.414C1398.43 680.903 1394.52 676.539 1399.5 675.837C1400.39 675.71 1402.23 676.328 1404.41 676.376C1404.41 674.124 1404.53 673.07 1404.06 670.885C1403.38 667.666 1403.95 671.195 1403.45 668.956C1403.19 667.776 1403.28 669.445 1403.21 667.142C1403.06 662.213 1402.49 660.439 1402.49 656.172C1409.45 659.859 1408.01 656.572 1414.16 657.992C1422.93 660.016 1418.99 655.757 1425.57 655.209C1428.85 669.269 1434.16 664.419 1434.3 674.382L1434.22 731.223C1434.18 738.032 1433.95 738.699 1435.8 744.078C1436.86 747.169 1437.8 752.884 1438.08 756.233C1439.06 754.685 1439.65 747.914 1440 738.68V663.869V0H544.787C544.649 5.86418 547.45 5.43101 551.926 7.93702C555.008 9.66172 557.965 12.398 559.878 14.3885C566.471 21.2492 562.35 28.684 558.327 34.1115C552.885 41.4532 552.017 45.4199 550.222 55.9666C546.02 80.6679 548.799 77.8678 540.746 82.0232C539.012 82.9188 538.9 83.2758 537.354 84.298C533.809 86.6437 532.734 85.9014 528.178 86.5888C517.846 88.1496 519.262 91.6867 518.589 99.9488C508.947 103.445 502.351 101.723 497.033 110.644C496.754 116.013 501.508 125.835 501.662 135.658C501.745 140.956 500.277 144.533 502.666 148.57C504.396 151.491 506.918 153.503 508.419 157.273C515.092 174.039 500.721 197.323 501.612 204.539C509.431 210.55 533.933 204.221 548.241 214.555C549.108 221.664 542.256 225.202 537.604 228.86C531.669 233.529 528.388 233.373 524.117 239.47C522.361 241.976 521.017 244.682 519.193 247.035C515.25 252.123 517.508 249.574 515.62 256.109C515.072 258.008 502.839 279.081 518.379 275.044C521.964 274.113 522.554 273.296 526.258 275.034C529.349 276.484 528.181 276.958 532.97 278.068C535.493 278.654 537.906 278.999 540.583 279.364C545.687 280.057 546.994 280.326 552.123 286.727C556.388 292.05 554.099 292.187 560.83 296.335C559.773 301.378 556.724 299.673 559.384 305.394C568.39 306.139 564.491 293.92 576.136 294.58C580.732 301.87 576.601 303.392 580.008 309.802C590.814 330.137 573.888 325.99 571.411 330.972C570.615 337.256 573.988 337.864 577.015 341.687C580.094 345.575 583.353 345.739 581.57 351.745C571.956 353.807 567.939 348.465 558.036 354.131C553.116 356.946 543.314 361.369 544.843 368.157C549.127 369.57 571.176 366.31 577.446 373.376C581.551 378.002 575.024 378.9 574.984 378.917C571.804 380.289 571.464 379.147 571.34 383.85C571.137 391.584 574.271 392.202 577.948 395.491C571.34 398.706 557.757 396.885 549.215 397.245C538.231 397.708 538.611 400.237 533.318 404.493C532.029 405.528 530.86 405.949 529.517 407.439C522.998 414.668 532.347 423.81 534.816 430.09C539.184 441.203 549.266 461.107 560.793 464.615C564.296 465.681 568.171 468.186 568.752 471.841C569.544 476.817 565.419 475.619 570.268 481.173C579.237 491.447 574.568 481.116 580.533 494.055C589.812 514.182 582.187 512.684 586.093 525.04C593.974 525.646 595.634 521.029 604.649 526.704C609.878 529.996 609.295 534.663 617.555 536.839C620.419 534.752 620.063 531.979 626.091 532.932C635.216 534.373 637.879 549.475 637.61 557.049C637.267 566.684 637.06 569.345 627.159 570.603C625.312 570.838 623.3 570.856 621.416 570.514C613.15 569.015 621.361 566.825 612.971 575.296L617.555 586.274C618.317 586.929 626.174 585.707 625.856 599.421C625.733 604.735 621.5 609.898 617.919 612.28C612.711 615.742 607.386 615.247 600.182 615.548C592.291 615.876 593.785 619.172 589.345 621.395C587.719 622.209 587.687 621.741 585.784 622.497C589.003 630.255 589.256 617.984 585.136 634.385C574.032 637.642 570.819 634.955 560.719 635.394C553.267 635.718 552.085 642.498 544.774 645.927C541.527 647.45 539.078 647.78 535.199 649.713C525.173 654.711 524.93 653.277 514.622 653.956C510.174 654.249 508.235 655.375 503.111 655.46C479.793 655.847 484.395 661.255 475.958 679.086C467.768 696.394 466.423 697.48 458.104 712.182C448.782 728.657 437.091 742.45 431.851 751.393C428.703 756.763 430.181 754.611 426.193 758.148C422.162 761.725 418.379 767.946 414.604 771.661C400.158 785.871 392.768 795.112 375.267 809.259L361.796 820.695Z" fill="#F5F5F5"/>
<path fill-rule="evenodd" clip-rule="evenodd" d="M0 186.147V285.77C7.46044 283.096 26.1266 272.523 37.8771 267.847C51.1016 262.584 65.0286 256.685 80.1178 254.355C101.18 251.103 165.106 246.472 183.816 253.039C183.528 255.61 183.155 256.558 181.804 259.239C179.881 258.714 180.104 257.447 178.918 255.586C168.932 256.134 152.749 257.53 145.575 264.867C140.77 269.78 144.533 295.549 146.519 301.678C151.294 316.426 158.231 337.022 176.451 334.272C185.67 332.882 184.754 330.959 187.557 324.301C206.304 323.618 206.175 341.888 228.418 345.726C243.868 348.393 246.367 340.396 254.671 341.634C258.276 342.17 262.814 343.812 267.554 344.249C272.125 344.669 277.362 344.028 280.152 347.328C278.747 352.716 276.199 349.676 273.392 354.277C271.489 357.394 272.358 361.405 271.916 365.609C267.081 370.027 259.412 372.559 262.45 383.043C265.716 394.311 272.901 401.33 277.622 411.214C280.274 416.764 297.368 428.271 302.906 428.137C301.31 422.557 297.14 422.884 297.567 416.92C302.487 415.881 311.052 421.41 312.61 424.298C309.435 431.899 292.437 439.356 307.157 452.856C321.699 466.193 330.048 454.051 344.841 457.475L345.313 485.875C341.987 489.546 339.429 489.805 340.361 496.297C341.078 501.301 342.994 504.099 342.564 510.01C335.622 512.046 334.182 509.634 329.12 514.834C326.079 517.958 324.485 522.16 326.202 527.111C330.661 539.968 344.568 531.841 348.362 539.753C346.285 543.012 344.809 542.305 343.2 545.448C341.52 548.73 338.479 567.936 338.1 572.246C336.801 587.008 340.654 585.185 347.187 593.71C349.045 596.135 349.632 597.099 351.216 599.279C357.196 607.511 373.831 607.397 377.868 613.96C380.962 618.989 381.612 622.067 385.943 627.078C388.552 630.096 392.34 633.969 395.918 636.929C394.438 647.722 376.651 676.303 369.727 687.308C362.945 698.086 355.023 706.103 346.897 715.458C334.707 729.493 329.479 731.495 321.461 740.023C317.834 743.881 314.329 751.248 310.701 754.176C305.047 753.873 310.157 752.697 305.327 753.117C304.104 753.225 302.398 753.827 299.607 752.834C299.383 752.754 299.14 752.629 298.908 752.548L288.812 751.639C287.883 788.351 287.315 762.376 282.883 782.269L277.996 779.775C277.794 779.932 277.519 780.132 277.372 780.223C277.227 780.313 276.92 780.537 276.737 780.645L275.414 781.373C274.905 781.625 273.965 781.975 273.332 782.231C271.644 782.914 271.253 783.233 269.685 783.675L267.415 779.317C259.798 778.319 259.975 779.393 253.773 776.512L253.41 763.419C247.682 762.138 252.616 763.583 248.176 765.439C246.493 762.696 245.878 762.236 243.367 760.459C236.652 768.987 233.466 781.094 221.113 782.57C216.269 783.15 215.665 782.964 214.656 787.036C213.717 790.824 213.346 795.249 211.619 798.566C207.069 807.304 207.021 805.17 202.004 806.797L195.888 799.67C195.717 799.515 195.415 799.267 195.271 799.142C195.122 799.01 194.716 798.998 194.606 798.622C194.493 798.238 194.166 798.248 193.917 798.106C189.6 807.235 184.675 807.568 177.153 811.074C176.655 818.679 179.647 809.919 179.501 817.444C174.994 818.078 177.792 816.973 173.147 815.105C167.452 817.931 171.309 819.718 161.603 811.975C158.286 814.047 159.72 813.73 155.33 815.299L149.368 817.453L147.575 833.65C146.188 833.738 143.209 833.243 143.078 833.255C136.721 833.793 142.795 833.378 139.416 834.925C135.388 836.769 137.924 832.365 131.864 832.8C125.151 833.28 130.285 837.006 123.632 835.5C118.391 834.313 120.173 833.298 117.354 830.036C115.98 831.309 113.051 833.09 110.783 832.531C107.879 831.815 108.519 829.747 108.406 826.664C105.328 826.838 105.765 827.458 103.743 826.547L101.464 824.237C99.0355 819.277 100.17 812.501 100.095 807.02C96.8192 808.802 98.7388 808.818 95.23 810.237C91.2031 808.082 88.3879 805.682 85.7207 801.548C81.839 817.543 75.6922 823.109 71.9186 845.519C71.0363 850.759 68.9183 855.435 67.4576 860.389C61.9273 860.34 60.9131 858.475 59.2291 863.293C52.6323 860.443 55.3031 857.586 47.8028 861.816C45.1568 863.307 49.7933 863.206 44.3109 862.895C42.2637 862.779 38.4325 860.668 37.9728 858.573C37.8975 858.23 37.6778 858.161 37.5148 857.968C37.3376 858.173 37.1259 858.486 37.0196 858.614L30.2803 859.453C28.2747 858.688 28.7044 858.58 27.0558 857.132L22.1926 853.301C22.1537 853.277 20.7275 852.575 20.4989 852.445C19.8718 841.577 21.7568 831.405 22.8668 820.362C24.0192 808.903 25.681 802.288 25.3701 789.601C23.6215 790.669 23.6578 792.641 21.9535 793.624C21.1766 794.073 20.9649 793.982 19.8567 794.471L16.3524 796.371C11.8781 791.586 10.4165 790.025 10.4076 781.209C10.3987 772.911 7.07245 771.06 0 772.443V866.877L21.2776 874.459C40.8269 881.533 70.1691 888.612 91.3014 891.012C122.189 894.52 114.928 893.817 146.212 893.817C156.47 893.817 165.19 893.656 174.135 892.882C182.356 892.169 191.717 891.131 199.819 889.708C232.129 884.028 259.38 876.038 288.853 863.306C295.852 860.281 301.756 857.415 308.468 854.06C312.257 852.167 313.952 850.788 317.747 848.91L335.896 838.198C339.113 836.134 341.476 834.823 344.755 832.627L357.136 823.85C359.063 822.46 360.08 822.069 361.796 820.695L375.267 809.259C392.768 795.112 400.158 785.871 414.604 771.661C418.379 767.946 422.162 761.725 426.193 758.148C430.181 754.611 428.703 756.763 431.851 751.393C437.091 742.45 448.782 728.657 458.104 712.182C466.423 697.48 467.768 696.394 475.958 679.086C484.395 661.255 479.793 655.847 503.111 655.46C508.235 655.375 510.174 654.249 514.622 653.956C524.93 653.277 525.173 654.711 535.199 649.713C539.078 647.78 541.527 647.45 544.774 645.927C552.085 642.498 553.267 635.718 560.719 635.394C570.82 634.955 574.032 637.642 585.136 634.385C589.256 617.984 589.003 630.255 585.784 622.497C587.687 621.741 587.719 622.209 589.345 621.395C593.785 619.172 592.291 615.876 600.182 615.548C607.386 615.247 612.711 615.742 617.919 612.28C621.5 609.898 625.733 604.735 625.856 599.421C626.174 585.707 618.317 586.929 617.555 586.274L612.971 575.296C621.361 566.825 613.15 569.015 621.416 570.514C623.3 570.856 625.312 570.838 627.159 570.603C637.06 569.345 637.267 566.684 637.61 557.049C637.879 549.475 635.216 534.373 626.091 532.932C620.064 531.979 620.419 534.752 617.555 536.839C609.295 534.663 609.878 529.996 604.649 526.704C595.634 521.029 593.974 525.646 586.093 525.04C582.187 512.684 589.813 514.182 580.534 494.055C574.568 481.116 579.238 491.447 570.268 481.173C565.419 475.619 569.544 476.817 568.752 471.841C568.171 468.186 564.296 465.681 560.793 464.615C549.266 461.107 539.184 441.203 534.816 430.09C532.347 423.81 522.998 414.668 529.517 407.439C530.86 405.949 532.029 405.528 533.318 404.493C538.611 400.237 538.231 397.708 549.215 397.245C557.757 396.885 571.34 398.706 577.948 395.491C574.271 392.202 571.137 391.584 571.34 383.85C571.464 379.147 571.804 380.289 574.984 378.917C575.024 378.9 581.551 378.002 577.446 373.376C571.176 366.31 549.127 369.57 544.843 368.157C543.315 361.369 553.116 356.946 558.036 354.131C567.939 348.465 571.956 353.807 581.57 351.745C583.353 345.739 580.094 345.575 577.015 341.687C573.988 337.864 570.615 337.256 571.411 330.972C573.888 325.99 590.814 330.137 580.008 309.802C576.601 303.392 580.732 301.87 576.136 294.58C564.491 293.92 568.39 306.139 559.384 305.394C556.724 299.673 559.773 301.378 560.83 296.335C554.099 292.187 556.388 292.05 552.123 286.727C546.994 280.326 545.687 280.057 540.584 279.364C537.906 278.999 535.494 278.654 532.97 278.068C528.181 276.958 529.349 276.484 526.258 275.034C522.554 273.296 521.964 274.113 518.379 275.044C502.839 279.081 515.072 258.008 515.62 256.109C517.508 249.574 515.25 252.123 519.193 247.035C521.017 244.682 522.361 241.976 524.117 239.47C528.388 233.373 531.669 233.529 537.604 228.86C542.256 225.202 549.108 221.664 548.241 214.555C533.933 204.221 509.431 210.55 501.612 204.539C500.721 197.323 515.092 174.039 508.419 157.273C506.919 153.503 504.396 151.491 502.667 148.57C500.277 144.533 501.745 140.956 501.662 135.658C501.508 125.835 496.755 116.013 497.033 110.644C502.351 101.723 508.947 103.445 518.589 99.9488C519.263 91.6867 517.846 88.1496 528.178 86.5888C532.734 85.9014 533.809 86.6437 537.354 84.298C538.9 83.2758 539.012 82.9188 540.747 82.0232C548.799 77.8678 546.02 80.6679 550.222 55.9666C552.017 45.4199 552.885 41.4532 558.327 34.1115C562.35 28.684 566.471 21.2492 559.878 14.3885C557.965 12.398 555.008 9.66172 551.927 7.93702C547.45 5.43101 544.649 5.86418 544.787 0H331.996C333.214 4.1439 332.274 1.57146 335.189 3.84892L330.722 21.1438C330.214 28.6884 329.244 34.7209 331.44 40.7437C334.73 49.7632 331.537 52.278 332.125 60.4888C332.464 65.2111 335.11 75.2564 332.635 78.6943C329.309 83.4468 327.236 78.2655 324.748 84.3432C323.239 88.0309 324.777 91.9126 323.207 94.982C320.335 93.5027 323.021 95.6836 321.609 92.3183C321.494 92.0446 321.114 90.9621 321.028 90.7415L320.321 89.0877C316.68 90.7114 316.548 92.2315 314.072 95.7155C305.914 107.198 311.193 101.368 304.515 103.566L293.163 111.368C284.736 117.103 274.897 116.803 266.931 124.588C265.004 126.471 262.971 128.969 259.937 130.058C255.162 131.77 253.645 129.389 249.325 132.054C246.044 134.077 246.34 136.221 241.785 136.28C242.171 132.111 246.38 129.919 246.952 126.039C242.316 123.9 238.681 121.929 235.014 125.377C232.379 127.854 229.592 132.474 229.439 137.867C238.472 140.318 237.596 140.211 236.307 144.608L227.976 144.752C223.444 150.022 220.964 157.999 208.286 160.128C202.711 161.065 198.001 160.237 192.261 161.41C185.065 162.881 184.342 162.606 176.716 161.77C155.494 159.441 133.113 159.211 111.63 160.701C91.3058 162.111 71.5607 165.254 52.3347 169.748C26.0159 175.899 20.4148 180.018 0 186.147Z" fill="white"/>
<path fill-rule="evenodd" clip-rule="evenodd" d="M0 285.771V772.444C7.07245 771.061 10.3987 772.912 10.4076 781.21C10.4165 790.026 11.8781 791.587 16.3524 796.372L19.8567 794.472C20.9649 793.982 21.1766 794.074 21.9535 793.625C23.6578 792.641 23.6215 790.67 25.3701 789.602C25.681 802.289 24.0192 808.904 22.8668 820.362C21.7568 831.406 19.8718 841.578 20.4989 852.446C20.7275 852.576 22.1537 853.278 22.1926 853.302L27.0558 857.133C28.7044 858.581 28.2747 858.689 30.2803 859.454L37.0196 858.615C37.1259 858.487 37.3376 858.174 37.5148 857.969C37.6778 858.162 37.8975 858.231 37.9728 858.573C38.4325 860.668 42.2637 862.779 44.3109 862.895C49.7933 863.206 45.1569 863.308 47.8028 861.817C55.3031 857.587 52.6323 860.443 59.2291 863.294C60.9131 858.476 61.9273 860.341 67.4576 860.389C68.9183 855.436 71.0363 850.76 71.9186 845.52C75.6922 823.109 81.839 817.544 85.7207 801.549C88.3879 805.683 91.2031 808.083 95.23 810.238C98.7388 808.819 96.8192 808.802 100.095 807.021C100.17 812.502 99.0356 819.278 101.464 824.238L103.743 826.548C105.765 827.459 105.328 826.839 108.406 826.665C108.519 829.748 107.879 831.815 110.783 832.532C113.051 833.091 115.98 831.31 117.354 830.037C120.173 833.299 118.391 834.314 123.632 835.5C130.285 837.007 125.151 833.281 131.864 832.8C137.924 832.366 135.388 836.77 139.416 834.925C142.795 833.379 136.721 833.794 143.078 833.256C143.209 833.244 146.188 833.739 147.575 833.651L149.368 817.454L155.33 815.3C159.72 813.731 158.286 814.047 161.603 811.975C171.309 819.719 167.452 817.932 173.147 815.106C177.792 816.974 174.994 818.079 179.502 817.445C179.647 809.919 176.655 818.68 177.153 811.075C184.675 807.569 189.6 807.235 193.917 798.107C194.166 798.249 194.493 798.239 194.606 798.622C194.717 798.999 195.122 799.011 195.271 799.143C195.415 799.268 195.717 799.515 195.888 799.67L202.004 806.798C207.021 805.171 207.069 807.305 211.619 798.567C213.346 795.25 213.717 790.825 214.656 787.037C215.665 782.965 216.269 783.151 221.113 782.571C233.466 781.095 236.652 768.988 243.367 760.46C245.878 762.237 246.493 762.697 248.176 765.44C252.616 763.584 247.682 762.139 253.41 763.42L253.773 776.513C259.975 779.394 259.798 778.32 267.415 779.318L269.685 783.676C271.253 783.234 271.644 782.915 273.332 782.232C273.965 781.976 274.905 781.626 275.414 781.374L276.737 780.645C276.92 780.538 277.227 780.314 277.372 780.224C277.519 780.133 277.794 779.933 277.996 779.776L282.883 782.27C287.315 762.377 287.883 788.352 288.812 751.64L298.908 752.549C299.14 752.629 299.383 752.755 299.607 752.835C302.398 753.828 304.104 753.226 305.327 753.118C310.157 752.698 305.047 753.874 310.701 754.177C314.329 751.249 317.834 743.882 321.461 740.024C329.479 731.496 334.707 729.494 346.897 715.459C355.023 706.104 362.945 698.087 369.727 687.309C376.651 676.304 394.438 647.723 395.918 636.93C392.34 633.97 388.552 630.096 385.943 627.078C381.612 622.068 380.962 618.99 377.868 613.961C373.831 607.398 357.196 607.512 351.216 599.28C349.632 597.1 349.045 596.136 347.187 593.711C340.654 585.186 336.801 587.009 338.1 572.246C338.479 567.937 341.52 548.731 343.2 545.448C344.809 542.306 346.285 543.012 348.362 539.754C344.568 531.842 330.661 539.969 326.202 527.112C324.485 522.161 326.079 517.959 329.12 514.835C334.182 509.635 335.622 512.047 342.564 510.011C342.994 504.1 341.078 501.301 340.361 496.297C339.429 489.806 341.987 489.547 345.313 485.876L344.841 457.476C330.048 454.051 321.699 466.193 307.157 452.857C292.437 439.357 309.435 431.899 312.61 424.299C311.052 421.41 302.487 415.882 297.567 416.921C297.14 422.884 301.31 422.558 302.906 428.138C297.368 428.272 280.274 416.765 277.622 411.214C272.901 401.33 265.716 394.312 262.45 383.043C259.412 372.56 267.081 370.028 271.916 365.609C272.358 361.406 271.489 357.395 273.392 354.278C276.199 349.677 278.747 352.717 280.152 347.329C277.362 344.029 272.125 344.67 267.554 344.249C262.814 343.813 258.276 342.171 254.671 341.634C246.367 340.397 243.868 348.393 228.418 345.727C206.175 341.889 206.304 323.619 187.557 324.301C184.754 330.96 185.67 332.883 176.451 334.273C158.231 337.023 151.294 316.426 146.519 301.679C144.533 295.549 140.77 269.781 145.575 264.868C152.75 257.53 168.932 256.135 178.918 255.587C180.104 257.448 179.881 258.715 181.804 259.24C183.155 256.559 183.528 255.611 183.816 253.04C165.106 246.473 101.18 251.104 80.1178 254.356C65.0286 256.686 51.1016 262.585 37.8771 267.848C26.1266 272.524 7.46044 283.097 0 285.771Z" fill="#2D2D2D"/>
<path fill-rule="evenodd" clip-rule="evenodd" d="M0 186.147C20.4148 180.018 26.0159 175.899 52.3347 169.748C71.5607 165.254 91.3058 162.111 111.63 160.701C133.113 159.211 155.494 159.441 176.716 161.77C184.342 162.606 185.065 162.881 192.261 161.41C198.001 160.237 202.711 161.065 208.286 160.128C220.964 157.999 223.444 150.022 227.976 144.752L236.307 144.608C237.596 140.211 238.472 140.318 229.439 137.867C229.592 132.474 232.379 127.854 235.014 125.377C238.681 121.929 242.316 123.9 246.952 126.039C246.38 129.919 242.171 132.111 241.785 136.28C246.34 136.221 246.044 134.077 249.325 132.054C253.645 129.389 255.162 131.77 259.937 130.058C262.971 128.969 265.004 126.471 266.931 124.588C274.897 116.803 284.736 117.103 293.163 111.368L304.515 103.566C311.193 101.368 305.914 107.198 314.072 95.7155C316.548 92.2315 316.68 90.7114 320.321 89.0877L321.028 90.7415C321.114 90.9621 321.493 92.0446 321.609 92.3183C323.021 95.6836 320.335 93.5027 323.207 94.982C324.777 91.9126 323.239 88.0309 324.748 84.3432C327.236 78.2655 329.309 83.4468 332.635 78.6943C335.11 75.2564 332.464 65.2111 332.125 60.4888C331.537 52.278 334.73 49.7632 331.44 40.7437C329.244 34.7209 330.214 28.6884 330.722 21.1438L335.189 3.84892C332.274 1.57146 333.214 4.1439 331.996 0H0V186.147Z" fill="#2D2D2D"/>
<path fill-rule="evenodd" clip-rule="evenodd" d="M1005.21 708.126C1005.21 719.138 1022.62 716.577 1018.74 703.333L1018.22 701.438C1017.97 699.454 1018.6 699.417 1017.72 695.618C1014.67 695.686 1014.08 695.28 1012.73 697.381C1011.11 699.93 1012.73 696.977 1012.28 699.274L1012.05 701.063C1010.88 703.952 1005.21 703.954 1005.21 708.126Z" fill="#EEEEEE"/>
<path fill-rule="evenodd" clip-rule="evenodd" d="M548.296 794.717C550.295 799.669 546.043 790.88 549.636 796.288C551.142 798.554 551.648 795.01 547.334 801.452C548.368 805.324 548.406 802.961 549.64 805.881C550.644 808.253 550.025 808.66 551.183 811.073C558.575 810.458 556.463 805.95 556.464 805.922C556.63 801.79 557.585 800.615 557.916 796.641C555.723 797.152 555.704 797.387 553.107 797.603C556.029 793.238 556.598 796.53 557.916 790.868C553.082 791.271 551.361 792.665 548.296 794.717Z" fill="#EEEEEE"/>
<path fill-rule="evenodd" clip-rule="evenodd" d="M549.259 821.658C550.138 825.813 551.586 824.173 547.334 824.544V827.43C548.165 827.449 549.468 827.668 549.923 827.68L554.12 827.109C556.678 826.111 553.816 828.037 555.807 826.028C562.48 819.291 560.702 822.309 560.802 817.809C553.525 816.114 559.669 817.696 556.954 812.036C553.942 812.104 552.152 811.706 552.291 814.753C552.533 820.039 554.408 813.222 555.03 820.695C549.364 822.209 554.822 822.837 549.259 821.658Z" fill="#EEEEEE"/>
<path fill-rule="evenodd" clip-rule="evenodd" d="M1003.29 634.042C1001.41 642.118 1001.36 642.702 1008.1 642.702C1011.97 642.702 1011.94 638.267 1011.94 635.967C1007.62 633.071 1008.63 633.484 1003.29 634.042Z" fill="#EEEEEE"/>
<path fill-rule="evenodd" clip-rule="evenodd" d="M554.068 834.165C554.798 832.883 554.686 833.138 555.03 831.279C552.741 829.747 554.028 830.115 551.182 829.355C549.241 833.402 551.451 830.125 550.229 835.365C548.753 841.692 555.075 840.34 557.916 838.976C557.59 835.053 557.421 835.061 554.068 834.165Z" fill="#EEEEEE"/>
<path fill-rule="evenodd" clip-rule="evenodd" d="M977.314 756.232V758.156C981.34 760.287 983.466 761.334 985.01 757.194C987.825 757.194 984.489 751.421 983.087 751.421C980.635 751.421 977.314 753.501 977.314 756.232Z" fill="#EEEEEE"/>
<path fill-rule="evenodd" clip-rule="evenodd" d="M473.267 821.657C473.267 823.909 474.862 825.505 477.114 825.505C479.944 825.505 477.836 826.371 480.659 823.278C480.787 823.139 480.97 822.868 481.08 822.737L481.924 821.657C480.874 819.674 480.589 819.376 480 816.846C476.288 816.929 473.267 818.182 473.267 821.657Z" fill="#EEEEEE"/>
<path fill-rule="evenodd" clip-rule="evenodd" d="M713.748 886.119C713.748 888.804 717.153 886.488 718.557 889.967H720.481C718.327 880.966 722.357 891.578 724.329 884.194C721.862 884.717 722.68 885.319 721.212 883.431L719.519 880.346C716.321 881.091 713.748 882.322 713.748 886.119Z" fill="#EEEEEE"/>
<path fill-rule="evenodd" clip-rule="evenodd" d="M534.83 806.262C537.991 805.418 537.997 804.867 539.639 802.414C538.687 798.846 538.667 801.17 537.715 797.603C531.835 797.734 532.146 799.338 530.982 804.338C531.53 804.602 532.653 805.004 533.017 805.189C534.795 806.095 533.901 805.616 534.83 806.262Z" fill="#EEEEEE"/>
<path fill-rule="evenodd" clip-rule="evenodd" d="M1189.9 705.24C1189.9 710.063 1190.68 717.866 1195.67 719.672C1195 716.786 1194.01 714.191 1193.75 711.013C1196.42 709.729 1195.61 710.051 1199.52 710.051C1195.54 704.614 1200.55 712.375 1189.9 705.24Z" fill="#EEEEEE"/>
<path fill-rule="evenodd" clip-rule="evenodd" d="M555.03 831.279L562.726 832.241C561.709 827.874 563.106 828.409 561.764 825.506C556.85 828.797 561.618 826.997 555.03 828.393V831.279Z" fill="#EEEEEE"/>
<path fill-rule="evenodd" clip-rule="evenodd" d="M1162.97 767.777C1158.5 767.777 1159.14 773.34 1162.97 773.34C1166.79 773.34 1167.43 767.777 1162.97 767.777Z" fill="#EEEEEE"/>
<path fill-rule="evenodd" clip-rule="evenodd" d="M1019.64 698.504C1022.41 702.64 1023.72 702.464 1026.37 698.504C1024.49 695.694 1022.39 693.413 1019.64 698.504Z" fill="#EEEEEE"/>
<path fill-rule="evenodd" clip-rule="evenodd" d="M990.782 643.663C990.85 646.746 990.468 648.473 993.668 648.473C995.242 648.473 996.553 647.897 996.553 646.549C996.553 642.813 993.138 642.815 990.782 643.663Z" fill="#EEEEEE"/>
<path fill-rule="evenodd" clip-rule="evenodd" d="M1184.13 713.899V715.823C1186.68 717.048 1185.16 716.701 1188.94 716.785L1190.02 712.974C1186.62 711.141 1184.13 712.086 1184.13 713.899Z" fill="#EEEEEE"/>
<path fill-rule="evenodd" clip-rule="evenodd" d="M542.407 832.204C546.186 834.298 548.296 833.643 548.296 829.355C545.743 828.129 547.267 828.477 543.487 828.393L542.407 832.204Z" fill="#EEEEEE"/>
<path fill-rule="evenodd" clip-rule="evenodd" d="M563.57 883.195C564.86 883.892 564.716 884.194 566.573 884.194C570.251 884.194 566.924 884.49 569.459 883.232L568.379 879.421L564.65 879.384L563.57 883.195Z" fill="#EEEEEE"/>
<path fill-rule="evenodd" clip-rule="evenodd" d="M707.976 868.802C707.976 872.514 712.224 873.545 713.748 867.84C710.403 865.961 707.976 867.107 707.976 868.802Z" fill="#EEEEEE"/>
<path fill-rule="evenodd" clip-rule="evenodd" d="M1006.17 627.308C1006.17 635.477 1015.22 625.383 1009.06 625.383C1007.48 625.383 1006.17 625.959 1006.17 627.308Z" fill="#EEEEEE"/>
<path fill-rule="evenodd" clip-rule="evenodd" d="M573.307 915.946C577.044 915.635 575.813 915.077 580.04 914.984V912.097C579.067 912.178 578.043 912.402 577.506 912.457C572.561 912.96 573.307 911.608 573.307 915.946Z" fill="#EEEEEE"/>
<path fill-rule="evenodd" clip-rule="evenodd" d="M542.525 800.491C544.54 800.491 545.554 799.876 545.185 797.909C544.721 795.431 543.259 795.74 540.601 795.68C540.648 797.802 540.307 800.491 542.525 800.491Z" fill="#EEEEEE"/>
<path fill-rule="evenodd" clip-rule="evenodd" d="M736.833 876.497C744.206 876.333 742.801 871.687 737.795 871.687C736.685 874.002 736.833 872.939 736.833 876.497Z" fill="#EEEEEE"/>
<path fill-rule="evenodd" clip-rule="evenodd" d="M722.405 871.688C722.679 874.188 723.111 875.483 725.118 875.178C727.523 874.811 727.157 873.321 727.214 870.725C725.181 870.771 723.41 870.555 722.405 871.688Z" fill="#EEEEEE"/>
<path fill-rule="evenodd" clip-rule="evenodd" d="M1158.16 743.725C1161.94 743.641 1160.41 743.989 1162.97 742.763C1162.08 739.436 1162.44 739.803 1159.12 738.915C1158.01 741.229 1158.16 740.166 1158.16 743.725Z" fill="#EEEEEE"/>
<path fill-rule="evenodd" clip-rule="evenodd" d="M544.449 812.997C547.002 814.223 545.479 813.875 549.258 813.96C549.195 811.136 550.008 809.614 547.55 809.539C545.245 809.467 544.93 811.193 544.449 812.997Z" fill="#EEEEEE"/>
<path fill-rule="evenodd" clip-rule="evenodd" d="M477.114 753.346H479.038C477.975 748.782 478.864 749.373 478.076 745.649C471.787 748.978 476.609 747.27 477.114 753.346Z" fill="#EEEEEE"/>
<path fill-rule="evenodd" clip-rule="evenodd" d="M549.258 821.657C551.199 817.611 550.432 816.958 545.41 816.846C545.737 820.77 545.906 820.762 549.258 821.657Z" fill="#EEEEEE"/>
<path fill-rule="evenodd" clip-rule="evenodd" d="M967.695 642.701C969.889 642.19 969.908 641.955 972.505 641.739C971.635 643.494 971.763 642.942 971.543 645.587H973.467C973.467 645.086 973.52 643.138 973.427 642.741L969.619 637.89C968.57 639.873 968.285 640.17 967.695 642.701Z" fill="#EEEEEE"/>
<path fill-rule="evenodd" clip-rule="evenodd" d="M384.77 844.749L387.655 838.015C384.271 838.385 380.097 841.326 384.77 844.749Z" fill="#EEEEEE"/>
<path fill-rule="evenodd" clip-rule="evenodd" d="M735.871 863.992C740.815 863.882 738.633 864.863 740.681 862.067C738.633 859.273 740.815 860.253 735.871 860.143V863.992Z" fill="#EEEEEE"/>
<path fill-rule="evenodd" clip-rule="evenodd" d="M707.976 848.596C709.835 849.364 711.889 849.364 713.748 848.596C713.314 846.972 713.689 845.239 710.115 845.963C707.334 846.526 708.009 847.421 707.976 848.596Z" fill="#EEEEEE"/>
<path fill-rule="evenodd" clip-rule="evenodd" d="M464.61 751.421C463.091 754.586 463.842 754.859 464.61 758.156H466.533C466.419 753.065 465.659 755.553 466.533 751.421H464.61Z" fill="#EEEEEE"/>
<path fill-rule="evenodd" clip-rule="evenodd" d="M722.405 911.135V914.022C726.965 913.92 726.219 914.059 728.176 911.135C724.644 910.841 725.231 910.119 722.405 911.135Z" fill="#EEEEEE"/>
<path fill-rule="evenodd" clip-rule="evenodd" d="M485.771 757.194L483.001 755.13C482.886 761.777 481.73 759.865 485.771 762.004V757.194Z" fill="#EEEEEE"/>
<path fill-rule="evenodd" clip-rule="evenodd" d="M1231.26 727.368V729.293C1235.06 729.293 1235.17 728.99 1238 728.331V726.406C1234.7 726.479 1234.25 727.055 1231.26 727.368Z" fill="#EEEEEE"/>
<path fill-rule="evenodd" clip-rule="evenodd" d="M1227.41 724.483C1229.61 727.474 1229.83 725.445 1236.07 725.445V723.521C1231.72 723.617 1232.25 724.483 1227.41 724.483Z" fill="#EEEEEE"/>
<path fill-rule="evenodd" clip-rule="evenodd" d="M909.98 706.202C908.324 709.655 908.282 709.063 910.942 711.012C913.897 708.846 912.494 711.632 912.866 707.164C911.569 706.435 911.803 706.638 909.98 706.202Z" fill="#EEEEEE"/>
<path fill-rule="evenodd" clip-rule="evenodd" d="M721.443 900.551C723.31 900.055 722.931 900.374 724.329 899.589C722.875 894.145 722.002 895.329 720.481 894.778C721.009 897.043 721.377 897.62 721.443 900.551Z" fill="#EEEEEE"/>
<path fill-rule="evenodd" clip-rule="evenodd" d="M1042.73 816.847C1042.5 814.19 1042.1 810.861 1039.84 810.112C1039.84 816.619 1038.68 814.707 1042.73 816.847Z" fill="#EEEEEE"/>
<path fill-rule="evenodd" clip-rule="evenodd" d="M1098.52 753.346L1096.64 754.39L1096.59 759.119C1099.88 757.377 1100.76 758.022 1098.52 753.346Z" fill="#EEEEEE"/>
<path fill-rule="evenodd" clip-rule="evenodd" d="M1169.7 729.294C1171.16 726.245 1171.16 726.569 1169.7 723.521C1166.71 725.71 1166.71 727.105 1169.7 729.294Z" fill="#EEEEEE"/>
<path fill-rule="evenodd" clip-rule="evenodd" d="M920.561 705.239L917.882 702.147C916.498 704.113 914.832 704.775 916.405 706.348C918.014 707.957 916.698 706.271 920.561 705.239Z" fill="#EEEEEE"/>
<path fill-rule="evenodd" clip-rule="evenodd" d="M1219.72 729.293V730.255C1224.89 730.255 1226.15 731.37 1228.38 728.331C1223.49 728.331 1223.99 729.293 1219.72 729.293Z" fill="#EEEEEE"/>
<path fill-rule="evenodd" clip-rule="evenodd" d="M537.715 863.992C542.182 863.62 539.397 865.023 541.563 862.067L539.831 859.95C537.178 861.946 537.715 859.81 537.715 863.992Z" fill="#EEEEEE"/>
<path fill-rule="evenodd" clip-rule="evenodd" d="M1010.98 622.498L1013.1 620.766C1010.74 617.617 1013.53 619.021 1009.06 618.649C1009.42 622.947 1008.01 620.429 1010.98 622.498Z" fill="#EEEEEE"/>
<path fill-rule="evenodd" clip-rule="evenodd" d="M1019.45 623.268C1021.81 626.416 1019.02 625.012 1023.49 625.384C1023.12 620.916 1024.52 623.702 1021.56 621.536L1019.45 623.268Z" fill="#EEEEEE"/>
<path fill-rule="evenodd" clip-rule="evenodd" d="M415.551 838.014H417.475V833.203H415.551C414.76 836.943 414.76 834.274 415.551 838.014Z" fill="#EEEEEE"/>
<path fill-rule="evenodd" clip-rule="evenodd" d="M541.563 874.574C542.702 877.721 540.315 875.273 544.449 877.46C545.319 875.705 545.191 876.257 545.41 873.612C543.837 873.746 542.419 873.609 541.563 874.574Z" fill="#EEEEEE"/>
<path fill-rule="evenodd" clip-rule="evenodd" d="M1178.36 723.52C1177.7 720.774 1178.5 722.072 1176.43 720.634C1173.48 722.799 1174.88 720.014 1174.51 724.482L1178.36 723.52Z" fill="#EEEEEE"/>
<path fill-rule="evenodd" clip-rule="evenodd" d="M1045.61 817.809C1048.36 821.56 1045.6 817.547 1051.38 818.771V816.847C1049.09 816.847 1046.69 816.592 1045.61 817.809Z" fill="#EEEEEE"/>
<path fill-rule="evenodd" clip-rule="evenodd" d="M449.218 764.891C448.707 762.698 448.472 762.679 448.256 760.081H446.332C446.434 764.63 445.354 763.859 449.218 764.891Z" fill="#EEEEEE"/>
<path fill-rule="evenodd" clip-rule="evenodd" d="M567.535 842.824L564.65 839.937C564.65 843.847 564.328 843.035 565.611 845.71C567.737 844.232 566.807 845.552 567.535 842.824Z" fill="#EEEEEE"/>
<path fill-rule="evenodd" clip-rule="evenodd" d="M1178.36 723.52C1176.68 727.148 1176.56 725.35 1179.32 727.368C1180.54 724.815 1180.2 726.339 1180.28 722.558L1178.36 723.52Z" fill="#EEEEEE"/>
<path fill-rule="evenodd" clip-rule="evenodd" d="M558.878 914.984H561.764V912.097H558.878V914.984Z" fill="#EEEEEE"/>
<path fill-rule="evenodd" clip-rule="evenodd" d="M540.601 846.673H543.487V843.787H540.601V846.673Z" fill="#EEEEEE"/>
<path fill-rule="evenodd" clip-rule="evenodd" d="M992.706 683.11H995.591V680.224H992.706V683.11Z" fill="#EEEEEE"/>
<path fill-rule="evenodd" clip-rule="evenodd" d="M559.84 875.536C562.99 876.994 562.633 877.559 563.688 873.612C561.425 873.8 560.186 873.51 559.84 875.536Z" fill="#EEEEEE"/>
<path fill-rule="evenodd" clip-rule="evenodd" d="M538.677 834.166C538.305 829.697 539.709 832.483 536.753 830.318C535.296 833.469 534.731 833.111 538.677 834.166Z" fill="#EEEEEE"/>
<path fill-rule="evenodd" clip-rule="evenodd" d="M709.9 861.105C709.115 862.503 709.433 862.124 708.938 863.992H711.824V861.105H709.9Z" fill="#EEEEEE"/>
<path fill-rule="evenodd" clip-rule="evenodd" d="M474.229 734.104L472.355 733.06C472.415 738.086 471.434 735.905 474.229 737.953V734.104Z" fill="#EEEEEE"/>
<path fill-rule="evenodd" clip-rule="evenodd" d="M1060.04 823.582C1060.9 823.101 1061.96 822.956 1061.96 821.658C1061.96 818.948 1061.55 819.877 1060.04 818.771V823.582Z" fill="#EEEEEE"/>
<path fill-rule="evenodd" clip-rule="evenodd" d="M526.172 776.438H529.058V773.552C526.861 774.138 526.246 773.771 526.172 776.438Z" fill="#EEEEEE"/>
<path fill-rule="evenodd" clip-rule="evenodd" d="M559.84 885.157V882.271H556.954C557.703 885.077 556.962 884.469 559.84 885.157Z" fill="#EEEEEE"/>
<path fill-rule="evenodd" clip-rule="evenodd" d="M534.83 806.262H531.944C532.717 809.162 531.932 808.375 534.83 809.149V806.262Z" fill="#EEEEEE"/>
<path fill-rule="evenodd" clip-rule="evenodd" d="M1196.63 720.634H1200.48V718.709C1198.22 718.897 1196.98 718.607 1196.63 720.634Z" fill="#EEEEEE"/>
<path fill-rule="evenodd" clip-rule="evenodd" d="M790.701 819.732V815.884H788.777C789.135 820.182 787.725 817.663 790.701 819.732Z" fill="#EEEEEE"/>
<path fill-rule="evenodd" clip-rule="evenodd" d="M536.753 821.658H539.639C538.966 818.845 539.763 820.272 537.715 818.771C537.056 819.945 536.753 819.8 536.753 821.658Z" fill="#EEEEEE"/>
<path fill-rule="evenodd" clip-rule="evenodd" d="M718.557 897.664C719.285 896.368 719.082 896.601 719.519 894.778H716.633C717.265 897.415 716.243 896.277 718.557 897.664Z" fill="#EEEEEE"/>
<path fill-rule="evenodd" clip-rule="evenodd" d="M547.334 792.793C550.147 792.119 548.72 792.916 550.221 790.868C548.925 790.14 549.158 790.343 547.334 789.906V792.793Z" fill="#EEEEEE"/>
<path fill-rule="evenodd" clip-rule="evenodd" d="M562.726 814.923C565.538 814.249 564.111 815.047 565.611 812.999C564.315 812.27 564.548 812.473 562.726 812.036V814.923Z" fill="#EEEEEE"/>
<path fill-rule="evenodd" clip-rule="evenodd" d="M704.129 842.824C706.94 842.15 705.514 842.947 707.014 840.899C705.718 840.171 705.951 840.374 704.129 839.937V842.824Z" fill="#EEEEEE"/>
<path fill-rule="evenodd" clip-rule="evenodd" d="M458.838 758.158H460.762V755.271H458.838V758.158Z" fill="#EEEEEE"/>
<path fill-rule="evenodd" clip-rule="evenodd" d="M1116.79 799.529V794.718C1113.02 797.485 1116.78 799.513 1116.79 799.529Z" fill="#EEEEEE"/>
<path fill-rule="evenodd" clip-rule="evenodd" d="M920.561 705.24C919.69 706.997 919.824 706.444 919.599 709.089H921.523C921.523 708.553 921.542 707.518 921.459 707.229C920.969 705.527 921.145 706.161 920.561 705.24Z" fill="#EEEEEE"/>
<path fill-rule="evenodd" clip-rule="evenodd" d="M1198.56 731.217H1202.4V729.293C1200.25 729.795 1199.68 729.708 1198.56 731.217Z" fill="#EEEEEE"/>
<path fill-rule="evenodd" clip-rule="evenodd" d="M485.771 772.589V768.74H483.848C484.277 770.582 483.29 768.722 484.507 770.967C485.199 772.242 485.11 771.857 485.771 772.589Z" fill="#EEEEEE"/>
<path fill-rule="evenodd" clip-rule="evenodd" d="M1212.02 736.991C1213.86 736.562 1212.01 737.548 1214.25 736.331C1215.49 735.658 1215.17 735.675 1215.87 735.067H1212.02V736.991Z" fill="#EEEEEE"/>
<path fill-rule="evenodd" clip-rule="evenodd" d="M730.1 902.477C728.464 902.914 726.358 903.038 727.948 904.629C729.539 906.22 729.663 904.113 730.1 902.477Z" fill="#EEEEEE"/>
<path fill-rule="evenodd" clip-rule="evenodd" d="M1147.58 734.104V731.218H1144.69C1144.72 731.245 1145.93 732.463 1146.13 732.664C1146.55 733.091 1147.51 734.033 1147.58 734.104Z" fill="#EEEEEE"/>
<path fill-rule="evenodd" clip-rule="evenodd" d="M461.724 765.855V762.968H459.8C460.431 765.606 459.409 764.467 461.724 765.855Z" fill="#EEEEEE"/>
<path fill-rule="evenodd" clip-rule="evenodd" d="M445.37 765.855V762.968H443.447C444.078 765.606 443.057 764.467 445.37 765.855Z" fill="#EEEEEE"/>
<path fill-rule="evenodd" clip-rule="evenodd" d="M1058.12 838.013V835.127H1056.19C1056.82 837.765 1055.8 836.625 1058.12 838.013Z" fill="#EEEEEE"/>
<path fill-rule="evenodd" clip-rule="evenodd" d="M732.986 845.71C732.761 846.218 729.934 846.305 734.91 847.634C734.395 845.709 736.142 847.246 734.138 845.661C732.443 844.321 734.278 845.139 732.986 845.71Z" fill="#EEEEEE"/>
<path fill-rule="evenodd" clip-rule="evenodd" d="M1045.61 811.073C1047.74 809.595 1046.81 810.915 1047.53 808.187H1045.61V811.073Z" fill="#EEEEEE"/>
<path fill-rule="evenodd" clip-rule="evenodd" d="M513.668 753.347C514.304 752.615 514.307 753.078 514.932 751.725C515.834 749.768 515.178 751.274 515.591 749.499C513.13 751.301 513.668 749.166 513.668 753.347Z" fill="#EEEEEE"/>
<path fill-rule="evenodd" clip-rule="evenodd" d="M487.695 770.664H488.657V766.815H487.695V770.664Z" fill="#EEEEEE"/>
<path fill-rule="evenodd" clip-rule="evenodd" d="M445.37 775.475H446.332V771.627H445.37V775.475Z" fill="#EEEEEE"/>
<path fill-rule="evenodd" clip-rule="evenodd" d="M1070.62 825.507C1073.61 823.349 1073.61 824.778 1070.62 822.621V825.507Z" fill="#EEEEEE"/>
<path fill-rule="evenodd" clip-rule="evenodd" d="M1203.37 739.877C1203.56 740.003 1203.83 740.008 1203.94 740.266L1207.21 740.839C1205.82 738.91 1206.12 738.889 1203.37 739.877Z" fill="#EEEEEE"/>
<path fill-rule="evenodd" clip-rule="evenodd" d="M465.571 763.93H466.533V761.043H465.571V763.93Z" fill="#EEEEEE"/>
<path fill-rule="evenodd" clip-rule="evenodd" d="M496.353 767.779H497.315V764.893H496.353V767.779Z" fill="#EEEEEE"/>
<path fill-rule="evenodd" clip-rule="evenodd" d="M898.437 707.165C899.06 709.516 898.011 708.465 900.361 709.089C899.697 706.588 900.718 708.015 898.437 707.165Z" fill="#EEEEEE"/>
<path fill-rule="evenodd" clip-rule="evenodd" d="M477.114 724.482C478.103 725.471 480.594 723.098 478.23 723.963C478.206 723.972 475.5 722.868 477.114 724.482Z" fill="#EEEEEE"/>
<path fill-rule="evenodd" clip-rule="evenodd" d="M729.138 876.498C730.126 877.487 732.618 875.114 730.254 875.979C730.23 875.988 727.523 874.884 729.138 876.498Z" fill="#EEEEEE"/>
<path fill-rule="evenodd" clip-rule="evenodd" d="M561.764 840.899C562.751 841.888 565.243 839.514 562.879 840.38C562.856 840.389 560.149 839.284 561.764 840.899Z" fill="#EEEEEE"/>
<path fill-rule="evenodd" clip-rule="evenodd" d="M739.719 880.346C740.707 881.334 743.199 878.962 740.835 879.827C740.812 879.835 738.105 878.731 739.719 880.346Z" fill="#EEEEEE"/>
<path fill-rule="evenodd" clip-rule="evenodd" d="M530.982 850.521C531.97 851.509 534.462 849.136 532.097 850.002C532.074 850.01 529.367 848.906 530.982 850.521Z" fill="#EEEEEE"/>
<path fill-rule="evenodd" clip-rule="evenodd" d="M384.77 833.202C385.758 834.191 388.249 831.817 385.885 832.683C385.862 832.692 383.155 831.587 384.77 833.202Z" fill="#EEEEEE"/>
<path fill-rule="evenodd" clip-rule="evenodd" d="M384.77 837.052C385.758 838.039 388.249 835.667 385.885 836.533C385.862 836.541 383.155 835.437 384.77 837.052Z" fill="#EEEEEE"/>
<path fill-rule="evenodd" clip-rule="evenodd" d="M1224.53 721.596C1225.52 722.583 1228.01 720.211 1225.64 721.076C1225.62 721.084 1222.91 719.981 1224.53 721.596Z" fill="#EEEEEE"/>
<path fill-rule="evenodd" clip-rule="evenodd" d="M559.84 804.339C559.84 805.47 561.91 806.507 561.329 804.339C560.746 802.165 563.776 804.313 560.885 804.053C559.673 803.945 559.84 802.383 559.84 804.339Z" fill="#EEEEEE"/>
<path fill-rule="evenodd" clip-rule="evenodd" d="M1147.57 750.46C1147.57 751.591 1149.65 752.628 1149.06 750.46C1148.48 748.286 1151.51 750.434 1148.62 750.175C1147.41 750.066 1147.57 748.504 1147.57 750.46Z" fill="#EEEEEE"/>
<path fill-rule="evenodd" clip-rule="evenodd" d="M558.878 838.976C558.878 840.107 560.948 841.144 560.367 838.976C559.784 836.802 562.814 838.95 559.923 838.691C558.711 838.583 558.878 837.02 558.878 838.976Z" fill="#EEEEEE"/>
<path fill-rule="evenodd" clip-rule="evenodd" d="M559.84 850.52C559.84 851.651 561.91 852.688 561.329 850.52C560.746 848.347 563.776 850.494 560.885 850.235C559.673 850.126 559.84 848.565 559.84 850.52Z" fill="#EEEEEE"/>
<path fill-rule="evenodd" clip-rule="evenodd" d="M993.668 638.853C993.668 639.985 995.737 641.021 995.157 638.853C994.574 636.68 997.603 638.828 994.712 638.568C993.5 638.46 993.668 636.898 993.668 638.853Z" fill="#EEEEEE"/>
<path fill-rule="evenodd" clip-rule="evenodd" d="M725.29 878.424C725.29 879.554 727.36 880.591 726.779 878.424C726.197 876.249 729.227 878.397 726.335 878.138C725.123 878.029 725.29 876.468 725.29 878.424Z" fill="#EEEEEE"/>
<path fill-rule="evenodd" clip-rule="evenodd" d="M382.846 847.635C382.885 847.953 383.907 847.85 383.992 847.818C384.232 847.729 385.663 850.045 384.409 847.56C384.406 847.553 384.275 847.394 384.259 847.389C382.806 847.01 382.635 845.94 382.846 847.635Z" fill="#EEEEEE"/>
<path fill-rule="evenodd" clip-rule="evenodd" d="M566.573 902.476C566.573 904.866 568.111 902.722 567.17 902.476C567.158 902.472 566.573 899.746 566.573 902.476Z" fill="#EEEEEE"/>
<path fill-rule="evenodd" clip-rule="evenodd" d="M535.791 863.028C535.791 865.419 537.33 863.275 536.388 863.028C536.377 863.026 535.791 860.299 535.791 863.028Z" fill="#EEEEEE"/>
<path fill-rule="evenodd" clip-rule="evenodd" d="M715.671 872.651C715.671 875.041 717.21 872.896 716.268 872.651C716.256 872.647 715.671 869.92 715.671 872.651Z" fill="#EEEEEE"/>
<path fill-rule="evenodd" clip-rule="evenodd" d="M1169.7 715.823C1169.7 718.213 1171.24 716.069 1170.3 715.823C1170.28 715.819 1169.7 713.092 1169.7 715.823Z" fill="#EEEEEE"/>
<path fill-rule="evenodd" clip-rule="evenodd" d="M1040.8 807.225C1040.8 809.615 1042.34 807.471 1041.4 807.225C1041.39 807.222 1040.8 804.495 1040.8 807.225Z" fill="#EEEEEE"/>
<path fill-rule="evenodd" clip-rule="evenodd" d="M938.837 692.732C938.837 695.122 940.375 692.977 939.434 692.732C939.422 692.728 938.837 690.002 938.837 692.732Z" fill="#EEEEEE"/>
<path fill-rule="evenodd" clip-rule="evenodd" d="M453.066 755.271C453.066 757.662 454.604 755.517 453.663 755.271C453.651 755.269 453.066 752.542 453.066 755.271Z" fill="#EEEEEE"/>
<path fill-rule="evenodd" clip-rule="evenodd" d="M382.846 836.089C382.846 838.479 384.384 836.334 383.442 836.089C383.431 836.085 382.846 833.358 382.846 836.089Z" fill="#EEEEEE"/>
<path fill-rule="evenodd" clip-rule="evenodd" d="M552.145 901.513C552.145 903.903 553.682 901.759 552.741 901.513C552.729 901.51 552.145 898.783 552.145 901.513Z" fill="#EEEEEE"/>
<path fill-rule="evenodd" clip-rule="evenodd" d="M1081.2 817.809C1081.2 820.199 1082.74 818.055 1081.8 817.809C1081.79 817.806 1081.2 815.08 1081.2 817.809Z" fill="#EEEEEE"/>
<path fill-rule="evenodd" clip-rule="evenodd" d="M473.267 752.384C473.267 754.774 474.805 752.63 473.863 752.384C473.851 752.381 473.267 749.655 473.267 752.384Z" fill="#EEEEEE"/>
<path fill-rule="evenodd" clip-rule="evenodd" d="M721.443 900.552L719.327 902.284C722.019 901.813 720.592 902.833 721.443 900.552Z" fill="#EEEEEE"/>
<path fill-rule="evenodd" clip-rule="evenodd" d="M420.361 830.318C420.984 832.669 419.934 831.618 422.285 832.242L420.361 830.318Z" fill="#DBDBDB"/>
<path fill-rule="evenodd" clip-rule="evenodd" d="M744.529 877.46C742.859 879.131 745.706 878.078 744.794 877.441C744.787 877.435 744.591 877.398 744.529 877.46Z" fill="#EEEEEE"/>
<path fill-rule="evenodd" clip-rule="evenodd" d="M909.98 706.203V705.24L908.858 706.042L909.98 706.203Z" fill="#EEEEEE"/>
<path fill-rule="evenodd" clip-rule="evenodd" d="M1347.66 709.089V710.051L1348.78 709.25L1347.66 709.089Z" fill="#EEEEEE"/>
<path fill-rule="evenodd" clip-rule="evenodd" d="M1110.06 765.855V764.893L1108.94 765.694L1110.06 765.855Z" fill="#EEEEEE"/>
<path fill-rule="evenodd" clip-rule="evenodd" d="M1169.7 729.293V730.255L1170.82 729.453L1169.7 729.293Z" fill="#EEEEEE"/>
<path fill-rule="evenodd" clip-rule="evenodd" d="M750.301 853.408V854.37L751.423 853.569L750.301 853.408Z" fill="#EEEEEE"/>
<path fill-rule="evenodd" clip-rule="evenodd" d="M379.96 838.975H380.922L380.12 837.852L379.96 838.975Z" fill="#EEEEEE"/>
<path fill-rule="evenodd" clip-rule="evenodd" d="M404.97 850.521V851.483L406.092 850.682L404.97 850.521Z" fill="#EEEEEE"/>
<path fill-rule="evenodd" clip-rule="evenodd" d="M566.573 853.406C566.669 853.502 566.86 852.985 566.86 853.119C566.841 853.138 566.477 853.311 566.573 853.406Z" fill="#EEEEEE"/>
<path fill-rule="evenodd" clip-rule="evenodd" d="M574.269 881.309C574.365 881.405 574.555 880.888 574.555 881.022H574.556C574.536 881.041 574.173 881.214 574.269 881.309Z" fill="#EEEEEE"/>
<path fill-rule="evenodd" clip-rule="evenodd" d="M1102.36 780.287C1102.46 780.383 1102.65 779.864 1102.65 780H1102.65C1102.63 780.019 1102.27 780.191 1102.36 780.287Z" fill="#EEEEEE"/>
<path fill-rule="evenodd" clip-rule="evenodd" d="M1050.42 815.884C1050.52 815.98 1050.71 815.462 1050.71 815.597C1050.69 815.616 1050.33 815.789 1050.42 815.884Z" fill="#EEEEEE"/>
<path fill-rule="evenodd" clip-rule="evenodd" d="M719.519 892.854C719.615 892.95 719.805 892.432 719.806 892.566V892.567C719.787 892.586 719.423 892.759 719.519 892.854Z" fill="#EEEEEE"/>
<path fill-rule="evenodd" clip-rule="evenodd" d="M729.138 842.826C729.234 842.921 729.424 842.403 729.425 842.538V842.538C729.406 842.557 729.042 842.73 729.138 842.826Z" fill="#EEEEEE"/>
<path fill-rule="evenodd" clip-rule="evenodd" d="M864.77 787.021C864.865 787.117 865.056 786.599 865.056 786.734H865.057C865.037 786.753 864.674 786.926 864.77 787.021Z" fill="#EEEEEE"/>
<path fill-rule="evenodd" clip-rule="evenodd" d="M525.21 763.929C525.306 764.025 525.497 763.506 525.497 763.641L525.498 763.642C525.478 763.661 525.115 763.833 525.21 763.929Z" fill="#EEEEEE"/>
<path fill-rule="evenodd" clip-rule="evenodd" d="M1081.2 820.694C1081.3 820.79 1081.49 820.272 1081.49 820.407V820.408C1081.47 820.426 1081.11 820.599 1081.2 820.694Z" fill="#EEEEEE"/>
<path fill-rule="evenodd" clip-rule="evenodd" d="M714.71 848.597C714.805 848.693 714.996 848.175 714.996 848.31L714.997 848.311C714.977 848.329 714.614 848.501 714.71 848.597Z" fill="#EEEEEE"/>
<path fill-rule="evenodd" clip-rule="evenodd" d="M473.267 757.195L473.554 756.908C473.534 756.927 473.171 757.099 473.267 757.195Z" fill="#EEEEEE"/>
<path fill-rule="evenodd" clip-rule="evenodd" d="M452.104 759.12L452.391 758.833C452.372 758.851 452.009 759.024 452.104 759.12Z" fill="#EEEEEE"/>
<path fill-rule="evenodd" clip-rule="evenodd" d="M454.028 765.854L454.315 765.567C454.296 765.586 453.933 765.759 454.028 765.854Z" fill="#EEEEEE"/>
<path fill-rule="evenodd" clip-rule="evenodd" d="M1051.38 821.658L1051.67 821.371C1051.65 821.389 1051.29 821.562 1051.38 821.658Z" fill="#EEEEEE"/>
<path fill-rule="evenodd" clip-rule="evenodd" d="M711.824 875.536L712.111 875.249C712.091 875.268 711.728 875.44 711.824 875.536Z" fill="#EEEEEE"/>
<path fill-rule="evenodd" clip-rule="evenodd" d="M911.904 698.504L912.191 698.217C912.172 698.236 911.808 698.408 911.904 698.504Z" fill="#EEEEEE"/>
<path fill-rule="evenodd" clip-rule="evenodd" d="M911.904 712.937L912.191 712.651C912.172 712.67 911.808 712.842 911.904 712.937Z" fill="#EEEEEE"/>
<path fill-rule="evenodd" clip-rule="evenodd" d="M962.886 648.475L963.173 648.188C963.154 648.207 962.79 648.379 962.886 648.475Z" fill="#EEEEEE"/>
<path fill-rule="evenodd" clip-rule="evenodd" d="M449.218 773.551L449.505 773.264C449.487 773.283 449.123 773.456 449.218 773.551Z" fill="#EEEEEE"/>
<path fill-rule="evenodd" clip-rule="evenodd" d="M1280.32 772.589L1280.61 772.302C1280.59 772.32 1280.23 772.493 1280.32 772.589Z" fill="#EEEEEE"/>
<path fill-rule="evenodd" clip-rule="evenodd" d="M1299.56 780.286L1299.85 779.999C1299.83 780.017 1299.46 780.19 1299.56 780.286Z" fill="#EEEEEE"/>
<path fill-rule="evenodd" clip-rule="evenodd" d="M710.862 853.408L711.149 853.121C711.13 853.139 710.766 853.312 710.862 853.408Z" fill="#EEEEEE"/>
<path fill-rule="evenodd" clip-rule="evenodd" d="M942.686 666.755L943.214 668.824L942.686 666.755Z" fill="#EEEEEE"/>
<path fill-rule="evenodd" clip-rule="evenodd" d="M904.209 707.165L904.738 709.233L904.209 707.165Z" fill="#EEEEEE"/>
</svg>
