<svg width="50" height="13" viewBox="0 0 50 13" fill="none" xmlns="http://www.w3.org/2000/svg">
<path d="M39.241 0.561863C38.999 0.428785 38.695 0.517051 38.5619 0.759012C38.4288 1.00097 38.5171 1.305 38.759 1.43808L47.0534 5.99997H1C0.723858 5.99997 0.5 6.22383 0.5 6.49997C0.5 6.77611 0.723858 6.99997 1 6.99997H47.0534L38.759 11.5619C38.5171 11.6949 38.4288 11.999 38.5619 12.2409C38.695 12.4829 38.999 12.5712 39.241 12.4381L49.241 6.93808C49.4007 6.8502 49.5 6.68232 49.5 6.49997C49.5 6.31763 49.4007 6.14974 49.241 6.06186L39.241 0.561863Z" fill="white"/>
</svg>
