<svg width="183" height="86" viewBox="0 0 183 86" fill="none" xmlns="http://www.w3.org/2000/svg">
<path d="M92.5598 42.4137L92.6924 42.5208L92.8912 42.4748C92.8709 42.5513 92.881 42.6024 92.9167 42.6228C92.9983 42.6941 93.2023 42.7299 93.5337 42.7299H93.6204L93.7274 42.7552C93.8141 42.7655 93.8804 42.7655 93.9211 42.7552L93.8906 42.8469C93.9211 42.8572 93.9365 42.8572 93.9365 42.8469V42.8011C93.9365 42.7706 93.9671 42.7655 94.0385 42.7858C94.0181 42.7961 94.013 42.8165 94.0231 42.8469V42.8777V42.9082C94.064 42.9082 94.0946 42.903 94.115 42.8929L94.1456 42.8469C94.166 42.8165 94.1966 42.8062 94.2476 42.8164C94.2578 42.8164 94.2526 42.8216 94.2322 42.8318L94.1762 42.8623C94.1353 42.8929 94.1507 42.9133 94.217 42.9235C94.2271 42.9235 94.2373 42.9184 94.2476 42.9082L94.2628 42.8777C94.2832 42.9439 94.329 42.9949 94.3954 43.0255C94.4769 43.0662 94.5688 43.0662 94.6656 43.0255L94.6504 43.056L94.6044 43.0866C94.5891 43.1172 94.5789 43.1427 94.5789 43.158H94.5943L94.6198 43.1172L94.6504 43.0866L94.6198 43.158H94.6963C94.7268 43.1427 94.7473 43.1275 94.7575 43.1172L94.7421 43.158L94.9054 43.1478L95.0124 43.1172L95.0991 43.102C95.1806 43.0816 95.2215 43.0662 95.2215 43.056C95.3592 42.8062 95.4509 42.587 95.4865 42.3985L95.3999 42.3831C95.3693 42.3728 95.3489 42.3627 95.3387 42.3525C95.3183 42.3424 95.3183 42.327 95.3387 42.3066L95.3999 42.2811C95.4561 42.2608 95.4764 42.2353 95.4561 42.2046L95.3541 42.1894L95.5324 42.0874C95.5324 41.9956 95.5223 41.8989 95.5019 41.8019C95.4509 41.8019 95.4254 41.7969 95.4153 41.7867C95.4051 41.7663 95.4051 41.7458 95.4153 41.7254L95.4561 41.6541L95.4458 41.6388L95.3999 41.6235L95.3541 41.6082L95.3999 41.5471L95.2622 41.3381L95.145 41.1138C95.0226 40.9252 94.9307 40.7721 94.8595 40.6498C94.7524 40.5428 94.686 40.4662 94.6656 40.4255C94.6656 40.3899 94.6809 40.3439 94.7117 40.2931L94.7575 40.2318L94.788 40.1757C94.7064 40.1553 94.6248 40.1247 94.5484 40.084L94.3545 39.9666C94.1914 39.8443 94.0487 39.773 93.9211 39.7526L93.9519 39.7119V39.6506C93.9569 39.6099 93.9416 39.5793 93.8906 39.5589C93.702 39.4824 93.5542 39.406 93.4572 39.3346C93.3093 39.2275 93.2124 39.1103 93.1716 38.9777C93.1716 38.9471 93.1869 38.9165 93.2174 38.891L93.2787 38.8147C93.3348 38.7534 93.3603 38.7177 93.3502 38.7074C93.3297 38.6718 93.2787 38.6515 93.1869 38.6515H93.085C93.0545 38.6515 93.034 38.6362 93.0237 38.6055C92.8351 38.8758 92.6924 39.1868 92.6056 39.5487L92.575 39.7526L92.5445 39.9362L92.468 40.3083C92.5291 40.4051 92.5394 40.6549 92.4987 41.0525C92.4629 41.4349 92.4119 41.6847 92.3508 41.8173V41.8478C92.2896 42.0263 92.315 42.1792 92.4271 42.3066L92.5598 42.4137Z" fill="white"/>
<path d="M112.628 59.8473C112.021 60.2004 111.227 60.5708 110.496 60.5984C110.28 60.6064 110.082 60.5826 109.903 60.5262C109.715 60.4705 109.535 60.3755 109.363 60.2442C108.503 59.5862 108.082 58.7222 107.913 57.6805L107.797 56.9682L108.502 57.1166C108.844 57.1886 109.095 57.2142 109.254 57.1938L109.275 57.19C110.198 57.1108 111.092 56.909 111.956 56.5835C113.329 56.0659 114.635 55.2417 115.665 54.1922C116.012 53.8386 116.311 53.4744 116.563 53.0992C116.967 52.4071 117.172 51.8045 117.311 51.0282C117.797 48.3354 115.703 46.4233 113.185 46.3144C111.837 46.2819 110.89 46.6187 109.744 47.3955C107.408 48.9784 105.395 52.7799 105.151 55.3669C105.031 56.6414 105.159 57.9691 105.596 59.1768C105.883 59.968 106.261 60.6187 106.824 61.2429C107.177 61.6814 107.699 62.1219 108.193 62.3912C108.67 62.6507 109.183 62.8023 109.733 62.8452C111.126 62.8781 112.948 61.994 114.119 61.3018C114.597 61.0195 115.058 60.7105 115.502 60.3752L115.504 60.3473C115.516 60.2027 115.571 60.0353 115.667 59.8473L115.685 59.8125C115.85 59.5435 116.011 59.2944 116.186 59.0307C116.276 58.8955 116.35 58.777 116.407 58.6756L116.154 58.6485C116.217 58.6001 116.267 58.5607 116.307 58.5308C116.553 58.3434 116.669 58.2229 116.66 58.1782C116.615 57.9952 116.669 57.79 116.816 57.5667C116.923 57.4016 117.048 57.2365 117.196 57.0801C117.397 56.8884 117.646 56.6963 117.941 56.5044C118.222 56.3393 118.562 56.2098 118.964 56.1116C119.216 56.0612 119.71 56.0342 119.906 55.9688C119.972 55.951 119.982 55.9286 119.932 55.9063C119.756 55.818 119.414 55.8782 119.209 55.8259C119.142 55.8171 119.151 55.7947 119.236 55.759C118.714 55.8573 118.124 56.076 117.472 56.4152C117.035 56.6428 116.58 56.9196 116.097 57.2499C115.713 57.5221 115.307 57.8256 114.883 58.1649C114.093 58.8089 113.513 59.3328 112.628 59.8473ZM111.477 50.1322C111.793 49.9256 112.121 49.7643 112.461 49.6497C113.349 49.3248 114.291 49.4344 113.936 50.848C113.306 53.3229 110.093 54.8808 107.887 55.6423C108.425 54.0501 107.97 55.1017 108.561 53.7694C108.674 53.5145 108.796 53.2712 108.925 53.042C109.138 52.6592 109.381 52.2894 109.654 51.9312C109.926 51.5749 110.228 51.2268 110.562 50.8862C110.633 50.755 111.317 50.2366 111.477 50.1322Z" fill="white"/>
<path d="M48.9374 33.9815C48.3259 34.6507 47.6827 35.489 47.0025 36.501C47.6351 35.7684 48.2466 35.1304 48.8426 34.5821C48.1836 35.2938 47.551 36.0687 46.9443 36.9016C46.4385 37.6026 46.0798 38.1719 45.8638 38.6147C45.3893 39.4792 45.0729 40.1329 44.9199 40.5755C44.8672 40.739 44.8408 40.8497 44.8408 40.9025C44.8514 40.95 44.8829 40.9445 44.9355 40.8867C44.9988 40.8234 45.1784 40.5808 45.4736 40.1591C45.6317 39.9536 45.7634 39.7797 45.8793 39.632C46.0219 39.437 46.1591 39.2684 46.2959 39.126C46.4489 38.9206 46.5543 38.8044 46.6176 38.7833C46.6387 38.7729 46.6598 38.7729 46.6809 38.7833L46.6967 38.7991L46.7125 38.8309C46.7811 38.9046 47.0185 38.6727 47.419 38.135C46.7442 39.1367 46.1695 40.0907 45.7054 41.0077C45.7159 41.0396 45.8163 40.8814 46.0006 40.5282L46.064 40.4069L46.138 40.2699L46.2959 39.9747C46.4277 39.748 46.5437 39.5478 46.6492 39.3739C46.897 38.9573 47.1131 38.6303 47.2978 38.3829C47.4823 38.135 47.5298 38.1139 47.4348 38.3196C46.7072 39.3211 46.0588 40.4967 45.4892 41.8565C45.5314 41.8092 45.6739 41.5456 45.9217 41.071C46.0588 40.8128 46.1747 40.5967 46.2801 40.4227C46.4225 40.1644 46.5543 39.9378 46.6809 39.7426C46.9498 39.3 47.2028 38.9046 47.4506 38.5515C47.546 38.4257 47.6234 38.328 47.6826 38.259C47.6079 38.3949 47.544 38.519 47.4925 38.6286L47.4664 38.6623L47.3135 38.8785C47.0131 39.3 46.7757 39.6532 46.6017 39.943C46.0376 40.8392 45.7741 41.3769 45.8163 41.5667C45.8163 41.5878 45.9269 41.3821 46.1535 40.9604C46.2697 40.7339 46.3644 40.544 46.4489 40.3912C46.5594 40.1749 46.6598 40.0065 46.7442 39.8799C46.2801 40.6862 45.9164 41.4769 45.6581 42.2572C45.4419 42.8897 45.3364 43.3642 45.3364 43.696C45.326 44.0072 45.3628 44.0441 45.4419 43.8175C45.4525 43.7858 45.4788 43.7225 45.521 43.6172L45.5684 43.4799L45.6317 43.3113C45.7425 42.9899 45.874 42.6683 46.0166 42.3363C45.8847 42.679 45.7741 42.9846 45.6898 43.2638C45.5895 43.6226 45.5263 43.9492 45.5051 44.2339C45.4366 44.8928 45.5525 45.3672 45.8638 45.6571V45.6412C45.6951 45.4673 45.5948 45.2459 45.5525 44.9771C45.521 44.8348 45.5103 44.6715 45.521 44.4976C45.521 44.3552 45.5314 44.2075 45.5525 44.0494C45.4577 44.7295 45.5525 45.2302 45.8318 45.5465L45.8005 45.441L45.7685 45.3356C45.6475 45.0562 45.6053 44.6715 45.6475 44.1917C45.6053 44.6134 45.6422 44.9508 45.753 45.2091C45.7212 44.9612 45.7372 44.6819 45.8005 44.3761C45.874 43.7964 46.1113 43.111 46.528 42.3047C46.6598 42.0464 46.8233 41.7563 47.0185 41.4243L47.1291 41.2241L47.2346 41.0396C47.3189 40.8971 47.3822 40.7865 47.419 40.718C49.0782 37.876 50.3856 36.5424 52.6739 34.5309L52.6796 34.5281C53.0758 34.1907 53.4231 33.8994 53.7153 33.6603C57.8936 30.2384 62.1294 26.784 60.1443 33.8791C58.3634 40.365 50.6269 59.8381 49.9227 65.5843C49.7958 66.6199 50.0836 67.2402 51.1023 67.5181C52.5143 67.9034 53.0373 67.0412 53.4441 66.0063C53.5338 65.7787 53.6375 65.5292 53.7553 65.2584C53.8328 65.0712 53.9234 64.8617 54.0255 64.6315C55.8615 60.4983 58.6928 55.6127 61.3825 51.951C62.9488 49.8218 64.4968 47.6565 66.1259 45.5815C66.7064 44.842 67.2854 44.1275 67.8614 43.4392C69.1068 41.9512 70.3361 40.5819 71.737 39.2345C72.0699 38.9143 72.3985 38.6107 72.7228 38.3247C73.5202 37.6212 74.433 36.8675 75.3563 36.3456C75.5386 36.2425 75.7131 36.1531 75.8788 36.0778C76.9343 35.6015 78.043 35.3511 77.9073 36.8685C77.8985 36.9671 77.8881 37.0597 77.8767 37.1465C77.8628 37.251 77.849 37.342 77.8357 37.4189L77.7828 37.6934C77.4715 39.1472 76.9178 40.646 76.3775 42.0344C75.027 45.507 73.6952 48.1005 71.9395 51.3623L69.2598 56.3281C67.9746 58.6868 70.7186 60.6906 72.8941 57.2981C73.1917 56.8341 73.5577 56.2882 73.9918 55.6612C74.4293 55.029 74.9181 54.34 75.457 53.5955L76.6386 51.9775C78.0608 50.0513 79.107 48.6101 81.0631 47.1689C82.4209 46.1686 85.7646 44.6844 85.2766 47.8519L85.2781 47.8522C85.2278 48.1772 85.1172 48.514 85.0123 48.8221C84.9762 48.9279 84.9298 49.0546 84.8725 49.2036C84.4008 50.4307 83.8634 52.1239 83.376 53.8971C83.1779 54.6193 82.8189 55.4817 82.5546 56.3602C82.1544 57.6891 81.6211 59.5386 81.6413 60.3447C81.6535 60.8371 81.661 61.1418 82.0267 60.8708L82.0955 60.7985C82.1573 60.7402 82.1986 60.6954 82.2158 60.668C82.4328 60.288 82.6772 59.9163 82.9039 59.5399C83.2981 58.8789 83.3743 58.8203 83.8911 58.2502C84.2006 57.9202 84.5033 57.6242 84.8061 57.363C85.4974 56.7645 86.2267 56.3105 86.9937 56.0045C87.3447 55.8565 87.723 55.7362 88.1324 55.6401C88.2736 55.6124 88.4214 55.5882 88.5761 55.5609C88.6742 55.5468 88.7708 55.5359 88.8686 55.5195C89.0372 55.4851 89.0543 55.4646 88.9202 55.4577C88.8515 55.4508 88.7584 55.4508 88.638 55.4577C88.5039 55.4646 88.3731 55.4782 88.2528 55.4989C88.0535 55.511 87.8871 55.5578 87.699 55.5815C87.6407 55.5916 87.5993 55.602 87.5785 55.6089C87.4376 55.6296 87.4513 55.6054 87.6199 55.54C86.4092 55.9012 85.1466 56.6957 83.8293 57.9166C83.6021 58.1332 83.351 58.374 83.0828 58.6423L83.0506 58.6758C83.3313 58.0475 83.5931 57.3957 83.8911 56.7783C84.1228 56.3051 84.3676 55.8294 84.5549 55.3373C85.5467 52.8908 87.5026 48.7244 87.9355 46.4522C87.9833 46.2001 88.0126 45.967 88.0224 45.7521C88.087 44.3433 87.3973 43.2952 86.1063 42.8885C85.9734 42.8466 85.8484 42.8176 85.7101 42.7994C85.6444 42.7909 85.5767 42.7849 85.5077 42.7818C84.3668 42.7405 83.2047 43.395 82.2545 44.0137C80.0768 45.4305 78.0817 47.2935 76.0991 48.9715L78.3519 43.6947C78.8365 42.5121 79.2965 41.3553 79.7176 40.1449C80.2399 38.4632 81.2376 35.6361 79.5229 34.2686L79.3585 34.148L79.3087 34.1019C77.4677 32.4156 75.0042 33.3889 73.1701 34.5801C72.8558 34.7889 72.5378 35.014 72.2171 35.2549C71.0814 36.1084 70.0124 37.0689 68.9917 38.0558C68.4521 38.5882 67.9115 39.1425 67.3717 39.719C66.19 40.981 65.06 42.2912 63.9643 43.6282C63.3726 44.3503 62.7665 45.1104 62.1471 45.908L58.6372 50.427C59.3058 48.3867 59.9765 46.3469 60.6421 44.3055C61.321 42.1744 61.9723 40.0248 62.6009 37.8778C63.3196 35.4219 64.0273 32.9432 64.4384 30.4145C64.4513 30.3282 64.4624 30.2437 64.4716 30.1619L64.4955 29.9141C64.5034 29.8163 64.5093 29.7362 64.5119 29.6764C64.5056 27.6419 62.6596 25.9902 60.6229 26.1987L60.5864 26.2027C56.9167 26.4552 51.7854 30.8808 48.9374 33.9815Z" fill="white"/>
<path d="M154.253 58.5863C153.646 58.9394 152.852 59.3097 152.121 59.3374C151.275 59.3685 150.361 58.6008 150.013 57.8583C149.623 57.1878 149.544 56.4569 149.422 55.7072C151.09 56.0582 151.947 55.9385 153.581 55.3225C154.954 54.8049 156.26 53.9806 157.29 52.9312C158.231 51.9732 158.696 51.1052 158.936 49.7672C159.74 45.3071 154.651 43.9102 151.369 46.1344C149.033 47.7174 147.02 51.5189 146.776 54.1059C146.656 55.3803 146.784 56.7081 147.221 57.9157C147.679 59.1793 148.635 60.4856 149.818 61.1302C151.732 62.1723 154.027 61.0556 155.744 60.0408C156.222 59.7585 156.683 59.4495 157.127 59.1142C157.172 58.5832 157.755 57.9072 158.032 57.4146L157.779 57.3875C157.842 57.3391 157.892 57.2997 157.932 57.2698C158.178 57.0824 158.294 56.9619 158.285 56.9172C158.24 56.7342 158.294 56.5289 158.441 56.3057C158.945 55.5298 159.704 55.0667 160.589 54.8506C160.745 54.8194 160.944 54.7975 161.154 54.7707C161.254 54.7603 161.446 54.7359 161.53 54.7077C161.597 54.69 161.607 54.6676 161.557 54.6453C161.378 54.5558 161.028 54.6143 160.834 54.5649C160.767 54.5561 160.776 54.5337 160.861 54.4979C160.339 54.5962 159.749 54.815 159.097 55.1541C158.66 55.3818 158.205 55.6585 157.722 55.9889C157.338 56.2611 156.932 56.5645 156.508 56.9038C155.718 57.5479 155.138 58.0718 154.253 58.5863ZM154.086 48.3887C157.32 47.206 155.608 52.2774 149.512 54.3813C150.302 52.0446 151.545 49.245 154.086 48.3887Z" fill="white"/>
<path fill-rule="evenodd" clip-rule="evenodd" d="M10.6862 19.5158C11.6004 17.4585 13.9589 13.5116 19.1543 11.5238C20.3887 11.0514 24.8641 9.38664 25.1164 7.96452C25.1164 7.96452 24.2237 13.1792 23.5731 13.6742C22.9225 14.1693 27.3587 10.3175 27.3587 10.3175C27.3587 10.3175 35.6359 13.0774 41.0718 12.2028C42.731 11.9357 43.9383 11.4214 44.979 10.8652C44.979 10.8652 43.4389 13.5805 40.6524 15.2372C43.4065 14.5524 47.4898 13.0901 48.9712 10.5552C48.9712 10.5552 48.2 13.6965 47.4527 13.9968C49.2683 13.2671 50.5767 12.8291 52.2131 11.7404C55.0191 9.87347 57.7036 7.72864 60.6025 6.03271C64.8078 3.57231 69.3866 2.00706 74.1606 1.08203C80.5258 -0.15125 86.6944 -0.487623 93.0191 0.908126C96.0495 1.57677 99.0459 2.54238 101.903 3.75339C106.573 5.73267 114.159 9.19721 118.595 11.7065C120.027 12.5173 121.512 13.3376 122.7 13.6474C124.858 14.2105 129.463 13.939 129.463 13.939C128.33 14.336 127.118 14.8287 125.955 15.0984C128.674 15.6033 131.963 14.3543 134.582 13.5521C134.582 13.5521 133.827 14.2711 132.823 15.0757C130.891 16.6234 126.349 18.3929 123.975 18.5545C123.975 18.5545 124.346 18.7216 124.806 18.8649C127.468 19.6956 132.197 17.209 132.197 17.209C132.197 17.209 128.229 22.7215 120.933 23.3109C116.788 23.6461 113.769 21.7405 111.596 19.5091C106.546 14.3233 104.585 10.2233 100.823 7.29631C95.4568 3.1221 85.9105 2.01614 79.2213 2.73606C76.2997 3.05046 73.2858 3.71003 70.1811 4.75607C67.5339 5.64813 64.8194 6.82149 62.0386 8.30163C64.1881 8.40242 66.2614 8.98976 68.1775 9.96445C70.1536 10.9699 72.5137 12.6335 73.9496 14.3518C77.8679 17.1304 81.478 16.8828 83.5397 16.6717C86.0298 16.4168 93.4979 14.9553 95.6108 14.1098C96.4136 13.7888 107.871 19.5152 109.256 20.315C115.6 23.9769 111.925 26.8098 109.697 24.6986C108.207 23.2871 109.081 22.603 107.119 21.2907C104.795 19.7357 99.6293 16.9244 96.0089 16.6944C92.3011 16.4587 88.0393 17.8641 84.3697 19.0977C82.9302 19.5817 81.2086 20.2123 79.7714 20.3954C80.5038 21.0423 80.6657 21.2339 81.5155 21.7027C83.175 22.6176 85.7028 22.5948 87.5651 22.6835C90.5691 22.8265 96.0284 22.9938 99.006 22.6317C99.5961 22.534 100.337 22.5054 100.671 23.1395C101.309 24.3524 109.553 30.6393 111.449 32.6286C112.197 33.4131 113.614 35.9424 111.497 36.3381C109.561 36.6998 109.202 33.7071 107.611 32.0925C105.878 30.3342 101.53 26.1762 99.3389 25.2359C98.1973 24.8468 97.1183 25.0672 95.6259 25.1209C89.0716 25.641 87.4065 27.4602 80.3044 26.1913C76.9657 25.5949 73.707 23.2184 70.9761 21.2932C62.9061 15.6039 57.6651 13.5674 50.1478 22.3315C48.7635 23.9452 47.6331 25.669 46.6129 27.3874C45.4025 29.4263 44.2405 31.3831 42.7583 33.008C41.3619 34.5385 39.764 35.6479 37.5212 36.3565C38.4705 38.8336 41.2405 41.8771 42.3738 45.5491C42.9964 47.5665 37.2175 61.5465 36.2071 64.3956C35.4563 66.5129 31.5882 67.2939 29.649 66.4653C29.1586 66.2558 29.1262 65.4649 29.3939 64.9422C30.0642 63.6352 32.9943 63.5799 34.2133 62.7615C35.9057 61.6256 35.8537 60.816 36.4137 58.5211C36.9949 56.1405 37.6987 53.3152 38.4129 51.0042C39.1765 48.5328 38.7587 47.0727 38.6705 46.8259C37.8722 45.6853 34.3991 40.4433 32.22 37.6358C30.0368 37.9837 28.7056 37.9273 26.2651 38.6958C25.0323 39.0839 21.9174 40.5322 20.9014 41.5047C18.7591 43.5556 15.7834 46.6763 13.1463 48.8412C11.0441 50.5666 7.51908 52.569 4.7667 52.4761C-2.14099 52.2432 -0.498178 46.0107 3.15085 48.7822C5.98852 50.7465 9.56736 48.5482 11.7891 46.7411C14.8878 44.2203 18.773 40.3542 19.966 37.9748C20.7237 36.4633 25.9124 29.5506 25.9234 29.0908C25.9262 28.9743 24.8101 27.2338 24.5473 26.7401C24.3267 26.3261 24.0271 25.8463 23.6667 25.3833C23.394 25.0317 23.0885 24.6965 22.7623 24.4189C22.4827 24.1817 22.1879 23.9849 21.885 23.8553C20.9388 23.4501 20.1409 23.2904 19.4616 23.3189C18.8035 23.3463 18.2525 23.5533 17.782 23.8844C17.2958 24.2267 16.8853 24.7063 16.5268 25.262C16.1581 25.8335 15.8438 26.485 15.5573 27.1535C15.3126 27.7302 15.2036 28.2771 14.841 28.8271C14.2273 29.7585 13.4612 29.8139 12.4742 29.5543C11.6035 29.3253 10.556 28.8586 9.81867 28.3442C9.44353 28.0824 9.18563 27.8124 9.13332 27.5793C9.08716 27.3708 9.1298 27.1563 9.22168 26.9307C9.40514 26.479 9.71316 26.0781 9.88724 25.6177C10.1151 25.014 9.85164 25.0392 9.85164 24.6414C9.57087 23.6218 9.15457 22.0741 9.56164 21.0645C9.66656 20.8043 9.86658 20.4766 10.1577 20.1121C10.3099 19.923 10.4861 19.7227 10.6862 19.5158ZM27.0093 30.1928C27.0093 30.1928 29.4021 33.9934 31.2886 36.4436C25.8412 37.3531 26.1967 36.5414 20.0105 39.8962C21.4285 37.0764 26.9087 30.4338 27.0093 30.1928ZM19.8694 17.3065C19.6519 18.3999 18.4531 20.2022 17.3858 20.5611C17.0631 19.5974 18.5462 19.1898 19.221 17.2853C19.2252 17.2709 19.2685 17.1194 19.2796 16.931C19.1926 16.8357 19.1269 16.7366 19.0725 16.6448C16.9018 16.5749 17.0893 18.8582 15.8792 17.8571C15.8816 17.854 16.2829 17.3691 16.8934 16.8968C15.6846 17.1246 13.8422 18.1237 12.8678 18.8303C12.1207 19.3718 10.7476 20.5333 10.3987 21.3997C10.0994 22.1426 10.4836 23.5413 10.7328 24.4457C10.9386 24.8358 10.8928 25.4917 10.7484 25.8917C10.644 26.1805 10.0185 27.2557 10.0136 27.3812C10.0786 27.6761 12.3285 28.5818 12.6809 28.6766C13.1225 28.7954 13.6869 28.7781 13.897 28.2875C14.2174 27.5394 13.1516 26.5256 12.5592 25.5092C12.4273 25.2827 12.4569 24.841 12.324 24.6732L11.3942 23.5013C11.3942 23.5013 12.9525 22.4535 13.3464 22.0161C13.7401 21.5787 13.8071 21.4525 13.8071 21.4525C13.8071 21.4525 13.247 23.4823 13.1116 23.7983C12.9762 24.1144 12.8298 24.8773 13.0136 25.2009C13.1975 25.5246 14.1316 26.505 14.5147 26.5142C14.6595 26.5177 14.8869 26.1219 15.1866 25.6158C15.5763 24.5724 15.9729 23.6024 16.8376 22.9937C17.458 22.557 18.2959 22.3294 19.2623 22.3414C20.1638 22.3526 21.1815 22.5725 22.2389 23.0253C22.6269 23.1915 22.9949 23.4345 23.3364 23.7239C23.7176 24.0466 24.0685 24.43 24.3789 24.8287C27.6718 29.0585 30.0636 32.8578 33.5623 37.3778C35.895 40.3916 36.8828 41.6549 39.3729 43.5062C37.6036 39.7626 35.1353 35.3175 34.6934 31.0353C34.5838 29.9719 34.7117 24.9295 35.3062 24.2135C35.4401 26.8069 35.2167 29.1563 35.5286 31.4079C35.7227 32.8066 36.124 34.168 36.9465 35.5266C39.1607 34.8862 40.7493 33.8714 42.1094 32.3759C43.5252 30.8194 44.6569 28.9134 45.8357 26.9275C46.8765 25.1738 47.9546 23.3586 49.3031 21.6429C56.8295 12.0681 63.1741 14.6886 71.4955 20.5556C74.091 22.3855 77.2942 24.735 80.4625 25.3011C82.7559 25.7108 85.1768 25.4753 87.466 25.1069C88.8429 24.6732 90.0661 24.1946 90.0062 23.9997C89.8959 23.6398 87.5257 23.6382 87.0664 23.6228C84.9191 23.5478 82.7442 23.666 80.8999 22.483C79.3302 21.4758 77.7048 20.0191 76.3957 18.6976C74.5338 16.8182 73.1052 14.6939 71.0874 12.9892C69.1083 11.3171 66.7859 10.0535 64.2433 9.49959C62.2784 9.07165 60.0895 9.166 58.0727 9.31309L60.2732 8.06458C63.6427 6.14654 66.8552 4.75182 69.9762 3.75544C73.0989 2.75862 76.1264 2.16162 79.1259 1.83901C82.3295 1.49429 85.4267 1.5545 88.4172 1.96706C92.9396 2.59073 97.294 3.98882 101.285 6.20192C107.385 9.58398 113.131 18.6706 117.299 19.6424C119.82 20.2302 121.912 18.0824 120.187 16.3137C119.128 15.2284 114.651 12.0877 113.008 10.9128C111.397 9.76066 109.567 8.61397 107.604 7.52969C105.683 6.46841 103.64 5.46896 101.552 4.58407C98.7479 3.39519 95.7994 2.44481 92.8245 1.78862C86.6209 0.420411 80.5796 0.758396 74.336 1.9675C69.6593 2.87348 65.1769 4.40109 61.0571 6.81153C58.1743 8.49867 55.5009 10.6375 52.7092 12.4944C49.7688 14.4504 46.6457 16.288 43.2914 17.4333C39.3018 18.7955 35.2684 18.8727 31.0962 18.598C28.9536 18.4567 21.7143 17.922 19.8694 17.3065ZM75.4961 16.2262C75.8153 16.6155 76.2075 17.0783 76.6536 17.5717C77.1542 18.1256 77.7234 18.7191 78.3345 19.2925C80.101 19.1371 83.2191 18.4896 84.8351 17.6609C80.894 17.511 79.7685 18.7196 75.4961 16.2262Z" fill="#F42B24"/>
<path d="M98.6023 53.0075C98.5101 53.0671 98.4178 53.129 98.3253 53.1928C97.9729 53.4434 97.6084 53.738 97.232 54.0758H97.2301C96.8585 54.4094 96.4711 54.7905 96.068 55.2174C95.318 56.0199 93.138 59.3411 92.4016 58.5983C91.8687 57.8644 92.5287 55.5646 92.6801 54.8681C92.884 53.928 93.1614 53.0043 93.3584 52.059V52.0552C93.4784 51.5019 93.6399 51.1447 93.6931 50.5873L93.7249 49.4967C93.5971 49.6402 93.4907 49.7627 93.395 49.853L93.4907 49.6085L93.5706 49.3743C93.6078 49.2146 93.6237 49.1027 93.6131 49.0284C93.6662 48.6987 93.6238 48.5337 93.4907 48.5444C93.4481 48.5551 93.3789 48.5869 93.2885 48.6402L93.1786 48.7089C93.1179 48.7111 93.0552 48.7042 92.9909 48.6883L92.9657 48.6805L92.8602 48.8125L92.8522 48.8103L92.8042 48.7945C92.7192 48.7518 92.6395 48.7839 92.5542 48.8903L92.7724 48.3261C92.7511 48.305 92.7246 48.3315 92.6927 48.4061L92.666 48.5123L92.6182 48.6402C92.5436 48.8477 92.485 48.9115 92.4478 48.8263C92.4957 48.7518 92.5436 48.6402 92.586 48.4859L92.6341 48.2996L92.6927 48.1241C92.6554 48.1241 92.6075 48.1667 92.5542 48.2518L92.4905 48.3743L92.432 48.5123C92.3253 48.7411 92.2509 48.8422 92.2136 48.8103C92.2136 48.7892 92.2402 48.7411 92.2882 48.672L92.3521 48.5604L92.4157 48.4539C92.517 48.2782 92.5436 48.1667 92.4905 48.1241C92.4689 48.1135 92.4425 48.1506 92.3999 48.2359L92.3521 48.3422L92.3202 48.4539C92.4371 48.0496 92.4742 47.7783 92.4478 47.64C92.4053 47.4963 92.2777 47.5603 92.0699 47.8314C92.0913 47.789 92.1232 47.7304 92.1659 47.6558L92.2563 47.4538C92.3521 47.2887 92.4157 47.1611 92.4478 47.0654L92.3839 47.1611L92.3202 47.2834C92.267 47.3794 92.2349 47.4433 92.2136 47.4858L92.3999 47.0815L92.2882 47.1133C92.2189 47.225 92.1606 47.3313 92.118 47.422L92.2457 47.1453C92.1606 47.1825 92.0699 47.2409 91.9796 47.3155C91.277 48.1485 90.8586 49.1533 90.5173 50.1769C89.9787 51.7923 89.2135 55.0835 89.0202 56.9204L88.9648 57.7529C88.9501 57.9559 88.9396 58.1352 88.9337 58.2887C88.8978 59.5595 89.0347 61.684 89.9969 62.7076C90.9203 63.6905 91.3895 63.4029 92.3369 63.0284C92.6553 62.7334 92.9343 62.4634 93.174 62.2186C93.6677 61.7144 94.0784 61.2087 94.5082 60.6489C94.7178 60.3758 94.9503 60.0627 95.2058 59.707L95.5561 59.033C95.6304 58.8904 95.698 58.7669 95.7583 58.6636H95.7604C95.8307 58.5435 95.9009 58.4324 95.968 58.3338L95.9815 58.3126C96.0807 58.1815 96.2037 58.0331 96.3498 57.8678C96.4903 57.7088 96.6452 57.543 96.8134 57.3712C97.0061 57.181 97.2058 56.9961 97.4066 56.8141C97.3909 56.7103 97.3919 56.5963 97.4096 56.4716L97.4116 56.4619C97.4187 56.418 97.4297 56.3648 97.4434 56.3031L97.4816 56.1393L97.596 55.7785C97.635 55.6755 97.6634 55.5889 97.6816 55.5188L97.7355 54.7092C97.8041 54.6554 97.903 54.5756 98.004 54.4802L98.0291 54.4564L98.1839 54.3403L98.4364 54.1193C98.4209 54.0496 98.4084 53.9802 98.3996 53.9147L98.3938 53.8713V53.8487C98.3938 53.6256 98.4319 53.4186 98.5079 53.2095L98.5157 53.1902C98.5409 53.1293 98.5698 53.0683 98.6023 53.0075Z" fill="white"/>
<path d="M179.75 50.2485C179.927 49.254 179.995 48.2443 179.863 47.239C179.731 46.2381 179.391 45.3341 178.844 44.4933C178.423 43.8462 177.853 43.2412 177.174 42.8663C175.739 42.0748 174.034 42.3191 172.649 43.0886C170.793 44.1202 169.173 45.9786 167.998 47.715C166.759 49.6712 165.781 50.7563 164.165 56.9282C164.918 51.9747 165.728 47.1405 166.245 42.1661C166.386 40.8061 166.283 40.2252 166.159 40.4412C166.115 40.5173 166.044 40.7191 165.948 41.0591L165.895 41.2701L165.823 41.5098L165.698 41.9553C165.651 42.1422 165.607 42.2524 165.569 42.2811C165.55 42.3003 165.531 42.3051 165.516 42.2956L165.473 42.2811C165.387 42.2524 165.296 42.4776 165.19 42.9521C165.305 42.0655 165.392 41.2606 165.459 40.537C165.449 40.513 165.425 40.6471 165.387 40.9443C165.377 41.0496 165.363 41.1983 165.344 41.3948L165.315 41.6487L165.291 41.9027C165.205 42.7795 165.143 43.0958 165.109 42.8418C165.171 42.4489 165.229 41.9601 165.277 41.3803L165.329 40.6231L165.387 39.8948C165.358 39.9571 165.32 40.1775 165.262 40.5512C165.243 40.6854 165.219 40.8627 165.19 41.088L165.123 41.663C164.999 42.6645 164.917 43.1294 164.869 43.0671C164.879 42.9616 164.913 42.746 164.965 42.4201L164.994 42.2093L165.037 41.9696L165.109 41.5098C165.229 40.7046 165.258 40.2589 165.19 40.1728C165.181 40.1536 165.157 40.3212 165.123 40.6807L165.095 40.9154L165.066 41.1551C165.047 41.3515 165.032 41.4953 165.023 41.5767C165.08 40.8772 165.119 40.235 165.133 39.6552C165.143 39.128 165.128 38.7446 165.095 38.5051C165.066 38.2895 165.028 38.2607 164.98 38.419C164.941 38.577 164.879 38.9892 164.783 39.6552L164.812 39.3053L164.841 38.9124C164.869 38.5914 164.889 38.3183 164.898 38.0833C164.92 37.5861 164.928 37.027 164.841 36.5356C164.86 36.7224 164.874 37.0052 164.884 37.3789C164.884 37.5276 164.879 37.6857 164.869 37.8438C164.869 37.9733 164.869 38.1075 164.869 38.2367C164.879 37.6091 164.86 37.082 164.812 36.6507L164.769 36.919C164.769 37.0866 164.769 37.2831 164.769 37.5084V38.1265C164.769 37.7241 164.759 37.3694 164.74 37.0723L164.615 37.9685C164.608 38.0441 164.599 38.123 164.59 38.2052C164.539 38.5098 164.488 38.8136 164.433 39.1179L164.389 39.3436C164.128 41.1765 163.9 43.0063 163.636 44.8385C163.23 47.5022 162.798 50.137 162.316 52.8001C161.938 54.8997 161.547 56.9971 161.139 59.091C160.623 61.7155 160.353 64.4999 159.795 67.0213C159.063 70.3338 158.309 73.9213 157.506 77.1407C157.39 77.715 156.123 84.0345 156.132 84.0358C155.99 84.847 156.669 85.6408 157.475 85.6408C158.344 85.7648 158.964 85.5167 159.32 84.4472C160.574 78.6058 161.744 73.331 163.372 67.5712C164.039 65.2139 164.754 62.8008 165.518 60.334C165.981 58.8358 166.412 57.4955 166.808 56.3129C168.084 52.5016 168.999 49.6749 171.905 46.5438C175.068 42.9512 178.448 44.3672 177.911 49.1151C177.802 50.0722 177.554 50.9135 177.256 51.7598C176.818 51.7592 175.581 51.662 175.311 51.6954C174.28 51.8235 173.249 52.1079 172.224 52.5446C171.144 53.0055 170.21 53.5634 169.433 54.2186C168.077 55.3801 167.115 57.1559 167.601 58.9221C168.223 61.1713 170.553 61.246 172.389 60.7482C174.2 60.2467 175.644 58.7249 176.717 57.2293C177.524 56.1015 178.192 54.8774 178.726 53.5977C178.905 53.169 179.064 52.7443 179.201 52.3237C179.908 52.5339 180.223 52.8083 180.771 53.1875C181.253 53.5205 181.718 53.9275 182.155 54.4127C182.218 54.4842 183.169 55.7888 182.974 55.2982C182.679 54.6584 182.187 54.189 181.803 53.6121C181.657 53.4483 181.706 53.4483 181.942 53.6121C181.112 52.83 180.448 52.3007 179.311 51.972C179.478 51.4119 179.649 50.8174 179.75 50.2485ZM177.09 52.2106C176.931 52.6204 176.756 53.0246 176.563 53.4229C175.554 55.5168 173.507 59.3498 170.798 59.3498C169.517 59.3956 168.702 58.4199 169.018 57.1652C169.538 55.1033 171.437 53.5976 173.303 52.7933C174.189 52.4115 176.09 52.3051 177.09 52.2106Z" fill="white"/>
<path d="M139.664 34.5138C139.179 33.0692 138.087 32.0866 136.574 31.6947C132.517 30.6454 126.231 34.8895 123.324 37.773C120.691 40.3856 118.155 44.0065 119.473 47.8458C119.669 48.3607 119.936 48.831 120.271 49.2548C120.612 49.6854 121.028 50.0738 121.518 50.4187C122.7 51.251 124.071 51.7076 125.438 52.1367C126.624 52.4658 127.913 52.8152 129.057 53.2628C130.191 53.7334 130.966 53.9264 131.263 55.3077C131.492 56.3726 130.969 57.632 130.425 58.4946C129.984 59.1933 129.382 59.9032 128.622 60.6239C128.051 61.2126 127.457 61.7322 126.839 62.182C125.902 62.8637 124.858 63.4343 123.735 63.7387C122.854 63.9814 121.785 64.0197 120.979 63.5121C120.541 63.2361 120.251 62.8953 120.251 62.3729C120.251 61.8985 120.554 60.68 120.817 60.2692C120.958 60.0478 121.126 59.8222 121.317 59.5944C121.522 59.3895 121.704 59.1397 121.919 58.929L120.814 59.0477C121.507 58.5682 122.203 58.059 122.915 57.6102C123.464 57.2635 124.019 56.9642 124.598 56.6697C125.007 56.4558 125.31 56.2935 125.508 56.1819C125.823 56.0045 125.707 55.8921 126.101 55.5058C126.401 55.2107 126.756 54.9788 127.121 54.7722C126.699 54.8995 126.27 55.0478 125.836 55.2166C125.128 55.4914 124.433 55.8121 123.754 56.177C123.078 56.5401 122.42 56.9469 121.782 57.3963C121.115 57.8638 120.463 58.3846 119.873 58.946C119.311 59.4809 118.768 60.1201 118.383 60.784C118.012 61.426 117.786 62.0974 117.825 62.8434C117.862 63.5584 118.14 64.1662 118.655 64.6638C119.025 65.0211 119.445 65.3043 119.914 65.511C121.134 66.0491 122.524 66.028 123.805 65.7481C124.598 65.574 125.282 65.3411 126.038 65.005C127.141 64.5155 128.178 63.8954 129.14 63.1671C129.77 62.6902 130.363 62.1703 130.917 61.609C131.617 60.8925 132.197 60.1697 132.655 59.4426C133.4 58.2593 133.774 57.275 133.844 55.9321C133.84 54.7221 133.465 53.5679 132.676 52.6398C131.551 51.316 129.779 50.6247 128.144 50.0974C127.292 49.8174 126.433 49.5461 125.59 49.2408C124.866 48.9785 124.191 48.7116 123.545 48.2828C122.974 47.9032 122.56 47.4947 122.316 46.8438C121.946 45.452 122.194 44.1496 123.24 42.7764C123.975 41.7258 124.878 40.7445 125.808 39.8651C127.004 38.7333 128.405 37.6194 129.793 36.7247C130.826 36.0584 131.894 35.4693 133.084 35.1403C133.886 34.9134 135.786 34.5644 136.315 35.2303C136.841 35.8122 136.587 37.0657 136.379 37.7034C136.148 38.4118 135.778 39.1475 135.379 39.7767C134.846 40.6142 134.62 40.8886 133.826 41.4652C133.977 41.4081 134.135 41.342 134.3 41.2679C133.902 41.9365 132.474 42.3748 131.746 42.6977C131.592 42.7688 131.556 42.8281 131.639 42.8875C131.799 42.9821 132.237 43.006 132.943 42.9585C133.03 42.9447 133.1 42.939 133.152 42.9414C132.996 43.0549 132.829 43.169 132.652 43.2836C131.921 43.7564 131.213 44.3096 130.424 44.3096H129.973C129.742 44.3215 129.707 44.3628 129.867 44.434C129.926 44.4696 129.985 44.4933 130.039 44.505C130.133 44.5408 130.228 44.5644 130.317 44.5881C130.584 44.6473 130.874 44.6829 131.188 44.6947C130.619 44.7183 130.05 44.6414 129.487 44.4696C128.978 44.3275 128.438 44.0963 127.869 43.7763C128.227 44.0219 128.644 44.2098 129.049 44.3628C128.707 44.2442 127.594 43.5973 128.201 44.102C128.616 44.3571 129.049 44.5408 129.505 44.6414C129.084 44.5408 128.699 44.3985 128.338 44.2267C128.604 44.434 128.918 44.6177 129.274 44.7837C129.938 45.0383 130.649 45.1747 131.414 45.1984C133.78 45.2881 136.325 43.6452 137.72 41.8372C138.256 41.1417 138.742 40.3638 139.115 39.5684C139.519 38.7058 139.803 37.7912 139.894 36.8402C139.968 36.0589 139.915 35.2609 139.664 34.5138Z" fill="white"/>
<path d="M161.998 33.957C157.716 31.4027 154.248 30.938 149.411 30.8051C148.311 30.7748 147.249 30.7975 146.152 30.8379C146.316 29.8829 146.342 28.98 146.484 28.0363L146.401 28.205C146.426 27.5598 146.654 26.7178 146.642 26.2131L146.646 26.1995C146.712 25.9548 146.764 25.7472 146.8 25.5777L146.831 25.4244C146.737 25.5189 146.635 25.5814 146.52 25.6107L146.458 25.6262H146.359L146.298 25.7476L145.672 25.8897L145.772 25.5459C145.731 25.5768 145.669 25.6902 145.592 25.8912L145.585 25.9095L145.545 25.9186C145.578 25.7819 145.578 25.6972 145.546 25.6644C145.535 25.6438 145.494 25.7366 145.427 25.9377L145.425 25.946L145.4 25.9514C145.819 24.3153 145.746 24.08 145.184 25.2416C145.252 25.0507 145.37 24.7517 145.53 24.3495L145.623 24.1072L145.726 23.87C145.971 23.2055 146.043 23.0249 145.669 23.9267C145.587 24.1072 145.52 24.2824 145.468 24.4423L145.546 24.2001L145.638 23.9576C145.733 23.6872 146.05 23.2364 145.711 23.5967C145.582 23.8391 145.468 24.0866 145.38 24.334C145.468 24.0968 145.556 23.8752 145.638 23.674C145.504 23.8236 145.38 23.9938 145.257 24.1846L145.123 24.4578L144.988 24.7155C144.865 24.9373 144.782 25.1024 144.731 25.2106C144.55 25.5562 144.431 25.814 144.38 25.9841C144.143 26.7163 143.851 27.4467 143.685 28.1921C143.555 28.6161 143.098 31.0464 142.48 31.1181C140.667 31.3286 136.734 31.0241 134.986 31.5353C134.278 31.7425 133.641 31.9849 133.076 32.2606L132.986 32.3074L136.63 32.9929C132.827 34.1889 131.155 34.7007 136.612 34.2916L137.317 34.1151C137.687 34.4124 137.626 34.646 138.882 34.6144C139.191 34.0925 141.161 34.5362 141.707 34.5013C140.791 38.0235 139.939 42.3047 139.222 45.9477C138.483 49.7049 137.875 53.8075 137.516 57.6199C137.39 58.9491 137.296 60.1879 137.234 61.3354C137.164 63.2012 137.076 65.9083 137.602 67.7206C137.782 68.2846 138.009 68.9255 138.582 69.2119V69.2138C139.419 69.6322 140.812 68.9008 141.375 68.4711C142.193 67.8476 142.854 66.7647 143.311 65.8361C143.634 65.1793 143.929 64.4559 144.187 63.7632C144.179 63.7433 144.171 63.7225 144.163 63.7015L144.202 63.5974L144.345 63.2094C144.26 63.2182 144.224 63.0981 144.242 62.853C144.278 62.4372 144.369 62.0406 144.479 61.6407C144.514 61.4845 144.532 61.3733 144.541 61.315C144.577 61.1146 144.532 61.0434 144.412 61.1058C144.604 60.8072 144.791 60.4729 144.973 60.0986C145.156 59.715 145.236 59.5011 145.21 59.4611C144.978 59.1029 145.181 58.2733 145.326 57.8652C145.671 56.9055 146.232 56.0169 147.139 55.5074H146.625C146.115 55.8983 145.716 56.4037 145.366 56.9382C144.967 57.5317 144.605 58.2399 144.283 58.8861C143.308 60.8236 142.655 62.2476 141.823 64.2889C141.647 64.7473 141.464 65.1385 141.276 65.4624C141.074 65.8115 140.859 66.0948 140.634 66.3114C139.749 67.3754 139.747 65.4842 139.735 64.9861C139.675 62.4933 140.05 59.7055 140.405 57.2707C140.818 54.4348 141.352 51.6162 141.928 48.8092C142.811 44.5004 143.842 40.366 144.907 36.0934C145.089 35.3639 145.284 34.8494 145.458 34.1182C148.729 33.8694 153.868 32.8024 156.763 33.9327L156.975 34.0147C156.985 33.9327 157.067 33.87 157.217 33.8313C157.436 33.7951 158.404 33.8526 158.308 33.5465C158.474 33.6151 159.225 33.9728 159.298 33.8748C159.429 33.7348 159.607 33.6431 159.834 33.6044C160.148 33.5562 160.549 33.6141 161.037 33.7734C161.124 33.8023 161.225 33.8555 161.351 33.9327C161.433 33.9762 161.544 34.0439 161.674 34.1308C161.93 34.2997 162.08 34.3817 162.128 34.3817C162.22 34.3914 162.201 34.324 162.071 34.1693L161.998 34.0874C161.974 34.0583 161.955 34.0342 161.945 34.0147C161.925 33.9665 161.945 33.9474 161.998 33.957Z" fill="white"/>
<path d="M103.037 62.833C103.494 61.9047 103.737 61.1148 104.071 60.2063C103.986 60.2151 103.951 60.095 103.969 59.8499C103.986 59.6448 104.031 59.3729 104.098 59.0429L104.151 58.8334L104.205 58.6375C104.241 58.4814 104.258 58.3702 104.267 58.3119C104.303 58.1114 104.258 58.0402 104.138 58.1027C104.33 57.8041 104.517 57.4698 104.7 57.0954C104.883 56.7119 104.963 56.498 104.936 56.458C104.829 56.2929 104.803 56.0301 104.856 55.6736L104.883 55.5041L104.923 55.3081C104.958 55.1608 104.998 55.0139 105.052 54.8621C105.19 54.4789 105.391 54.0733 105.654 53.6366C105.801 53.4183 105.975 53.2131 106.175 53.0213C106.389 52.8165 106.616 52.6442 106.865 52.5043H106.351C105.841 52.8952 105.443 53.4006 105.092 53.935C103.57 56.2026 102.572 58.7748 101.55 61.2858C101.276 61.9966 100.871 62.7849 100.567 63.5195C100.409 63.8336 100.057 64.6356 99.6477 64.0915C99.3826 63.7375 99.1924 63.1566 99.084 62.7593C98.7382 61.4923 98.655 60.0781 98.6695 58.7786C98.68 57.8013 98.7555 56.8404 98.868 55.8701C98.951 55.7766 99.0214 55.6921 99.0963 55.5919C99.7638 54.7389 100.425 53.8485 101.08 52.9193C101.736 51.9874 102.376 51.0335 102.999 50.0565C103.667 48.9997 104.282 47.978 104.842 46.9918C105.701 45.4784 105.968 44.4711 106.651 43.1513C106.772 42.8991 106.894 42.6491 107.018 42.3977C107.082 42.2728 107.15 42.137 107.217 41.9993C107.752 40.9033 108.374 38.447 108.084 37.1913C107.902 36.4027 107.399 35.8105 106.595 35.6237C105.457 35.3892 104.469 36.1914 103.762 36.9852C102.24 38.7476 101.234 41.1912 100.239 43.2814C99.7578 44.4788 99.3217 45.7038 98.9307 46.9566C98.5388 48.2132 98.1931 49.4943 97.8934 50.8003C97.605 52.0466 97.3915 53.2846 97.2516 54.5131C97.1305 55.5776 97.0646 56.6323 97.0527 57.6766C97.0527 58.7898 97.1005 59.7126 97.2739 60.8361C97.41 61.7197 97.6639 62.9966 97.9941 63.8569C98.1013 64.1316 98.2159 64.3811 98.3392 64.6038C98.7005 65.2581 99.2187 65.8195 100.022 65.858C101.355 65.8916 102.477 63.9702 103.037 62.833ZM105.414 40.4768C105.15 41.2602 104.685 42.2501 104.307 43.0052C104.095 43.444 103.856 43.9212 103.589 44.4366C103.075 45.4265 102.544 46.3917 101.993 47.3604C101.706 47.8655 101.39 48.4164 101.044 49.0126L99.4307 51.797L100.416 48.7341C100.732 47.7528 101.07 46.8036 101.428 45.8875C101.915 44.6396 102.457 43.4056 103.06 42.2085C103.403 41.5284 104.154 40.0451 104.66 39.5389C105.185 39.0141 105.718 39.6025 105.414 40.4768Z" fill="white"/>
</svg>
