<svg width="20" height="22" viewBox="0 0 29 22" fill="none" xmlns="http://www.w3.org/2000/svg">
<path d="M1 0.5C0.723858 0.5 0.5 0.723858 0.5 1C0.5 1.27614 0.723858 1.5 1 1.5V0.5ZM26 1H26.5C26.5 0.723858 26.2761 0.5 26 0.5V1ZM25.5 20.5833C25.5 20.8595 25.7239 21.0833 26 21.0833C26.2761 21.0833 26.5 20.8595 26.5 20.5833H25.5ZM24.4508 16.617C24.3313 16.368 24.0326 16.2631 23.7836 16.3826C23.5347 16.5021 23.4297 16.8007 23.5492 17.0497L24.4508 16.617ZM26 21L25.5492 21.2164C25.6325 21.3897 25.8077 21.5 26 21.5C26.1923 21.5 26.3675 21.3897 26.4508 21.2164L26 21ZM28.4508 17.0497C28.5703 16.8007 28.4653 16.5021 28.2164 16.3826C27.9674 16.2631 27.6687 16.368 27.5492 16.617L28.4508 17.0497ZM1 1.5H26V0.5H1V1.5ZM25.5 1V20.5833H26.5V1H25.5ZM23.5492 17.0497L25.5492 21.2164L26.4508 20.7836L24.4508 16.617L23.5492 17.0497ZM26.4508 21.2164L28.4508 17.0497L27.5492 16.617L25.5492 20.7836L26.4508 21.2164Z" fill="white"/>
</svg>
