<svg width="37" height="45" viewBox="0 0 37 45" fill="none" xmlns="http://www.w3.org/2000/svg">
<path d="M35.8436 10.8861H31.9633C34.0838 8.84735 34.5544 5.53165 32.9171 2.94873C31.7423 1.10223 29.7292 0 27.5325 0C26.3289 0 25.1542 0.339482 24.1355 0.982465C21.8948 2.3907 19.4979 7.77044 18.5012 10.2026C17.5033 7.77044 15.1053 2.38953 12.8668 0.983631C11.8458 0.340481 10.6723 0.00116603 9.46863 0.00116603C7.27177 0.00116603 5.25754 1.1034 4.08286 2.95106C2.44914 5.52816 2.91855 8.84169 5.03439 10.8861H1.15627C0.517953 10.8861 0 11.4003 0 12.0366V21.801C0 22.4371 0.517953 22.9515 1.15627 22.9515H1.79342V43.8495C1.79342 44.4856 2.3102 45 2.94969 45H14.2682H22.7318H34.0503C34.6896 45 35.2066 44.4858 35.2066 43.8495V22.9515H35.8437C36.4831 22.9515 37 22.4373 37 21.801V12.0366C36.9998 11.4005 36.4829 10.8861 35.8436 10.8861ZM34.6873 20.6506H34.0501H23.888V13.1872H34.6873V20.6506ZM21.5756 13.1872V20.6506H15.4244V13.1872H21.5756ZM25.3703 2.92574C26.0202 2.5173 26.767 2.30108 27.5314 2.30108C28.9315 2.30108 30.2139 3.00286 30.962 4.17872C32.1553 6.06203 31.591 8.55751 29.7018 9.7437C29.304 9.99456 27.8853 10.5789 23.3181 10.5789C22.4069 10.5789 21.5536 10.5548 20.8691 10.5259C22.1294 7.56005 24.0637 3.74729 25.3703 2.92574ZM6.03564 4.17872C6.78378 3.00286 8.06711 2.30108 9.46729 2.30108C10.2315 2.30108 10.9796 2.5173 11.6295 2.92807C12.9349 3.74729 14.8693 7.56122 16.1307 10.5261C15.4405 10.5549 14.5814 10.5802 13.6598 10.5802H13.6586C9.10653 10.5802 7.69246 9.99922 7.29705 9.75069C5.40888 8.55867 4.84355 6.0597 6.03564 4.17872ZM2.31254 13.1872H13.1119V20.6506H2.94952H2.31237L2.31254 13.1872ZM4.10579 22.9515H13.1117V42.6989H4.10579V22.9515ZM15.4243 42.6989V22.9515H21.5754V42.6989H15.4243ZM32.8939 42.6989H23.888V22.9515H32.8939V42.6989Z" fill="#D2D2D2"/>
</svg>
