<svg width="41" height="41" viewBox="0 0 41 41" fill="none" xmlns="http://www.w3.org/2000/svg">
<path d="M12.2643 13.8587L2.5556 4.15203V10.9644C2.5556 11.5873 2.05076 12.0923 1.4277 12.0923C0.804616 12.0923 0.299805 11.5872 0.299805 10.9645V1.42868C0.299805 0.805757 0.804642 0.300781 1.4277 0.300781H10.964C11.587 0.300781 12.0918 0.805757 12.0918 1.42868C12.0918 2.05157 11.5868 2.55657 10.964 2.55657H4.15007L13.8594 12.2637C14.2999 12.7039 14.2999 13.4181 13.8594 13.8586C13.6393 14.0789 13.3511 14.189 13.0618 14.189C12.7728 14.189 12.4847 14.0789 12.2643 13.8587Z" fill="#D2D2D2"/>
<path d="M28.4521 26.8568L38.4439 36.8486V30.036C38.4439 29.4131 38.9487 28.9081 39.5718 28.9081C40.1946 28.9081 40.6997 29.4131 40.6999 30.036V39.5713C40.6999 40.1942 40.195 40.6992 39.572 40.6992H30.0363C29.4132 40.6992 28.9084 40.1942 28.9084 39.5713C28.9084 38.9483 29.4132 38.4434 30.0363 38.4434H36.8485L26.8569 28.4517C26.4164 28.0114 26.4164 27.2973 26.8569 26.8568C27.2973 26.4163 28.0114 26.4163 28.4521 26.8568Z" fill="#D2D2D2"/>
<path d="M2.55671 36.8485L12.5476 26.8568C12.9883 26.4163 13.7026 26.4165 14.1426 26.8566C14.5832 27.2971 14.5832 28.0113 14.1427 28.4518L4.15173 38.4438H10.9641C11.5872 38.4438 12.092 38.9488 12.092 39.5717C12.092 40.1946 11.587 40.6996 10.9641 40.6996H1.42881C0.805754 40.6996 0.300917 40.1946 0.300917 39.5717V30.036C0.300917 29.4131 0.805755 28.9081 1.42881 28.9081C2.05187 28.9081 2.55671 29.4131 2.55671 30.036V36.8485Z" fill="#D2D2D2"/>
<path d="M27.141 12.2645L36.8484 2.55657H30.0358C29.4128 2.55657 28.9079 2.0516 28.9079 1.42868C28.9079 0.805757 29.4128 0.300781 30.0358 0.300781H39.5715C40.1944 0.300781 40.6994 0.805654 40.6996 1.42875V10.9644C40.6996 11.5873 40.1947 12.0923 39.5717 12.0923C38.9486 12.0923 38.4438 11.5873 38.4438 10.9644V4.15151L28.7364 13.8595C28.5159 14.0798 28.2276 14.1899 27.9387 14.1899C27.6496 14.1899 27.3614 14.0798 27.1412 13.8597C26.7006 13.4192 26.7006 12.705 27.141 12.2645Z" fill="#D2D2D2"/>
</svg>
