<svg width="47" height="36" viewBox="0 0 47 36" fill="none" xmlns="http://www.w3.org/2000/svg">
<path fill-rule="evenodd" clip-rule="evenodd" d="M26.4312 1.46959L26.5221 1.50533L26.6167 1.48065C28.0499 1.10661 29.5741 0.904675 31.154 0.904675C39.6124 0.904675 46.401 6.66195 46.4 13.6318C46.4 17.3068 44.5389 20.7562 41.2363 23.1815L41.1138 23.2714V29.9776L34.164 26.1078L34.0611 26.1245C33.302 26.2476 32.5342 26.3207 31.7684 26.3467L31.6664 26.3501L31.5877 26.415C28.238 29.1766 23.6327 30.8911 18.5477 30.8911C17.3338 30.8911 16.1103 30.7889 14.9048 30.5884L14.8013 30.5712L6.50797 35.1896V27.1971L6.38366 27.1073C2.30604 24.1613 0 19.9417 0 15.4452C0 6.97736 8.26837 -8.57107e-05 18.5483 7.89441e-10C21.3675 7.89441e-10 24.0385 0.529262 26.4312 1.46959ZM8.01352 25.8824L8.44357 26.1699V31.8945L14.4676 28.5402L14.8114 28.6045C16.0441 28.8358 17.3013 28.9535 18.5483 28.9535C22.0114 28.9535 25.2329 28.0859 27.901 26.6037L28.6279 26.1999L27.8107 26.0466C20.9684 24.7629 15.9066 19.6543 15.9066 13.6316C15.9066 9.17547 18.6739 5.2267 22.8893 2.94635L23.6027 2.56039L22.8098 2.38924C21.4489 2.09547 20.0215 1.93682 18.5483 1.93682C9.45012 1.93682 1.93568 7.94044 1.93568 15.4452C1.93568 19.5097 4.16721 23.3105 8.01352 25.8824ZM34.4986 24.0778L39.1792 26.6835V22.2456L39.6091 21.9581C42.6786 19.9057 44.4654 16.8747 44.4653 13.6316C44.4653 7.62474 38.4306 2.84158 31.1539 2.84158C30.8687 2.84158 30.588 2.85098 30.3102 2.86528C28.906 2.93721 27.5606 3.18625 26.3064 3.58479C21.3935 5.14659 17.8422 9.03272 17.8422 13.6316C17.8422 19.5502 23.7028 24.2771 30.8332 24.4153C30.8658 24.4158 30.9013 24.4168 30.9383 24.4178C31.0079 24.4197 31.083 24.4217 31.1537 24.4217C32.1557 24.4217 33.1648 24.3278 34.1555 24.1421L34.4986 24.0778Z" fill="#D2D2D2"/>
</svg>
