<svg width="44" height="38" viewBox="0 0 44 38" fill="none" xmlns="http://www.w3.org/2000/svg">
<path fill-rule="evenodd" clip-rule="evenodd" d="M38.1511 12.5556L38.2314 12.8509L39.2774 12.8501C41.4437 12.8503 43.2002 14.5977 43.2 16.7375V21.5531C43.2 23.693 41.4433 25.4401 39.278 25.4401H37.4254C36.8681 25.4401 36.4219 24.9928 36.4219 24.4479V13.9537L36.4134 13.9131C34.9597 6.99046 28.7472 1.98471 21.5925 1.98471C14.4821 1.98471 8.27882 6.99349 6.78726 13.9162L6.77829 13.9579V24.449C6.77829 29.1917 10.667 33.0441 15.4409 33.0441H16.7372L16.8412 32.802C17.3277 31.6698 18.4615 30.8732 19.7796 30.8732H23.4202C25.1831 30.8732 26.6126 32.2959 26.6126 34.037C26.6126 35.7777 25.1832 37.2001 23.4202 37.2001H19.7796C18.4611 37.2001 17.327 36.4033 16.8407 35.2707L16.7367 35.0285H15.4411C10.0141 35.0285 5.52304 30.9903 4.85676 25.7904L4.81202 25.4412H3.92219C1.75669 25.4412 0 23.6941 0 21.5544V16.739C0 14.5989 1.75687 12.8518 3.92219 12.8516L4.97268 12.8524L5.05383 12.5587C7.08191 5.21987 13.866 0.00012207 21.5925 0.00012207C29.3674 0.00012207 36.1569 5.21952 38.1511 12.5556ZM4.77131 14.8367L3.92121 14.836C2.86885 14.836 2.00698 15.6867 2.00698 16.739V21.5544C2.00698 22.6069 2.86895 23.4568 3.92228 23.4566H4.77131V14.8367ZM38.4291 14.8352V23.4555H39.2782C40.3314 23.4555 41.1932 22.6053 41.1932 21.5529V16.7375C41.1932 15.6848 40.3311 14.8345 39.2778 14.8345L38.4291 14.8352ZM23.4202 32.8576H19.7796C19.1283 32.8576 18.5946 33.3838 18.5946 34.037C18.5946 34.6903 19.1289 35.2157 19.7796 35.2157H23.4202C24.0709 35.2157 24.6056 34.6908 24.6056 34.037C24.6056 33.3835 24.0713 32.8576 23.4202 32.8576Z" fill="#D2D2D2"/>
</svg>
