<svg width="40" height="40" viewBox="0 0 40 40" fill="none" xmlns="http://www.w3.org/2000/svg">
<path fill-rule="evenodd" clip-rule="evenodd" d="M28.3111 24.6978L28.0649 25.0424L38.8073 35.7848C39.2864 36.2639 39.5 36.7938 39.5 37.296C39.5 37.7926 39.2912 38.3162 38.8234 38.791C37.8716 39.5698 36.5017 39.5241 35.7848 38.8072L25.0424 28.0648L24.6977 28.311C22.1651 30.1201 19.0952 31.2016 15.8508 31.2016C7.36239 31.2016 0.5 24.3392 0.5 15.8508C0.5 7.3624 7.36248 0.5 15.8509 0.5C24.3392 0.5 31.2016 7.3623 31.2016 15.8508C31.2016 19.0952 30.1201 22.1651 28.3111 24.6978ZM3.2296 15.8509C3.2296 22.8402 8.86133 28.4721 15.8508 28.4721C22.8402 28.4721 28.472 22.8402 28.4719 15.8509C28.4719 8.86145 22.8402 3.2297 15.8508 3.2297C8.86134 3.2297 3.2296 8.86145 3.2296 15.8509Z" fill="#D2D2D2"/>
</svg>
