<svg width="118" height="121" viewBox="0 0 118 121" fill="none" xmlns="http://www.w3.org/2000/svg">
<path d="M60.5 13.0002C87.5 12.5004 109 33.7142 109 60.5C109 70.4942 105.181 79.7819 100 87.4996" stroke="#D2D2D2" stroke-width="2"/>
<mask id="path-2-outside-1" maskUnits="userSpaceOnUse" x="-1" y="0" width="112" height="122" fill="black">
<rect fill="white" x="-1" width="112" height="122"/>
<path d="M108.026 93.5198C102.419 101.799 94.7677 108.489 85.8135 112.939C76.8593 117.389 66.9066 119.449 56.9216 118.918C46.9366 118.388 37.2584 115.284 28.8264 109.91C20.3944 104.536 13.495 97.073 8.79782 88.2458C4.10068 79.4187 1.76539 69.5271 2.0186 59.5312C2.27182 49.5353 5.10494 39.7747 10.243 31.1967C15.381 22.6186 22.6495 15.5146 31.3428 10.5742C40.0361 5.63373 49.859 3.02464 59.8581 3.00017L59.8805 12.1681C51.462 12.1887 43.1918 14.3854 35.8726 18.5449C28.5534 22.7045 22.4339 28.6855 18.108 35.9076C13.7821 43.1297 11.3968 51.3475 11.1837 59.7634C10.9705 68.1792 12.9366 76.5073 16.8913 83.9391C20.846 91.371 26.6548 97.6542 33.754 102.179C40.8532 106.704 49.0016 109.316 57.4082 109.763C65.8149 110.21 74.1943 108.476 81.7332 104.729C89.272 100.982 95.7141 95.3502 100.434 88.3794L108.026 93.5198Z"/>
</mask>
<path d="M108.026 93.5198C102.419 101.799 94.7677 108.489 85.8135 112.939C76.8593 117.389 66.9066 119.449 56.9216 118.918C46.9366 118.388 37.2584 115.284 28.8264 109.91C20.3944 104.536 13.495 97.073 8.79782 88.2458C4.10068 79.4187 1.76539 69.5271 2.0186 59.5312C2.27182 49.5353 5.10494 39.7747 10.243 31.1967C15.381 22.6186 22.6495 15.5146 31.3428 10.5742C40.0361 5.63373 49.859 3.02464 59.8581 3.00017L59.8805 12.1681C51.462 12.1887 43.1918 14.3854 35.8726 18.5449C28.5534 22.7045 22.4339 28.6855 18.108 35.9076C13.7821 43.1297 11.3968 51.3475 11.1837 59.7634C10.9705 68.1792 12.9366 76.5073 16.8913 83.9391C20.846 91.371 26.6548 97.6542 33.754 102.179C40.8532 106.704 49.0016 109.316 57.4082 109.763C65.8149 110.21 74.1943 108.476 81.7332 104.729C89.272 100.982 95.7141 95.3502 100.434 88.3794L108.026 93.5198Z" stroke="#FF0000" stroke-width="4" mask="url(#path-2-outside-1)"/>
</svg>
