<svg width="118" height="118" viewBox="0 0 118 118" fill="none" xmlns="http://www.w3.org/2000/svg">
<path d="M85.0003 17.634C99.359 26.0549 109 41.6515 109 59.5C109 86.2858 87.2861 108 60.5003 108C45.5031 108 32.0957 101.193 23.1992 90.5" stroke="#D2D2D2" stroke-width="2"/>
<mask id="path-2-outside-1" maskUnits="userSpaceOnUse" x="-1" y="-1" width="93" height="100" fill="black">
<rect fill="white" x="-1" y="-1" width="93" height="100"/>
<path d="M14.5754 96.0639C6.21121 85.5287 1.76902 72.4138 2.00925 58.9642C2.24948 45.5146 7.15719 32.5667 15.8923 22.3369C24.6273 12.1071 36.6466 5.23169 49.8925 2.88749C63.1384 0.543294 76.7873 2.87614 88.5027 9.48668L79.2424 25.898C71.3333 21.4352 62.1188 19.8603 53.1763 21.4429C44.2339 23.0255 36.1196 27.6671 30.2225 34.5733C24.3254 41.4795 21.0121 50.2208 20.85 59.3007C20.6878 68.3807 23.6867 77.2346 29.3335 84.347L14.5754 96.0639Z"/>
</mask>
<path d="M14.5754 96.0639C6.21121 85.5287 1.76902 72.4138 2.00925 58.9642C2.24948 45.5146 7.15719 32.5667 15.8923 22.3369C24.6273 12.1071 36.6466 5.23169 49.8925 2.88749C63.1384 0.543294 76.7873 2.87614 88.5027 9.48668L79.2424 25.898C71.3333 21.4352 62.1188 19.8603 53.1763 21.4429C44.2339 23.0255 36.1196 27.6671 30.2225 34.5733C24.3254 41.4795 21.0121 50.2208 20.85 59.3007C20.6878 68.3807 23.6867 77.2346 29.3335 84.347L14.5754 96.0639Z" stroke="#FF0000" stroke-width="4" mask="url(#path-2-outside-1)"/>
<circle cx="87.5" cy="98.5" r="6.5" stroke="#FF0000" stroke-width="2"/>
<circle cx="85" cy="18" r="5" stroke="#FF0000" stroke-width="2"/>
</svg>
