<svg width="118" height="118" viewBox="0 0 118 118" fill="none" xmlns="http://www.w3.org/2000/svg">
<path d="M35 18.0001C20.3656 26.3498 10 41.4451 10 59.5C10 86.2858 31.7142 108 58.5 108C65.2433 108 71.6651 106.624 77.5 104.137" stroke="#D2D2D2" stroke-width="2"/>
<mask id="path-2-outside-1" maskUnits="userSpaceOnUse" x="28" y="-1" width="91" height="117" fill="black">
<rect fill="white" x="28" y="-1" width="91" height="117"/>
<path d="M31.13 8.59959C37.9644 5.02684 45.4427 2.85293 53.1273 2.20504C60.812 1.55715 68.5487 2.44829 75.8848 4.82633C83.2209 7.20437 90.0091 11.0216 95.8523 16.0545C101.695 21.0875 106.476 27.2353 109.915 34.1381C113.354 41.041 115.381 48.5602 115.879 56.2561C116.377 63.9519 115.335 71.6697 112.814 78.9581C110.293 86.2464 106.344 92.9588 101.198 98.7027C96.0524 104.446 89.8125 109.106 82.8439 112.41L78.9168 104.125C84.7839 101.344 90.0375 97.4209 94.3701 92.585C98.7027 87.749 102.027 82.0976 104.15 75.9614C106.272 69.8251 107.149 63.3272 106.73 56.8479C106.311 50.3685 104.604 44.0378 101.709 38.2261C98.8137 32.4144 94.7886 27.2384 89.869 23.001C84.9495 18.7635 79.2343 15.5497 73.0578 13.5476C66.8813 11.5454 60.3675 10.7952 53.8976 11.3406C47.4276 11.8861 41.1314 13.7164 35.3773 16.7244L31.13 8.59959Z"/>
</mask>
<path d="M31.13 8.59959C37.9644 5.02684 45.4427 2.85293 53.1273 2.20504C60.812 1.55715 68.5487 2.44829 75.8848 4.82633C83.2209 7.20437 90.0091 11.0216 95.8523 16.0545C101.695 21.0875 106.476 27.2353 109.915 34.1381C113.354 41.041 115.381 48.5602 115.879 56.2561C116.377 63.9519 115.335 71.6697 112.814 78.9581C110.293 86.2464 106.344 92.9588 101.198 98.7027C96.0524 104.446 89.8125 109.106 82.8439 112.41L78.9168 104.125C84.7839 101.344 90.0375 97.4209 94.3701 92.585C98.7027 87.749 102.027 82.0976 104.15 75.9614C106.272 69.8251 107.149 63.3272 106.73 56.8479C106.311 50.3685 104.604 44.0378 101.709 38.2261C98.8137 32.4144 94.7886 27.2384 89.869 23.001C84.9495 18.7635 79.2343 15.5497 73.0578 13.5476C66.8813 11.5454 60.3675 10.7952 53.8976 11.3406C47.4276 11.8861 41.1314 13.7164 35.3773 16.7244L31.13 8.59959Z" stroke="#FF0000" stroke-width="4" mask="url(#path-2-outside-1)"/>
<circle cx="85" cy="99" r="9" stroke="#FF0000" stroke-width="2"/>
<circle cx="83" cy="18" r="5" stroke="#FF0000" stroke-width="2"/>
</svg>
