<svg width="118" height="118" viewBox="0 0 118 118" fill="none" xmlns="http://www.w3.org/2000/svg">
<path d="M12 57.5C12 30.7142 33.7142 9 60.5 9C87.2858 9 109 30.7142 109 57.5C109 67.4942 104.681 77.2824 99.5 85" stroke="#D2D2D2" stroke-width="2"/>
<mask id="path-2-outside-1" maskUnits="userSpaceOnUse" x="-1" y="55" width="112" height="64" fill="black">
<rect fill="white" x="-1" y="55" width="112" height="64"/>
<path d="M108.026 90.5198C101.047 100.827 90.9369 108.615 79.1906 112.733C67.4444 116.852 54.6848 117.082 42.7975 113.39C30.9103 109.698 20.5261 102.28 13.1795 92.2322C5.83296 82.1841 1.91388 70.039 2.00143 57.592L11.1692 57.6565C11.0955 68.136 14.3951 78.3613 20.5804 86.8211C26.7657 95.2809 35.5085 101.526 45.5167 104.635C55.525 107.743 66.2677 107.549 76.1572 104.082C86.0467 100.614 94.5584 94.057 100.434 85.3794L108.026 90.5198Z"/>
</mask>
<path d="M108.026 90.5198C101.047 100.827 90.9369 108.615 79.1906 112.733C67.4444 116.852 54.6848 117.082 42.7975 113.39C30.9103 109.698 20.5261 102.28 13.1795 92.2322C5.83296 82.1841 1.91388 70.039 2.00143 57.592L11.1692 57.6565C11.0955 68.136 14.3951 78.3613 20.5804 86.8211C26.7657 95.2809 35.5085 101.526 45.5167 104.635C55.525 107.743 66.2677 107.549 76.1572 104.082C86.0467 100.614 94.5584 94.057 100.434 85.3794L108.026 90.5198Z" stroke="#FF0000" stroke-width="4" mask="url(#path-2-outside-1)"/>
<circle cx="93" cy="25" r="9" stroke="#FF0000" stroke-width="2"/>
<circle cx="46" cy="104" r="5" stroke="#FF0000" stroke-width="2"/>
</svg>
