<svg width="118" height="118" viewBox="0 0 118 118" fill="none" xmlns="http://www.w3.org/2000/svg">
<path d="M82.5 17C75.2632 12.7066 66.5248 9 57.5 9C30.7142 9 9 30.7142 9 57.5C9 77.6266 22.0411 94.6604 39.5 102" stroke="#D2D2D2" stroke-width="2"/>
<mask id="path-2-outside-1" maskUnits="userSpaceOnUse" x="33" y="5" width="86" height="114" fill="black">
<rect fill="white" x="33" y="5" width="86" height="114"/>
<path d="M88.1151 8.43103C100.615 16.0251 109.784 28.0612 113.786 42.1287C117.788 56.1962 116.328 71.2564 109.698 84.2929C103.068 97.3295 91.757 107.38 78.0313 112.431C64.3055 117.482 49.1781 117.162 35.6788 111.533L39.2499 102.968C50.5894 107.696 63.2967 107.966 74.8265 103.723C86.3564 99.4797 95.8575 91.0373 101.427 80.0864C106.996 69.1355 108.223 56.4848 104.861 44.6679C101.499 32.851 93.797 22.7405 83.297 16.3614L88.1151 8.43103Z"/>
</mask>
<path d="M88.1151 8.43103C100.615 16.0251 109.784 28.0612 113.786 42.1287C117.788 56.1962 116.328 71.2564 109.698 84.2929C103.068 97.3295 91.757 107.38 78.0313 112.431C64.3055 117.482 49.1781 117.162 35.6788 111.533L39.2499 102.968C50.5894 107.696 63.2967 107.966 74.8265 103.723C86.3564 99.4797 95.8575 91.0373 101.427 80.0864C106.996 69.1355 108.223 56.4848 104.861 44.6679C101.499 32.851 93.797 22.7405 83.297 16.3614L88.1151 8.43103Z" stroke="#FF0000" stroke-width="4" mask="url(#path-2-outside-1)"/>
<circle cx="82" cy="17" r="6" stroke="#FF0000" stroke-width="2"/>
</svg>
