<svg width="15" height="23" viewBox="0 0 15 23" fill="none" xmlns="http://www.w3.org/2000/svg">
<path d="M13.1503 2.20716C11.9017 0.742628 10.0007 0 7.49988 0C4.99907 0 3.09803 0.742628 1.8495 2.20716C0.594151 3.6797 0.406738 5.4049 0.406738 6.30225V16.6978C0.406738 17.5951 0.594151 19.3203 1.8495 20.7929C3.09803 22.2574 4.99907 23 7.49988 23C10.0007 23 11.9017 22.2574 13.1503 20.7929C14.4056 19.3203 14.593 17.5951 14.593 16.6978V6.30225C14.593 5.4049 14.4056 3.6797 13.1503 2.20716ZM7.49988 8.0129C6.98167 8.0129 6.5601 7.59134 6.5601 7.07312V5.05921C6.5601 4.54099 6.98167 4.11942 7.49988 4.11942C8.0181 4.11942 8.43967 4.54099 8.43967 5.05921V7.07312C8.43967 7.59134 8.0181 8.0129 7.49988 8.0129ZM13.8511 16.6978C13.8511 17.6263 13.5449 22.2581 7.49988 22.2581C1.45485 22.2581 1.14867 17.6263 1.14867 16.6978V6.30225C1.14867 5.39318 1.44312 0.934789 7.12892 0.748662V3.41923C6.37956 3.58869 5.81816 4.25935 5.81816 5.05921V7.07312C5.81816 7.87297 6.37956 8.54364 7.12892 8.71309V11.7614C7.12892 11.9663 7.29496 12.1323 7.49988 12.1323C7.70481 12.1323 7.87085 11.9663 7.87085 11.7614V8.71309C8.6202 8.54364 9.1816 7.87297 9.1816 7.07312V5.05921C9.1816 4.25935 8.6202 3.58869 7.87085 3.41923V0.748662C13.5567 0.934839 13.8511 5.39318 13.8511 6.30225V16.6978Z" fill="#646464"/>
</svg>
