<svg width="957" height="377" viewBox="0 0 957 377" fill="none" xmlns="http://www.w3.org/2000/svg">
<rect x="290" y="349.18" width="5" height="27.8205" rx="2.5" fill="#00B4AB"/>
<rect x="677" y="349.18" width="5" height="27.8205" rx="2.5" fill="#00709F"/>
<rect x="99" width="5" height="27.8205" rx="2.5" fill="#00FAE4"/>
<rect x="476" width="5" height="27.8205" rx="2.5" fill="#0098AF"/>
<rect x="848" width="5" height="27.8205" rx="2.5" fill="#004E9A"/>
<rect x="195.812" y="226.529" width="136.998" height="136.998" rx="16" transform="rotate(-44.0341 195.812 226.529)" fill="url(#paint0_linear)"/>
<g filter="url(#filter0_i)">
<rect x="201.024" y="226.933" width="129.662" height="129.662" rx="16" transform="rotate(-44.0341 201.024 226.933)" fill="#00BAB1"/>
</g>
<rect y="150.903" width="136.998" height="136.998" rx="16" transform="rotate(-45.1862 0 150.903)" fill="url(#paint1_linear)"/>
<g filter="url(#filter1_i)">
<rect x="5.2207" y="151.202" width="129.662" height="129.662" rx="16" transform="rotate(-45.1862 5.2207 151.202)" fill="#00FFE9"/>
</g>
<rect x="378.343" y="150.067" width="136.998" height="136.998" rx="16" transform="rotate(-44.3874 378.343 150.067)" fill="url(#paint2_linear)"/>
<g filter="url(#filter2_i)">
<rect x="383.558" y="150.439" width="129.662" height="129.662" rx="16" transform="rotate(-44.3874 383.558 150.439)" fill="#009FB7"/>
</g>
<rect x="574.67" y="233.114" width="136.998" height="136.998" rx="16" transform="rotate(-47.3579 574.67 233.114)" fill="url(#paint3_linear)"/>
<g filter="url(#filter3_i)">
<rect x="579.898" y="233.215" width="129.662" height="129.662" rx="16" transform="rotate(-47.3579 579.898 233.215)" fill="#0074A4"/>
</g>
<rect x="760.138" y="153.608" width="136.998" height="136.998" rx="16" transform="rotate(-47.1018 760.138 153.608)" fill="url(#paint4_linear)"/>
<g filter="url(#filter4_i)">
<rect x="765.365" y="153.733" width="129.662" height="129.662" rx="16" transform="rotate(-47.1018 765.365 153.733)" fill="#0052A1"/>
</g>
<path d="M831.112 268.653L776.109 179.562C772.294 174.286 768.336 170.486 765.093 171.131C763.095 171.528 760.685 174.714 758.358 178.394C758.129 178.869 757.874 179.338 757.593 179.798L702.903 269.427C698.3 276.971 688.454 279.354 680.911 274.752L591.281 220.061C591.012 219.897 590.75 219.727 590.495 219.55C588.321 218.375 586.184 217.392 584.509 216.999C582.994 216.643 581.917 217 580.83 217.361C580.05 217.619 579.265 217.88 578.308 217.88C577.392 217.88 576.563 217.673 575.695 217.455C574.081 217.052 572.331 216.614 569.628 217.412C567.786 217.956 565.172 219.472 562.764 220.869C561.137 221.813 559.603 222.702 558.467 223.199C558.401 223.228 558.34 223.238 558.285 223.229L473.301 274.377C465.73 278.933 455.899 276.49 451.342 268.919L398.326 180.831C394.127 175.055 389.405 170.988 385.677 170.701C381.877 170.409 374.676 175.369 371.723 179.189L325.965 268.495C321.935 276.36 312.293 279.468 304.429 275.439L210.983 227.56C208.374 226.223 206.289 224.269 204.814 221.967L205.033 223.613C201.812 220.66 199.951 221.507 198.046 222.373C197.017 222.842 195.975 223.315 194.699 223.199C193.065 223.051 191.858 222.315 190.695 221.607C188.62 220.342 186.684 219.162 182.711 221.546C182.522 221.659 182.398 221.681 182.327 221.628C181.596 222.252 180.798 222.818 179.936 223.317L89.0383 275.872C81.3884 280.295 71.6013 277.679 67.1782 270.029L14.6227 179.131C10.1996 171.482 12.8155 161.694 20.4655 157.271L111.363 104.716C119.013 100.293 128.8 102.909 133.223 110.559L185.779 201.457C185.815 201.519 185.851 201.582 185.886 201.645C188.374 205.091 191.778 208.543 194.699 208.318C200.073 207.905 207.513 199.224 212.474 189.303C213.208 187.834 213.699 186.975 213.998 186.588L251.918 112.579C255.948 104.714 265.59 101.605 273.454 105.635L366.9 153.514C367.725 153.937 368.499 154.422 369.217 154.96C369.324 154.931 369.437 154.941 369.555 154.993C374.116 156.988 378.274 156.232 381.914 155.57C383.553 155.272 385.086 154.993 386.504 154.993C388.442 154.993 390.565 155.456 392.75 155.933C396.52 156.756 400.472 157.619 403.968 156.209L492.618 102.855C500.189 98.298 510.02 100.742 514.577 108.313L565.8 193.422C568.686 197.39 573.979 202.441 577.481 202.172C581.417 201.869 584.909 198.877 588.608 193.724L640.647 108.439C645.25 100.896 655.096 98.5125 662.639 103.115L749.854 156.332C754.884 158.238 758.188 157.217 761.141 156.304C762.548 155.87 763.875 155.46 765.272 155.402C767.188 155.323 769.364 155.66 771.628 156.01C775.778 156.653 780.223 157.341 783.903 155.599L870.505 102.132C878.024 97.4901 887.882 99.8223 892.524 107.341L947.683 196.684C952.325 204.203 949.993 214.061 942.474 218.703L853.132 273.862C845.613 278.504 835.754 276.172 831.112 268.653Z" fill="url(#paint5_linear)"/>
<path d="M764.494 166.608C758.546 166.853 754.5 179 751.099 183.929L741.592 155.821C745.824 158.128 752.323 162.421 756.425 161.562C758.886 161.047 761.313 159.706 765.03 159.552C768.747 159.399 774.27 162.895 777.557 162.346C780.187 161.906 784.169 159.954 786.236 158.714C787.094 166.126 781.081 180.663 780.035 179.382C778.728 177.781 771.928 166.301 764.494 166.608Z" fill="url(#paint6_linear)"/>
<path d="M780.958 180.82C776.316 173.301 778.648 163.443 786.167 158.8L869.268 107.495C876.787 102.853 886.645 105.185 891.288 112.704L942.593 195.805C947.235 203.324 944.903 213.182 937.384 217.825L854.283 269.13C846.764 273.772 836.905 271.44 832.263 263.921L780.958 180.82Z" fill="url(#paint7_linear)"/>
<path d="M402.187 180.523C397.631 172.952 400.074 163.121 407.645 158.564L491.322 108.203C498.893 103.647 508.724 106.09 513.281 113.662L563.642 197.338C568.198 204.909 565.755 214.74 558.184 219.297L474.507 269.658C466.936 274.214 457.105 271.771 452.548 264.2L402.187 180.523Z" fill="url(#paint8_linear)"/>
<path d="M216.048 226.26C208.183 222.23 205.074 212.588 209.104 204.724L253.638 117.806C257.667 109.942 267.309 106.833 275.174 110.863L362.091 155.397C369.955 159.426 373.064 169.068 369.035 176.932L324.501 263.85C320.471 271.714 310.829 274.823 302.965 270.794L216.048 226.26Z" fill="url(#paint9_linear)"/>
<path d="M19.5831 180.785C15.1601 173.135 17.776 163.348 25.4259 158.925L109.973 110.041C117.623 105.618 127.41 108.234 131.834 115.884L180.717 200.431C185.14 208.081 182.525 217.868 174.875 222.291L90.3271 271.175C82.6772 275.598 72.8901 272.982 68.467 265.332L19.5831 180.785Z" fill="url(#paint10_linear)"/>
<path d="M194.285 212.865C188.333 212.865 182.435 204.046 180.23 199.637L176.111 221.5C178.453 219.984 185.274 216.255 187.258 216.585C189.738 216.999 192.218 219.066 194.699 219.479C197.179 219.892 198.832 216.999 202.139 217.412C204.785 217.743 210.484 221.794 212 223.31C212.551 215.869 211.638 200.392 210.646 201.715C209.406 203.368 201.726 212.865 194.285 212.865Z" fill="url(#paint11_linear)"/>
<path d="M385.264 166.155C379.311 166.155 371.76 171.667 369.556 176.076L362.942 155.821C367.076 158.301 373.276 161.47 377.41 160.782C379.89 160.368 382.37 159.128 386.091 159.128C389.811 159.128 395.185 162.848 398.492 162.435C401.138 162.104 405.244 160.644 406.759 159.128C407.311 166.569 401.964 179.878 400.972 178.555C399.732 176.902 392.705 166.155 385.264 166.155Z" fill="url(#paint12_linear)"/>
<path d="M577.07 206.716C571.117 206.716 563.428 197.157 560.948 193.023L555.161 221.133C559.294 218.652 567.975 212.865 571.696 212.452C573.52 212.249 574.176 213.744 577.896 213.744C581.617 213.744 582.857 211.78 584.924 212.038C587.569 212.369 595.258 218.239 598.978 220.719C599.529 213.278 593.77 192.994 592.778 194.317C591.538 195.97 584.51 206.716 577.07 206.716Z" fill="url(#paint13_linear)"/>
<path d="M596.429 219.141C588.885 214.538 586.502 204.692 591.104 197.149L641.974 113.781C646.577 106.238 656.423 103.854 663.966 108.457L747.334 159.326C754.877 163.929 757.261 173.775 752.658 181.318L701.789 264.686C697.186 272.229 687.34 274.613 679.797 270.01L596.429 219.141Z" fill="url(#paint14_linear)"/>
<path d="M887.857 175.6L877.294 165.037C876.625 164.368 875.736 164 874.791 164C873.845 164 872.956 164.368 872.287 165.037L869.805 167.519C869.423 167.901 869.15 168.351 868.98 168.829L857.365 166.749C857.364 166.749 857.363 166.749 857.362 166.749C852.14 165.712 847.041 169.107 845.988 174.33L845.452 176.988C844.861 179.922 846.767 182.791 849.701 183.382C852.636 183.974 855.505 182.068 856.096 179.133L856.424 177.508L861.632 177.964L875.234 191.565L877.699 194.03C878.198 194.53 878.198 195.342 877.699 195.841C877.2 196.34 876.388 196.34 875.888 195.841L869.285 189.238C868.825 188.778 868.079 188.778 867.62 189.238C867.16 189.698 867.16 190.443 867.62 190.903L874.223 197.507C874.465 197.748 874.598 198.07 874.598 198.412C874.598 198.754 874.465 199.075 874.223 199.317C873.723 199.816 872.911 199.816 872.412 199.317L865.809 192.714C865.349 192.254 864.603 192.254 864.143 192.714C863.683 193.174 863.683 193.919 864.143 194.379L870.747 200.983C871.246 201.482 871.246 202.294 870.747 202.793C870.505 203.035 870.183 203.168 869.842 203.168C869.5 203.168 869.178 203.035 868.936 202.793L862.333 196.19C861.873 195.73 861.127 195.73 860.667 196.19C860.207 196.65 860.207 197.396 860.667 197.855L867.271 204.459C867.77 204.958 867.77 205.77 867.271 206.269C866.772 206.768 865.959 206.769 865.46 206.269L842.096 182.906L839.011 179.82C838.551 179.36 837.805 179.36 837.345 179.82C836.885 180.28 836.885 181.026 837.345 181.486L840.43 184.571L843.788 187.929L841.937 189.78C841.331 190.386 840.997 191.192 840.997 192.049C840.997 192.906 841.331 193.712 841.937 194.318L842.541 194.922C843.071 195.452 843.754 195.773 844.489 195.846C844.562 196.582 844.884 197.264 845.413 197.794L846.017 198.398C846.561 198.942 847.254 199.249 847.965 199.32C848.037 200.057 848.359 200.74 848.89 201.27L849.494 201.874C850.024 202.404 850.706 202.726 851.442 202.798C851.515 203.534 851.836 204.217 852.366 204.747L852.97 205.351C853.596 205.976 854.417 206.289 855.239 206.289C856.061 206.289 856.882 205.976 857.508 205.351L859.359 203.5L863.794 207.935C864.481 208.622 865.394 209 866.365 209C867.336 209 868.25 208.622 868.936 207.935C869.587 207.285 869.956 206.43 869.994 205.516C870.908 205.479 871.762 205.11 872.413 204.459C873.083 203.788 873.432 202.919 873.469 202.039C874.349 202.002 875.218 201.653 875.889 200.983C876.559 200.312 876.908 199.443 876.945 198.563C877.825 198.526 878.695 198.177 879.365 197.507C880.783 196.089 880.783 193.782 879.365 192.365L877.733 190.733L883.705 184.76L887.858 180.608C889.238 179.227 889.238 176.981 887.857 175.6ZM843.603 192.652C843.27 192.319 843.27 191.778 843.603 191.445L845.338 189.71L847.149 191.52L845.413 193.256C845.081 193.589 844.539 193.589 844.207 193.256L843.603 192.652ZM847.079 196.128C846.746 195.796 846.746 195.254 847.079 194.922L848.815 193.186L850.625 194.997L848.89 196.733C848.557 197.065 848.016 197.065 847.683 196.733L847.079 196.128ZM850.555 199.605C850.394 199.444 850.305 199.229 850.305 199.001C850.305 198.774 850.394 198.559 850.555 198.398L852.291 196.663L854.101 198.473L852.366 200.209C852.033 200.541 851.492 200.541 851.159 200.209L850.555 199.605ZM855.842 203.685C855.51 204.018 854.968 204.018 854.635 203.685L854.031 203.081C853.699 202.748 853.699 202.207 854.031 201.874L855.767 200.139L857.578 201.949L855.842 203.685ZM876.067 189.067L862.995 175.995C862.799 175.799 862.54 175.678 862.264 175.654L855.58 175.07C855.545 175.067 855.511 175.065 855.476 175.065C854.921 175.065 854.434 175.457 854.323 176.011L853.787 178.668C853.452 180.329 851.829 181.408 850.167 181.073C849.362 180.911 848.669 180.445 848.214 179.761C847.76 179.078 847.599 178.258 847.762 177.453L848.297 174.796C849.095 170.837 852.964 168.264 856.925 169.063C856.933 169.065 856.942 169.067 856.95 169.068L868.395 171.117L869.805 172.526L881.206 183.928L876.067 189.067ZM886.192 178.942L882.871 182.262L871.47 170.861C871.246 170.637 871.123 170.339 871.123 170.023C871.123 169.706 871.246 169.409 871.47 169.185L873.953 166.702C874.176 166.478 874.474 166.355 874.79 166.355C875.107 166.355 875.404 166.478 875.628 166.702L886.192 177.266C886.415 177.489 886.539 177.787 886.539 178.104C886.539 178.42 886.415 178.718 886.192 178.942Z" fill="#888888"/>
<path d="M883.341 179.749C883.991 179.749 884.518 179.222 884.518 178.571C884.518 177.921 883.991 177.394 883.341 177.394C882.69 177.394 882.163 177.921 882.163 178.571C882.163 179.222 882.69 179.749 883.341 179.749Z" fill="#888888"/>
<path d="M494.762 175.921C494.141 176.541 494.141 177.546 494.761 178.167C498.933 182.342 498.931 189.137 494.755 193.315C494.135 193.936 494.135 194.941 494.756 195.561C495.066 195.871 495.472 196.026 495.879 196.026C496.285 196.026 496.692 195.871 497.002 195.561C502.415 190.145 502.417 181.335 497.008 175.921C496.388 175.301 495.382 175.301 494.762 175.921Z" fill="#888888"/>
<path d="M488.824 180.477C488.204 181.097 488.203 182.102 488.824 182.723C490.487 184.387 490.487 187.096 488.823 188.76C488.203 189.38 488.203 190.386 488.824 191.006C489.134 191.316 489.54 191.471 489.947 191.471C490.353 191.471 490.76 191.316 491.07 191.005C493.971 188.103 493.971 183.38 491.07 180.478C490.45 179.857 489.445 179.856 488.824 180.477Z" fill="#888888"/>
<path d="M504.039 168.887C503.419 168.266 502.413 168.266 501.793 168.886C501.172 169.506 501.172 170.511 501.792 171.132C509.84 179.185 509.836 192.291 501.784 200.347C501.164 200.968 501.164 201.973 501.785 202.593C502.095 202.903 502.501 203.058 502.907 203.058C503.314 203.058 503.721 202.903 504.031 202.593C513.32 193.298 513.324 178.177 504.039 168.887Z" fill="#888888"/>
<path d="M475.555 195.984C479.638 195.703 482.875 192.289 482.875 188.131C482.875 183.789 479.347 180.257 475.009 180.257C470.672 180.257 467.144 183.789 467.144 188.131C467.144 192.289 470.381 195.702 474.464 195.984C471.407 196.102 468.714 197.206 466.838 199.127C464.91 201.1 463.93 203.832 464.004 207.028C464.024 207.89 464.729 208.579 465.592 208.579H484.425C485.288 208.579 485.993 207.89 486.013 207.028C486.087 203.832 485.107 201.099 483.179 199.126C481.303 197.206 478.612 196.102 475.555 195.984ZM470.32 188.131C470.32 185.541 472.424 183.433 475.009 183.433C477.595 183.433 479.699 185.54 479.699 188.131C479.699 190.721 477.595 192.829 475.009 192.829C472.424 192.829 470.32 190.721 470.32 188.131ZM467.254 205.403C467.46 203.759 468.082 202.399 469.11 201.347C470.494 199.93 472.59 199.149 475.009 199.149C477.428 199.149 479.523 199.929 480.907 201.346C481.935 202.398 482.557 203.758 482.763 205.403H467.254Z" fill="#888888"/>
<path d="M667.712 191.596C667.623 194 668.528 195.952 670.196 196.951C670.906 197.377 671.703 197.59 672.5 197.59C673.297 197.59 674.094 197.377 674.804 196.951C676.472 195.952 677.377 194 677.288 191.596C677.177 188.603 674.747 187.156 672.537 187.078C672.512 187.077 672.488 187.077 672.463 187.078C670.253 187.156 667.823 188.603 667.712 191.596ZM669.821 191.676C669.885 189.939 671.296 189.262 672.5 189.207C673.704 189.262 675.115 189.939 675.179 191.676C675.239 193.276 674.709 194.532 673.726 195.121C672.97 195.574 672.03 195.574 671.273 195.121C670.291 194.532 669.761 193.276 669.821 191.676ZM684.539 191.596C684.45 194 685.355 195.952 687.023 196.951C687.733 197.377 688.53 197.59 689.327 197.59C690.124 197.59 690.921 197.377 691.631 196.951C693.299 195.952 694.204 194 694.115 191.596C694.004 188.603 691.574 187.156 689.364 187.078C689.34 187.077 689.315 187.077 689.29 187.078C687.079 187.156 684.65 188.603 684.539 191.596ZM686.648 191.676C686.712 189.939 688.122 189.262 689.327 189.207C690.531 189.262 691.942 189.939 692.006 191.676C692.066 193.276 691.536 194.532 690.554 195.121C689.797 195.574 688.857 195.574 688.1 195.121C687.118 194.532 686.588 193.276 686.648 191.676ZM678.609 176.874C679.32 177.3 680.116 177.513 680.913 177.513C681.71 177.513 682.507 177.3 683.217 176.874C684.885 175.875 685.79 173.923 685.701 171.519C685.59 168.526 683.161 167.079 680.95 167.001C680.926 167 680.901 167 680.876 167.001C678.666 167.079 676.237 168.526 676.126 171.519C676.036 173.923 676.941 175.874 678.609 176.874ZM678.234 171.599C678.298 169.862 679.709 169.185 680.913 169.13C682.118 169.185 683.528 169.862 683.593 171.599C683.652 173.199 683.122 174.455 682.14 175.044C681.383 175.498 680.443 175.497 679.687 175.044C678.704 174.455 678.175 173.199 678.234 171.599ZM653.369 196.951C654.079 197.377 654.876 197.59 655.673 197.59C656.47 197.59 657.266 197.377 657.977 196.951C659.645 195.952 660.55 194 660.461 191.596C660.35 188.603 657.92 187.156 655.71 187.078C655.685 187.077 655.661 187.077 655.636 187.078C653.425 187.156 650.996 188.603 650.885 191.596C650.796 194 651.701 195.952 653.369 196.951ZM652.994 191.676C653.058 189.939 654.468 189.262 655.673 189.207C656.877 189.262 658.288 189.939 658.352 191.676C658.412 193.276 657.882 194.532 656.9 195.121C656.143 195.574 655.203 195.574 654.446 195.121C653.464 194.532 652.934 193.276 652.994 191.676ZM679.155 208.69C679.261 209.268 678.883 209.823 678.31 209.93C678.245 209.943 678.18 209.949 678.117 209.949C677.618 209.949 677.175 209.593 677.081 209.08L676.15 204.018C675.831 202.275 674.086 201.502 672.5 201.502C670.913 201.502 669.169 202.295 668.849 204.037L668.15 207.871H672.953C673.536 207.871 674.008 208.348 674.008 208.936C674.008 209.523 673.536 210 672.953 210H666.882C666.569 210 666.271 209.833 666.071 209.59C665.87 209.347 665.788 209 665.845 208.689L666.775 203.623C667.316 200.678 670.04 199.36 672.5 199.36C674.96 199.36 677.685 200.678 678.225 203.623L679.155 208.69ZM680.913 181.619C679.327 181.619 677.583 182.399 677.263 184.141C677.157 184.719 676.606 185.101 676.034 184.994C675.461 184.887 675.082 184.332 675.188 183.754C675.729 180.809 678.453 179.49 680.913 179.49C683.373 179.49 686.098 180.808 686.639 183.754C686.745 184.332 686.367 184.887 685.794 184.994C685.729 185.006 685.664 185.012 685.6 185.012C685.101 185.012 684.658 184.654 684.564 184.141C684.244 182.399 682.5 181.619 680.913 181.619ZM695.137 209.93C695.072 209.943 695.007 209.949 694.944 209.949C694.445 209.949 694.002 209.593 693.908 209.08L692.978 204.018C692.658 202.275 690.914 201.502 689.327 201.502C687.74 201.502 685.996 202.295 685.676 204.037L684.977 207.871H689.78C690.363 207.871 690.835 208.348 690.835 208.936C690.835 209.523 690.363 210 689.78 210H683.709C683.395 210 683.098 209.833 682.898 209.59C682.697 209.347 682.614 209 682.671 208.689L683.602 203.623C684.142 200.678 686.867 199.36 689.327 199.36C691.787 199.36 694.512 200.678 695.052 203.623L695.982 208.689C696.088 209.267 695.71 209.823 695.137 209.93ZM661.782 176.874C662.493 177.3 663.29 177.513 664.086 177.513C664.883 177.513 665.68 177.3 666.391 176.874C668.058 175.875 668.963 173.923 668.874 171.519C668.764 168.526 666.334 167.079 664.124 167.001C664.099 167 664.074 167 664.049 167.001C661.839 167.079 659.41 168.526 659.299 171.519C659.209 173.923 660.115 175.875 661.782 176.874ZM661.407 171.598C661.472 169.861 662.882 169.185 664.087 169.13C665.291 169.185 666.702 169.861 666.766 171.598C666.825 173.199 666.296 174.455 665.313 175.044C664.557 175.497 663.617 175.497 662.86 175.044C661.877 174.455 661.348 173.199 661.407 171.598ZM662.328 208.69C662.435 209.268 662.056 209.823 661.483 209.93C661.418 209.943 661.354 209.949 661.29 209.949C660.791 209.949 660.348 209.593 660.254 209.08L659.324 204.018C659.004 202.275 657.26 201.502 655.673 201.502C654.086 201.502 652.342 202.295 652.022 204.037L651.323 207.871H656.435C657.017 207.871 657.489 208.348 657.489 208.936C657.489 209.523 657.017 210 656.435 210H650.055C649.742 210 649.444 209.833 649.244 209.59C649.043 209.347 648.961 209 649.018 208.689L649.948 203.623C650.488 200.678 653.213 199.36 655.673 199.36C658.133 199.36 660.858 200.678 661.398 203.623L662.328 208.69ZM664.087 181.619C662.5 181.619 660.756 182.399 660.436 184.141C660.33 184.719 659.779 185.101 659.206 184.994C658.634 184.887 658.255 184.332 658.361 183.754C658.902 180.808 661.626 179.49 664.087 179.49C666.547 179.49 669.271 180.808 669.812 183.754C669.918 184.332 669.54 184.887 668.967 184.994C668.902 185.006 668.837 185.012 668.773 185.012C668.275 185.012 667.831 184.654 667.737 184.141C667.417 182.399 665.673 181.619 664.087 181.619Z" fill="#888888" stroke="#888888"/>
<path d="M297.323 164H296.408H277.192C275.178 164 273.531 165.647 273.531 167.66V209.753C273.531 211.766 275.178 213.414 277.192 213.414H304.643C306.657 213.414 308.304 211.766 308.304 209.753V177.726V176.811L297.323 164ZM297.323 166.745L305.925 176.811H299.153C298.238 176.811 297.323 175.896 297.323 174.981V166.745ZM306.474 209.753C306.474 210.668 305.742 211.583 304.643 211.583H277.192C276.276 211.583 275.361 210.851 275.361 209.753V167.66C275.361 166.745 276.093 165.83 277.192 165.83H295.493V174.981C295.493 176.994 297.14 178.641 299.153 178.641H306.474V209.753Z" fill="#888888" stroke="#888888"/>
<path d="M125.244 203.463L122.5 195.967C123.367 193.547 123.806 191.009 123.806 188.405C123.809 176.051 113.758 166 101.405 166C89.0509 166 79 176.051 79 188.405C79 200.76 89.0509 210.81 101.405 210.81C105.876 210.81 110.271 209.447 113.964 206.948L119.472 209.105C120.178 209.383 120.874 209.523 121.538 209.523C122.915 209.523 124.135 208.91 124.881 207.839C125.365 207.154 126.051 205.668 125.244 203.463ZM121.541 206.472C121.268 206.472 120.947 206.405 120.589 206.262L113.512 203.493C110.196 206.156 105.991 207.76 101.405 207.76C90.7152 207.758 82.0508 199.094 82.0508 188.405C82.0508 177.717 90.7152 169.051 101.405 169.051C112.094 169.051 120.76 177.715 120.76 188.405C120.76 191.075 120.22 193.618 119.242 195.932L122.383 204.512C122.825 205.725 122.45 206.472 121.541 206.472Z" fill="#888888"/>
<path d="M110.08 190.882C111.449 190.882 112.559 189.773 112.559 188.404C112.559 187.035 111.449 185.925 110.08 185.925C108.711 185.925 107.601 187.035 107.601 188.404C107.601 189.773 108.711 190.882 110.08 190.882Z" fill="#888888"/>
<path d="M100.928 190.882C102.297 190.882 103.407 189.773 103.407 188.404C103.407 187.035 102.297 185.925 100.928 185.925C99.5588 185.925 98.449 187.035 98.449 188.404C98.449 189.773 99.5588 190.882 100.928 190.882Z" fill="#888888"/>
<path d="M91.7757 190.882C93.1447 190.882 94.2545 189.773 94.2545 188.404C94.2545 187.035 93.1447 185.925 91.7757 185.925C90.4067 185.925 89.2969 187.035 89.2969 188.404C89.2969 189.773 90.4067 190.882 91.7757 190.882Z" fill="#888888"/>
<defs>
<filter id="filter0_i" x="201.024" y="136.807" width="183.344" height="183.344" filterUnits="userSpaceOnUse" color-interpolation-filters="sRGB">
<feFlood flood-opacity="0" result="BackgroundImageFix"/>
<feBlend mode="normal" in="SourceGraphic" in2="BackgroundImageFix" result="shape"/>
<feColorMatrix in="SourceAlpha" type="matrix" values="0 0 0 0 0 0 0 0 0 0 0 0 0 0 0 0 0 0 127 0" result="hardAlpha"/>
<feOffset/>
<feGaussianBlur stdDeviation="25"/>
<feComposite in2="hardAlpha" operator="arithmetic" k2="-1" k3="1"/>
<feColorMatrix type="matrix" values="0 0 0 0 0 0 0 0 0 0 0 0 0 0 0 0 0 0 1 0"/>
<feBlend mode="normal" in2="shape" result="effect1_innerShadow"/>
</filter>
<filter id="filter1_i" x="5.2207" y="59.2197" width="183.369" height="183.369" filterUnits="userSpaceOnUse" color-interpolation-filters="sRGB">
<feFlood flood-opacity="0" result="BackgroundImageFix"/>
<feBlend mode="normal" in="SourceGraphic" in2="BackgroundImageFix" result="shape"/>
<feColorMatrix in="SourceAlpha" type="matrix" values="0 0 0 0 0 0 0 0 0 0 0 0 0 0 0 0 0 0 127 0" result="hardAlpha"/>
<feOffset/>
<feGaussianBlur stdDeviation="25"/>
<feComposite in2="hardAlpha" operator="arithmetic" k2="-1" k3="1"/>
<feColorMatrix type="matrix" values="0 0 0 0 0 0 0 0 0 0 0 0 0 0 0 0 0 0 1 0"/>
<feBlend mode="normal" in2="shape" result="effect1_innerShadow"/>
</filter>
<filter id="filter2_i" x="383.558" y="59.7393" width="183.36" height="183.36" filterUnits="userSpaceOnUse" color-interpolation-filters="sRGB">
<feFlood flood-opacity="0" result="BackgroundImageFix"/>
<feBlend mode="normal" in="SourceGraphic" in2="BackgroundImageFix" result="shape"/>
<feColorMatrix in="SourceAlpha" type="matrix" values="0 0 0 0 0 0 0 0 0 0 0 0 0 0 0 0 0 0 127 0" result="hardAlpha"/>
<feOffset/>
<feGaussianBlur stdDeviation="25"/>
<feComposite in2="hardAlpha" operator="arithmetic" k2="-1" k3="1"/>
<feColorMatrix type="matrix" values="0 0 0 0 0 0 0 0 0 0 0 0 0 0 0 0 0 0 1 0"/>
<feBlend mode="normal" in2="shape" result="effect1_innerShadow"/>
</filter>
<filter id="filter3_i" x="579.898" y="137.836" width="183.215" height="183.215" filterUnits="userSpaceOnUse" color-interpolation-filters="sRGB">
<feFlood flood-opacity="0" result="BackgroundImageFix"/>
<feBlend mode="normal" in="SourceGraphic" in2="BackgroundImageFix" result="shape"/>
<feColorMatrix in="SourceAlpha" type="matrix" values="0 0 0 0 0 0 0 0 0 0 0 0 0 0 0 0 0 0 127 0" result="hardAlpha"/>
<feOffset/>
<feGaussianBlur stdDeviation="25"/>
<feComposite in2="hardAlpha" operator="arithmetic" k2="-1" k3="1"/>
<feColorMatrix type="matrix" values="0 0 0 0 0 0 0 0 0 0 0 0 0 0 0 0 0 0 1 0"/>
<feBlend mode="normal" in2="shape" result="effect1_innerShadow"/>
</filter>
<filter id="filter4_i" x="765.365" y="58.7471" width="183.247" height="183.247" filterUnits="userSpaceOnUse" color-interpolation-filters="sRGB">
<feFlood flood-opacity="0" result="BackgroundImageFix"/>
<feBlend mode="normal" in="SourceGraphic" in2="BackgroundImageFix" result="shape"/>
<feColorMatrix in="SourceAlpha" type="matrix" values="0 0 0 0 0 0 0 0 0 0 0 0 0 0 0 0 0 0 127 0" result="hardAlpha"/>
<feOffset/>
<feGaussianBlur stdDeviation="25"/>
<feComposite in2="hardAlpha" operator="arithmetic" k2="-1" k3="1"/>
<feColorMatrix type="matrix" values="0 0 0 0 0 0 0 0 0 0 0 0 0 0 0 0 0 0 1 0"/>
<feBlend mode="normal" in2="shape" result="effect1_innerShadow"/>
</filter>
<linearGradient id="paint0_linear" x1="321.005" y1="227.271" x2="198.331" y2="360.348" gradientUnits="userSpaceOnUse">
<stop stop-color="#004845"/>
<stop offset="1" stop-color="white"/>
</linearGradient>
<linearGradient id="paint1_linear" x1="125.193" y1="151.645" x2="2.51897" y2="284.722" gradientUnits="userSpaceOnUse">
<stop stop-color="#01675E"/>
<stop offset="1" stop-color="white"/>
</linearGradient>
<linearGradient id="paint2_linear" x1="503.536" y1="150.809" x2="380.862" y2="283.886" gradientUnits="userSpaceOnUse">
<stop stop-color="#00363E"/>
<stop offset="1" stop-color="white"/>
</linearGradient>
<linearGradient id="paint3_linear" x1="699.863" y1="233.856" x2="577.189" y2="366.934" gradientUnits="userSpaceOnUse">
<stop stop-color="#002737"/>
<stop offset="1" stop-color="white"/>
</linearGradient>
<linearGradient id="paint4_linear" x1="885.331" y1="154.351" x2="762.657" y2="287.428" gradientUnits="userSpaceOnUse">
<stop stop-color="#001B35"/>
<stop offset="1" stop-color="white"/>
</linearGradient>
<linearGradient id="paint5_linear" x1="501" y1="100" x2="498" y2="278" gradientUnits="userSpaceOnUse">
<stop stop-color="#FEFEFE"/>
<stop offset="1" stop-color="#D8D8D8"/>
</linearGradient>
<linearGradient id="paint6_linear" x1="511.5" y1="98" x2="506.5" y2="287" gradientUnits="userSpaceOnUse">
<stop stop-color="#E3E8E9"/>
<stop offset="1" stop-color="white"/>
</linearGradient>
<linearGradient id="paint7_linear" x1="511.5" y1="98" x2="506.5" y2="287" gradientUnits="userSpaceOnUse">
<stop stop-color="#E3E8E9"/>
<stop offset="1" stop-color="white"/>
</linearGradient>
<linearGradient id="paint8_linear" x1="511.5" y1="98" x2="506.5" y2="287" gradientUnits="userSpaceOnUse">
<stop stop-color="#E3E8E9"/>
<stop offset="1" stop-color="white"/>
</linearGradient>
<linearGradient id="paint9_linear" x1="511.5" y1="98" x2="506.5" y2="287" gradientUnits="userSpaceOnUse">
<stop stop-color="#E3E8E9"/>
<stop offset="1" stop-color="white"/>
</linearGradient>
<linearGradient id="paint10_linear" x1="511.5" y1="98" x2="506.5" y2="287" gradientUnits="userSpaceOnUse">
<stop stop-color="#E3E8E9"/>
<stop offset="1" stop-color="white"/>
</linearGradient>
<linearGradient id="paint11_linear" x1="511.5" y1="98" x2="506.5" y2="287" gradientUnits="userSpaceOnUse">
<stop stop-color="#E3E8E9"/>
<stop offset="1" stop-color="white"/>
</linearGradient>
<linearGradient id="paint12_linear" x1="511.5" y1="98" x2="506.5" y2="287" gradientUnits="userSpaceOnUse">
<stop stop-color="#E3E8E9"/>
<stop offset="1" stop-color="white"/>
</linearGradient>
<linearGradient id="paint13_linear" x1="511.5" y1="98" x2="506.5" y2="287" gradientUnits="userSpaceOnUse">
<stop stop-color="#E3E8E9"/>
<stop offset="1" stop-color="white"/>
</linearGradient>
<linearGradient id="paint14_linear" x1="511.5" y1="98" x2="506.5" y2="287" gradientUnits="userSpaceOnUse">
<stop stop-color="#E3E8E9"/>
<stop offset="1" stop-color="white"/>
</linearGradient>
</defs>
</svg>
