<svg width="53" height="45" viewBox="0 0 53 45" fill="none" xmlns="http://www.w3.org/2000/svg">
<rect x="1.84863" y="1.72559" width="49.4125" height="29.6573" rx="5" stroke="#0075B8" stroke-width="2"/>
<rect x="1.84766" y="39.6558" width="49.4125" height="3.58042" rx="1.79021" stroke="#0075B8" stroke-width="2"/>
<mask id="path-3-outside-1" maskUnits="userSpaceOnUse" x="15.1421" y="5.82364" width="21" height="22" fill="black">
<rect fill="white" x="15.1421" y="5.82364" width="21" height="22"/>
<path d="M32.2623 16.4267C32.2623 19.9277 29.4047 22.7658 25.8797 22.7658C22.3548 22.7658 19.4972 19.9277 19.4972 16.4267C19.4972 12.9257 22.3548 10.0876 25.8797 10.0876C29.4047 10.0876 32.2623 12.9257 32.2623 16.4267Z"/>
<path d="M24.5121 8.72923C24.5121 8.22908 24.9203 7.82364 25.4238 7.82364H26.7915C27.2951 7.82364 27.7033 8.22908 27.7033 8.72923V10.0876C27.7033 10.5878 27.2951 10.9932 26.7915 10.9932H25.4238C24.9203 10.9932 24.5121 10.5878 24.5121 10.0876V8.72923Z"/>
<path d="M24.5121 22.7658C24.5121 22.2657 24.9203 21.8603 25.4238 21.8603H26.7915C27.2951 21.8603 27.7033 22.2657 27.7033 22.7658V24.1242C27.7033 24.6244 27.2951 25.0298 26.7915 25.0298H25.4238C24.9203 25.0298 24.5121 24.6244 24.5121 24.1242V22.7658Z"/>
<path d="M18.5981 13.9504C18.162 13.7004 18.0126 13.1465 18.2644 12.7134L18.9482 11.537C19.2 11.1038 19.7577 10.9554 20.1938 11.2055L21.3782 11.8847C21.8143 12.1348 21.9638 12.6886 21.712 13.1218L21.0281 14.2982C20.7763 14.7313 20.2187 14.8797 19.7826 14.6296L18.5981 13.9504Z"/>
<path d="M30.8375 20.9687C30.4014 20.7187 30.252 20.1648 30.5038 19.7317L31.1876 18.5553C31.4394 18.1222 31.997 17.9738 32.4331 18.2238L33.6176 18.903C34.0537 19.1531 34.2031 19.7069 33.9513 20.1401L33.2675 21.3165C33.0157 21.7496 32.458 21.898 32.0219 21.6479L30.8375 20.9687Z"/>
<path d="M32.022 11.2055C32.4581 10.9554 33.0158 11.1038 33.2676 11.537L33.9514 12.7134C34.2032 13.1465 34.0538 13.7004 33.6177 13.9504L32.4332 14.6296C31.9971 14.8797 31.4395 14.7313 31.1877 14.2982L30.5039 13.1218C30.2521 12.6886 30.4015 12.1348 30.8376 11.8847L32.022 11.2055Z"/>
<path d="M19.7827 18.2238C20.2188 17.9737 20.7764 18.1222 21.0282 18.5553L21.7121 19.7317C21.9639 20.1648 21.8144 20.7187 21.3783 20.9687L20.1939 21.6479C19.7578 21.898 19.2001 21.7496 18.9483 21.3165L18.2645 20.1401C18.0127 19.7069 18.1621 19.1531 18.5982 18.903L19.7827 18.2238Z"/>
</mask>
<path d="M18.5981 13.9504L19.593 12.2154L19.593 12.2154L18.5981 13.9504ZM18.2644 12.7134L19.9935 13.7185L18.2644 12.7134ZM18.9482 11.537L20.6773 12.5421V12.5421L18.9482 11.537ZM20.1938 11.2055L21.1887 9.47052L20.1938 11.2055ZM21.3782 11.8847L20.3833 13.6197L20.3833 13.6197L21.3782 11.8847ZM21.712 13.1218L19.9829 12.1166L19.9829 12.1166L21.712 13.1218ZM21.0281 14.2982L22.7572 15.3033H22.7572L21.0281 14.2982ZM19.7826 14.6296L18.7877 16.3646L18.7877 16.3646L19.7826 14.6296ZM30.8375 20.9687L31.8324 19.2337L30.8375 20.9687ZM30.5038 19.7317L32.2328 20.7368L30.5038 19.7317ZM31.1876 18.5553L29.4585 17.5502L31.1876 18.5553ZM32.4331 18.2238L31.4382 19.9588L32.4331 18.2238ZM33.6176 18.903L34.6125 17.168L33.6176 18.903ZM33.9513 20.1401L32.2222 19.1349L33.9513 20.1401ZM33.2675 21.3165L34.9966 22.3216L33.2675 21.3165ZM32.0219 21.6479L31.0271 23.3829L32.0219 21.6479ZM32.022 11.2055L31.0272 9.47052V9.47052L32.022 11.2055ZM33.2676 11.537L31.5385 12.5421V12.5421L33.2676 11.537ZM33.9514 12.7134L35.6805 11.7082V11.7082L33.9514 12.7134ZM33.6177 13.9504L32.6228 12.2154H32.6228L33.6177 13.9504ZM32.4332 14.6296L33.4281 16.3646L32.4332 14.6296ZM31.1877 14.2982L32.9168 13.293V13.293L31.1877 14.2982ZM30.5039 13.1218L28.7748 14.1269L28.7748 14.1269L30.5039 13.1218ZM30.8376 11.8847L31.8325 13.6197V13.6197L30.8376 11.8847ZM19.7827 18.2238L18.7878 16.4888L18.7878 16.4888L19.7827 18.2238ZM21.0282 18.5553L22.7573 17.5502L21.0282 18.5553ZM21.7121 19.7317L19.983 20.7368L19.983 20.7368L21.7121 19.7317ZM21.3783 20.9687L22.3732 22.7037L21.3783 20.9687ZM20.1939 21.6479L19.199 19.9129H19.199L20.1939 21.6479ZM18.9483 21.3165L17.2193 22.3216L17.2193 22.3216L18.9483 21.3165ZM18.2645 20.1401L19.9936 19.1349H19.9936L18.2645 20.1401ZM18.5982 18.903L19.5931 20.638H19.5931L18.5982 18.903ZM30.2623 16.4267C30.2623 18.8103 28.3131 20.7658 25.8797 20.7658V24.7658C30.4964 24.7658 34.2623 21.0451 34.2623 16.4267H30.2623ZM25.8797 20.7658C23.4464 20.7658 21.4972 18.8103 21.4972 16.4267H17.4972C17.4972 21.0451 21.2631 24.7658 25.8797 24.7658V20.7658ZM21.4972 16.4267C21.4972 14.0432 23.4464 12.0876 25.8797 12.0876V8.08761C21.2631 8.08761 17.4972 11.8083 17.4972 16.4267H21.4972ZM25.8797 12.0876C28.3131 12.0876 30.2623 14.0432 30.2623 16.4267H34.2623C34.2623 11.8083 30.4964 8.08761 25.8797 8.08761V12.0876ZM26.512 8.72923C26.512 9.34651 26.0119 9.82364 25.4238 9.82364V5.82364C23.8286 5.82364 22.5121 7.11166 22.5121 8.72923H26.512ZM25.4238 9.82364H26.7915V5.82364H25.4238V9.82364ZM26.7915 9.82364C26.2034 9.82364 25.7033 9.34651 25.7033 8.72923H29.7033C29.7033 7.11166 28.3868 5.82364 26.7915 5.82364V9.82364ZM25.7033 8.72923V10.0876H29.7033V8.72923H25.7033ZM25.7033 10.0876C25.7033 9.47033 26.2034 8.9932 26.7915 8.9932V12.9932C28.3868 12.9932 29.7033 11.7052 29.7033 10.0876H25.7033ZM26.7915 8.9932H25.4238V12.9932H26.7915V8.9932ZM25.4238 8.9932C26.0119 8.9932 26.512 9.47033 26.512 10.0876H22.5121C22.5121 11.7052 23.8286 12.9932 25.4238 12.9932V8.9932ZM26.512 10.0876V8.72923H22.5121V10.0876H26.512ZM26.512 22.7658C26.512 23.3831 26.0119 23.8603 25.4238 23.8603V19.8603C23.8286 19.8603 22.5121 21.1483 22.5121 22.7658H26.512ZM25.4238 23.8603H26.7915V19.8603H25.4238V23.8603ZM26.7915 23.8603C26.2034 23.8603 25.7033 23.3831 25.7033 22.7658H29.7033C29.7033 21.1483 28.3868 19.8603 26.7915 19.8603V23.8603ZM25.7033 22.7658V24.1242H29.7033V22.7658H25.7033ZM25.7033 24.1242C25.7033 23.5069 26.2034 23.0298 26.7915 23.0298V27.0298C28.3868 27.0298 29.7033 25.7418 29.7033 24.1242H25.7033ZM26.7915 23.0298H25.4238V27.0298H26.7915V23.0298ZM25.4238 23.0298C26.0119 23.0298 26.512 23.5069 26.512 24.1242H22.5121C22.5121 25.7418 23.8286 27.0298 25.4238 27.0298V23.0298ZM26.512 24.1242V22.7658H22.5121V24.1242H26.512ZM19.593 12.2154C20.1135 12.5139 20.3024 13.1871 19.9935 13.7185L16.5353 11.7082C15.7228 13.1059 16.2106 14.8868 17.6033 15.6854L19.593 12.2154ZM19.9935 13.7185L20.6773 12.5421L17.2192 10.5319L16.5353 11.7082L19.9935 13.7185ZM20.6773 12.5421C20.3731 13.0654 19.7115 13.2344 19.1989 12.9405L21.1887 9.47052C19.8039 8.67646 18.0269 9.14225 17.2192 10.5319L20.6773 12.5421ZM19.1989 12.9405L20.3833 13.6197L22.3731 10.1497L21.1887 9.47052L19.1989 12.9405ZM20.3833 13.6197C19.8629 13.3212 19.674 12.648 19.9829 12.1166L23.4411 14.1269C24.2535 12.7292 23.7658 10.9483 22.3731 10.1497L20.3833 13.6197ZM19.9829 12.1166L19.299 13.293L22.7572 15.3033L23.4411 14.1269L19.9829 12.1166ZM19.299 13.293C19.6033 12.7697 20.2649 12.6007 20.7775 12.8946L18.7877 16.3646C20.1725 17.1587 21.9494 16.6929 22.7572 15.3033L19.299 13.293ZM20.7775 12.8946L19.593 12.2154L17.6033 15.6854L18.7877 16.3646L20.7775 12.8946ZM31.8324 19.2337C32.3529 19.5322 32.5417 20.2054 32.2328 20.7368L28.7747 18.7266C27.9622 20.1242 28.4499 21.9051 29.8426 22.7037L31.8324 19.2337ZM32.2328 20.7368L32.9167 19.5604L29.4585 17.5502L28.7747 18.7266L32.2328 20.7368ZM32.9167 19.5604C32.6125 20.0837 31.9508 20.2527 31.4382 19.9588L33.428 16.4888C32.0432 15.6948 30.2663 16.1606 29.4585 17.5502L32.9167 19.5604ZM31.4382 19.9588L32.6227 20.638L34.6125 17.168L33.428 16.4888L31.4382 19.9588ZM32.6227 20.638C32.1022 20.3396 31.9133 19.6664 32.2222 19.1349L35.6804 21.1452C36.4929 19.7475 36.0052 17.9666 34.6125 17.168L32.6227 20.638ZM32.2222 19.1349L31.5384 20.3113L34.9966 22.3216L35.6804 21.1452L32.2222 19.1349ZM31.5384 20.3113C31.8426 19.788 32.5043 19.619 33.0168 19.9129L31.0271 23.3829C32.4118 24.177 34.1888 23.7112 34.9966 22.3216L31.5384 20.3113ZM33.0168 19.9129L31.8324 19.2337L29.8426 22.7037L31.0271 23.3829L33.0168 19.9129ZM33.0169 12.9405C32.5044 13.2344 31.8427 13.0654 31.5385 12.5421L34.9967 10.5319C34.1889 9.14225 32.4119 8.67646 31.0272 9.47052L33.0169 12.9405ZM31.5385 12.5421L32.2223 13.7185L35.6805 11.7082L34.9967 10.5319L31.5385 12.5421ZM32.2223 13.7185C31.9134 13.1871 32.1023 12.5139 32.6228 12.2154L34.6126 15.6854C36.0052 14.8868 36.493 13.1059 35.6805 11.7082L32.2223 13.7185ZM32.6228 12.2154L31.4383 12.8946L33.4281 16.3646L34.6126 15.6854L32.6228 12.2154ZM31.4383 12.8946C31.9509 12.6007 32.6126 12.7697 32.9168 13.293L29.4586 15.3033C30.2664 16.6929 32.0433 17.1587 33.4281 16.3646L31.4383 12.8946ZM32.9168 13.293L32.2329 12.1166L28.7748 14.1269L29.4586 15.3033L32.9168 13.293ZM32.2329 12.1166C32.5418 12.648 32.353 13.3212 31.8325 13.6197L29.8427 10.1497C28.45 10.9483 27.9623 12.7292 28.7748 14.1269L32.2329 12.1166ZM31.8325 13.6197L33.0169 12.9405L31.0272 9.47052L29.8427 10.1497L31.8325 13.6197ZM20.7776 19.9588C20.265 20.2527 19.6034 20.0837 19.2991 19.5604L22.7573 17.5502C21.9495 16.1606 20.1726 15.6948 18.7878 16.4888L20.7776 19.9588ZM19.2991 19.5604L19.983 20.7368L23.4411 18.7266L22.7573 17.5502L19.2991 19.5604ZM19.983 20.7368C19.6741 20.2054 19.863 19.5322 20.3834 19.2337L22.3732 22.7037C23.7659 21.9051 24.2536 20.1242 23.4411 18.7266L19.983 20.7368ZM20.3834 19.2337L19.199 19.9129L21.1888 23.3829L22.3732 22.7037L20.3834 19.2337ZM19.199 19.9129C19.7116 19.619 20.3732 19.788 20.6774 20.3113L17.2193 22.3216C18.027 23.7112 19.804 24.177 21.1888 23.3829L19.199 19.9129ZM20.6774 20.3113L19.9936 19.1349L16.5354 21.1452L17.2193 22.3216L20.6774 20.3113ZM19.9936 19.1349C20.3025 19.6664 20.1136 20.3396 19.5931 20.638L17.6034 17.168C16.2107 17.9666 15.7229 19.7475 16.5354 21.1452L19.9936 19.1349ZM19.5931 20.638L20.7776 19.9588L18.7878 16.4888L17.6034 17.168L19.5931 20.638Z" fill="#0075B8" mask="url(#path-3-outside-1)"/>
<circle cx="26.1078" cy="16.427" r="1.9559" stroke="#0075B8" stroke-width="2"/>
</svg>
