<svg width="53" height="47" viewBox="0 0 53 47" fill="none" xmlns="http://www.w3.org/2000/svg">
<path d="M34.1284 29.4928H17.1792H6.00049C3.23907 29.4928 1.00049 27.2542 1.00049 24.4928V6C1.00049 3.23857 3.23906 1 6.00049 1H44.2799C47.0414 1 49.2799 3.23858 49.2799 6V23.3591" stroke="#0075B8" stroke-width="2" stroke-linecap="round" stroke-linejoin="round"/>
<path d="M33.818 38.1989H17.1526H2.97867C1.88588 38.1989 1 39.0847 1 40.1775V40.1775C1 41.2703 1.88588 42.1562 2.97867 42.1562H37.0116" stroke="#0075B8" stroke-width="2" stroke-linecap="round" stroke-linejoin="round"/>
<path d="M10.4976 18.8777C11.267 18.1949 13.4216 16.8292 15.8839 16.8292C18.9618 16.8292 22.0398 19.902 24.8612 19.902C27.6826 19.902 31.2735 16.8292 33.8385 16.8292C35.8904 16.8292 37.6004 18.1949 38.1989 18.8777M19.4748 23.2308C20.5863 23.999 23.2196 25.5354 24.8612 25.5354C26.5028 25.5354 28.7941 23.999 29.7346 23.2308" stroke="#0075B8" stroke-width="2" stroke-linecap="round" stroke-linejoin="round"/>
<rect x="36.8247" y="24.9524" width="14.6208" height="20.9525" rx="7.31039" stroke="#0075B8" stroke-width="2" stroke-linecap="round" stroke-linejoin="round"/>
<path d="M44.1348 29.295V32.8566" stroke="#0075B8" stroke-width="2" stroke-linecap="round" stroke-linejoin="round"/>
<path d="M34.2414 16.8293C34.2414 12.021 30.3435 8.12317 25.5352 8.12317C20.727 8.12317 16.8291 12.021 16.8291 16.8293" stroke="#0075B8" stroke-width="2" stroke-linecap="round" stroke-linejoin="round"/>
</svg>
