<svg width="53" height="47" viewBox="0 0 53 47" fill="none" xmlns="http://www.w3.org/2000/svg">
<path d="M34.1289 29.4928H17.1797H6.00098C3.23956 29.4928 1.00098 27.2542 1.00098 24.4928V6C1.00098 3.23857 3.23955 1 6.00098 1H44.2804C47.0418 1 49.2804 3.23858 49.2804 6V23.3591" stroke="white" stroke-width="2" stroke-linecap="round" stroke-linejoin="round"/>
<path d="M33.8185 38.1989H17.1531H2.97915C1.88637 38.1989 1.00049 39.0847 1.00049 40.1775V40.1775C1.00049 41.2703 1.88637 42.1562 2.97916 42.1562H37.0121" stroke="white" stroke-width="2" stroke-linecap="round" stroke-linejoin="round"/>
<path d="M10.498 18.8777C11.2675 18.1948 13.4221 16.8292 15.8844 16.8292C18.9623 16.8292 22.0403 19.9019 24.8617 19.9019C27.6831 19.9019 31.274 16.8292 33.839 16.8292C35.8909 16.8292 37.6009 18.1948 38.1994 18.8777M19.4753 23.2307C20.5868 23.9989 23.2201 25.5353 24.8617 25.5353C26.5033 25.5353 28.7946 23.9989 29.7351 23.2307" stroke="white" stroke-width="2" stroke-linecap="round" stroke-linejoin="round"/>
<rect x="36.8252" y="24.9524" width="14.6208" height="20.9525" rx="7.31039" stroke="white" stroke-width="2" stroke-linecap="round" stroke-linejoin="round"/>
<path d="M44.1353 29.295V32.8566" stroke="white" stroke-width="2" stroke-linecap="round" stroke-linejoin="round"/>
<path d="M34.2418 16.8292C34.2418 12.021 30.344 8.12311 25.5357 8.12311C20.7275 8.12311 16.8296 12.021 16.8296 16.8292" stroke="white" stroke-width="2" stroke-linecap="round" stroke-linejoin="round"/>
</svg>
