<svg width="45" height="45" viewBox="0 0 45 45" fill="none" xmlns="http://www.w3.org/2000/svg">
<g opacity="0.7" filter="url(#filter0_f)">
<path fill-rule="evenodd" clip-rule="evenodd" d="M40.8643 13.6831C40.3426 14.4315 39.2847 15.3501 37.8143 15.7589C38.069 17.222 38.9984 18.181 39.1432 21.6621C39.2386 23.9561 38.9009 26.1262 38.1929 28.0866C33.78 40.3063 18.2978 42.5498 10.3947 34.0606C8.2943 31.8043 6.17917 28.3775 5.80071 24.0255C5.40812 19.5125 6.88089 15.3461 8.95445 12.6025C12.4034 8.03897 17.8346 5.18796 24.1111 5.82035C26.4992 6.06106 27.8539 6.66702 29.8374 7.43573C30.5384 6.16535 30.5853 5.76221 32.1182 4.49903C30.7766 3.42311 27.0623 2.43 25.3246 2.19595C17.5226 1.14534 10.6194 4.4014 6.23305 9.99614C0.896501 16.8032 0.531146 26.5713 5.56171 34.0043C6.23907 35.0051 6.91441 35.739 7.65413 36.5733C10.0161 39.2375 14.5611 42.0745 19.7037 42.7362C34.2405 44.607 45.9708 31.3659 42.1867 17.0501C42.0374 16.4854 41.3164 14.1772 40.8643 13.6831ZM34.8328 5.59744C32.8644 6.1078 31.101 8.04568 31.6832 10.6072C32.1527 12.6734 34.1691 14.4593 36.8066 13.8557C38.7608 13.4084 40.5755 11.3537 39.9812 8.78012C39.5161 6.76571 37.488 4.90894 34.8328 5.59744ZM21.5031 13.187C16.6518 13.6961 12.6374 17.929 13.1733 23.4618C13.6334 28.2118 17.975 32.2732 23.4196 31.7384C28.2395 31.265 32.2576 26.9392 31.7234 21.4587C31.2614 16.7187 26.9171 12.6187 21.5031 13.187Z" fill="#498BFB"/>
</g>
<defs>
<filter id="filter0_f" x="0" y="0" width="44.9039" height="44.9134" filterUnits="userSpaceOnUse" color-interpolation-filters="sRGB">
<feFlood flood-opacity="0" result="BackgroundImageFix"/>
<feBlend mode="normal" in="SourceGraphic" in2="BackgroundImageFix" result="shape"/>
<feGaussianBlur stdDeviation="1" result="effect1_foregroundBlur"/>
</filter>
</defs>
</svg>
